<?xml version="1.0" standalone="no"?>
<!DOCTYPE svg PUBLIC "-//W3C//DTD SVG 1.1//EN" "http://www.w3.org/Graphics/SVG/1.1/DTD/svg11.dtd" >
<svg xmlns="http://www.w3.org/2000/svg" xmlns:xlink="http://www.w3.org/1999/xlink" version="1.1">
<metadata></metadata>
<defs>
<font id="ferryblack" horiz-adv-x="1628" >
<font-face units-per-em="2048" ascent="1935" descent="-113" />
<missing-glyph horiz-adv-x="557" />
<glyph horiz-adv-x="0" />
<glyph horiz-adv-x="682" />
<glyph horiz-adv-x="0" />
<glyph horiz-adv-x="0" />
<glyph unicode="&#xd;" horiz-adv-x="557" />
<glyph unicode=" "  horiz-adv-x="557" />
<glyph unicode="&#x09;" horiz-adv-x="557" />
<glyph unicode="&#xa0;" horiz-adv-x="557" />
<glyph unicode="!" horiz-adv-x="724" d="M72 1434h581l-110 -877h-361zM119 223q0 125 58 182.5t185 57.5t185.5 -57.5t58.5 -182.5t-58.5 -182t-185.5 -57t-185 57t-58 182z" />
<glyph unicode="&#x22;" horiz-adv-x="1105" d="M57 1434h447l-47 -619h-353zM602 1434h447l-48 -619h-352z" />
<glyph unicode="#" horiz-adv-x="1550" d="M53 213v405h189l28 197h-133v406h189l30 213h426l-30 -213h186l31 213h426l-31 -213h133v-406h-188l-29 -197h133v-405h-188l-31 -213h-426l31 213h-187l-30 -213h-426l30 213h-133zM668 618h186l27 197h-187z" />
<glyph unicode="$" horiz-adv-x="1566" d="M57 469h459q12 -46 60.5 -64t173.5 -18h208q54 0 78.5 14t24.5 45q0 64 -103 64h-288q-613 0 -613 477q0 472 580 481v131h266v-131q275 -6 429.5 -133.5t154.5 -369.5h-459q-12 46 -60 64t-173 18h-187q-54 0 -78 -14.5t-24 -45.5q0 -33 24 -48t78 -15h299 q312 0 459 -112.5t147 -365.5q0 -242 -148 -359t-445 -122v-139h-267v139q-280 5 -438 131.5t-158 372.5z" />
<glyph unicode="%" horiz-adv-x="1998" d="M45 1087q0 198 88.5 283.5t292.5 85.5t292.5 -85.5t88.5 -283.5t-88.5 -283t-292.5 -85t-292.5 85t-88.5 283zM328 0l929 1434h406l-930 -1434h-405zM332 1087q0 -51 20 -70.5t74 -19.5t74 19.5t20 70.5t-20 71t-74 20t-74 -20t-20 -71zM1192 346q0 198 88.5 283.5 t292.5 85.5t292.5 -85.5t88.5 -283.5t-88.5 -283.5t-292.5 -85.5t-292.5 85.5t-88.5 283.5zM1479 346q0 -51 20 -70.5t74 -19.5t74 19.5t20 70.5t-20 70.5t-74 19.5t-74 -19.5t-20 -70.5z" />
<glyph unicode="&#x26;" horiz-adv-x="1738" d="M45 430q0 196 133 299q-112 93 -112 281q0 209 140 316.5t412 107.5h615v-418h-635q-96 0 -96 -60q0 -59 96 -59h1133v-360h-248v-537h-885q-270 0 -411.5 110.5t-141.5 319.5zM481 477q0 -59 97 -59h462v119h-462q-97 0 -97 -60z" />
<glyph unicode="'" horiz-adv-x="561" d="M57 1434h447l-47 -619h-353z" />
<glyph unicode="(" horiz-adv-x="894" d="M86 657v119q0 506 198.5 790.5t549.5 284.5v-417q-62 0 -116 -39.5t-97 -117t-68 -206.5t-25 -295v-119q0 -166 25 -294.5t68 -206t97 -117t116 -39.5v-418q-351 0 -549.5 284.5t-198.5 790.5z" />
<glyph unicode=")" horiz-adv-x="894" d="M61 0q62 0 116 39.5t97 117t68 206t25 294.5v119q0 166 -25 295t-68 206.5t-97 117t-116 39.5v417q351 0 549.5 -284.5t198.5 -790.5v-119q0 -506 -198.5 -790.5t-549.5 -284.5v418z" />
<glyph unicode="*" horiz-adv-x="774" d="M29 1004l139 79l-139 80l110 191l137 -80v160h222v-160l137 80l110 -191l-139 -80l139 -79l-110 -191l-137 80v-160h-222v160l-137 -80z" />
<glyph unicode="+" horiz-adv-x="1400" d="M66 504v418h426v426h417v-426h426v-418h-426v-426h-417v426h-426z" />
<glyph unicode="," horiz-adv-x="602" d="M57 223q0 125 58.5 182.5t185.5 57.5q129 0 186.5 -59.5t57.5 -200.5v-92q-2 -81 -9 -136.5t-24.5 -99.5t-43 -70.5t-68.5 -44.5t-96.5 -25.5t-131.5 -10.5h-12v182q76 0 112.5 17.5t36.5 60.5h-8q-127 0 -185.5 57t-58.5 182z" />
<glyph unicode="-" horiz-adv-x="1003" d="M66 524v418h872v-418h-872z" />
<glyph unicode="." horiz-adv-x="602" d="M57 223q0 125 58.5 182.5t185.5 57.5t185.5 -57.5t58.5 -182.5t-58.5 -182t-185.5 -57t-185.5 57t-58.5 182z" />
<glyph unicode="/" horiz-adv-x="1095" d="M25 0l579 1434h467l-579 -1434h-467z" />
<glyph unicode="0" horiz-adv-x="1613" d="M70 651v131q0 360 163.5 523t522.5 163h102q361 0 523.5 -162.5t162.5 -523.5v-131q0 -359 -163 -522.5t-523 -163.5h-102q-358 0 -522 164t-164 522zM512 662q0 -161 56.5 -218t217.5 -57h41q161 0 218 57t57 218v110q0 161 -57 218t-218 57h-41q-161 0 -217.5 -57 t-56.5 -218v-110z" />
<glyph unicode="1" horiz-adv-x="790" d="M0 1016l244 418h407v-1434h-442v1016h-209z" />
<glyph unicode="2" horiz-adv-x="1583" d="M66 0v180q2 125 13 216t37 165.5t65.5 124.5t102.5 88.5t142 62t190 40.5l377 51q52 8 70 20t18 41q0 58 -102 58h-203q-125 0 -173 -18t-60 -64h-463q0 259 169 381t507 122h123q336 0 493.5 -118t157.5 -369q0 -218 -112 -326t-365 -141l-381 -51q-103 -12 -129 -45 h964v-418h-1441z" />
<glyph unicode="3" horiz-adv-x="1556" d="M53 469h463q12 -46 60.5 -64t173.5 -18h176q102 0 102 70q0 69 -102 69h-324v381h303q103 0 103 70t-103 70h-155q-125 0 -173.5 -18t-60.5 -64h-463q0 259 169 381t507 122h107q651 0 651 -477q0 -176 -86 -262q106 -86 106 -283q0 -234 -169 -357.5t-488 -123.5h-121 q-338 0 -507 122.5t-169 381.5z" />
<glyph unicode="4" horiz-adv-x="1523" d="M53 238v397l479 799h527l-471 -779h338v277h442v-277h152v-417h-152v-238h-442v238h-873z" />
<glyph unicode="5" horiz-adv-x="1536" d="M78 469h463q12 -46 60 -64t173 -18h152q116 0 116 74t-116 74h-848v899h1366v-418h-918v-80h353q339 0 477.5 -107.5t138.5 -367.5q0 -266 -151.5 -381t-505.5 -115h-84q-316 0 -496 113t-180 391z" />
<glyph unicode="6" horiz-adv-x="1591" d="M74 651v129q2 159 24.5 270.5t70 193t128.5 129.5t192.5 70.5t270.5 24.5h76q314 0 495 -114q180 -113 180 -391h-462q-10 47 -62.5 64t-175.5 17q-163 0 -218.5 -28.5t-70.5 -130.5q88 18 203 18h162q248 0 387 -42.5t201.5 -139t62.5 -268.5q0 -260 -153.5 -374 t-503.5 -114h-121q-199 2 -326 36t-208.5 115.5t-115.5 208.5t-36 326zM537 453q0 -35 25 -50.5t81 -15.5h336q56 0 81 15.5t25 50.5t-25 50t-81 15h-336q-56 0 -81 -15t-25 -50z" />
<glyph unicode="7" horiz-adv-x="1441" d="M41 1016v418h1364v-398l-623 -1036h-526l614 1016h-829z" />
<glyph unicode="8" horiz-adv-x="1589" d="M57 451q0 91 30 164t85 114q-94 76 -94 270q0 241 158.5 355t492.5 114h131q334 0 492.5 -114t158.5 -355q0 -194 -94 -270q115 -80 115 -297q0 -244 -157.5 -355.5t-500.5 -111.5h-159q-349 0 -503.5 114.5t-154.5 371.5zM494 457q0 -37 25 -53.5t81 -16.5h373 q56 0 81 16.5t25 53.5t-25 53t-81 16h-373q-56 0 -81 -16t-25 -53zM526 977q0 -37 25.5 -53.5t81.5 -16.5h323q56 0 81.5 16.5t25.5 53.5t-25.5 53.5t-81.5 16.5h-323q-56 0 -81.5 -16.5t-25.5 -53.5z" />
<glyph unicode="9" horiz-adv-x="1591" d="M53 981q0 259 154 373t504 114h120q199 -2 326 -36t209 -115.5t116 -209t36 -325.5v-129q-2 -199 -36 -326.5t-116 -209.5t-209.5 -116t-325.5 -36h-75q-313 0 -496 115q-180 113 -180 391h463q10 -47 62 -64.5t175 -17.5q158 0 216 30.5t73 129.5q-93 -19 -203 -19h-161 q-357 0 -504.5 101.5t-147.5 349.5zM506 981q0 -35 25 -50.5t81 -15.5h336q56 0 81.5 15.5t25.5 50.5t-25.5 50.5t-81.5 15.5h-336q-56 0 -81 -15.5t-25 -50.5z" />
<glyph unicode=":" horiz-adv-x="602" d="M57 223q0 125 58.5 182.5t185.5 57.5t185.5 -57.5t58.5 -182.5t-58.5 -182t-185.5 -57t-185.5 57t-58.5 182zM57 997q0 125 58.5 182.5t185.5 57.5t185.5 -57.5t58.5 -182.5t-58.5 -182t-185.5 -57t-185.5 57t-58.5 182z" />
<glyph unicode=";" horiz-adv-x="602" d="M57 223q0 125 58.5 182.5t185.5 57.5q129 0 186.5 -59.5t57.5 -200.5v-92q-2 -81 -9 -136.5t-24.5 -99.5t-43 -70.5t-68.5 -44.5t-96.5 -25.5t-131.5 -10.5h-12v182q76 0 112.5 17.5t36.5 60.5h-8q-127 0 -185.5 57t-58.5 182zM57 997q0 125 58.5 182.5t185.5 57.5 t185.5 -57.5t58.5 -182.5t-58.5 -182t-185.5 -57t-185.5 57t-58.5 182z" />
<glyph unicode="&#x3c;" horiz-adv-x="1400" d="M66 502v422l1269 391v-443l-633 -159l633 -160v-442z" />
<glyph unicode="=" horiz-adv-x="1400" d="M66 233v418h1269v-418h-1269zM66 774v418h1269v-418h-1269z" />
<glyph unicode="&#x3e;" horiz-adv-x="1400" d="M66 111v442l632 160l-632 159v443l1269 -391v-422z" />
<glyph unicode="?" horiz-adv-x="1411" d="M25 965q0 277 182 391q178 112 485 112h39q298 -6 477 -102q174 -94 174 -336q0 -290 -286 -346l-105 -20q-73 -14 -95 -33.5t-22 -73.5h-442q1 70 6 117.5t18.5 88.5t34 66t56 46.5t81.5 35t113 25.5l103 16q55 8 72.5 17t17.5 32q0 26 -23.5 36t-81.5 10h-116 q-125 0 -173.5 -18t-60.5 -64h-454zM410 223q0 125 58 182.5t185 57.5t185.5 -57.5t58.5 -182.5t-58.5 -182t-185.5 -57t-185 57t-58 182z" />
<glyph unicode="@" horiz-adv-x="2154" d="M74 588v151q0 460 218.5 677.5t680.5 217.5h209q462 0 680.5 -217.5t218.5 -677.5v-131q0 -260 -97.5 -381t-308.5 -121q-245 0 -348 154q-110 -154 -352 -154q-239 0 -356 125.5t-117 382.5v99q0 256 116.5 382t354.5 126q219 0 317 -113v88h324v-664q0 -108 28.5 -157 t88.5 -49q70 0 105.5 68.5t35.5 219.5v119q0 382 -161 541.5t-544 159.5h-180q-383 0 -543.5 -159.5t-160.5 -541.5v-139q0 -382 160.5 -541t543.5 -159h180q274 0 449 71l61 -188q-84 -41 -218.5 -62.5t-276.5 -21.5h-209q-462 0 -680.5 217.5t-218.5 677.5zM825 621 q0 -104 49.5 -153.5t155.5 -49.5h60q106 0 155 49t49 154v86q0 104 -49 153t-155 49h-60q-106 0 -155.5 -49t-49.5 -153v-86z" />
<glyph unicode="A" horiz-adv-x="1683" d="M-12 0l579 1434h549l580 -1434h-469l-92 238h-590l-92 -238h-465zM705 655h270l-135 351z" />
<glyph unicode="B" horiz-adv-x="1662" d="M106 0v1434h938q272 0 412.5 -107.5t140.5 -316.5q0 -188 -112 -281q133 -103 133 -299q0 -209 -141.5 -319.5t-411.5 -110.5h-959zM549 418h536q97 0 97 59q0 60 -97 60h-536v-119zM549 897h516q96 0 96 59q0 60 -96 60h-516v-119z" />
<glyph unicode="C" horiz-adv-x="1654" d="M78 651v131q2 199 36 326t115.5 208.5t208.5 115.5t326 36h207q298 0 458 -126.5t160 -376.5h-459q-12 46 -60 64t-173 18h-102q-89 0 -140 -10.5t-83 -43t-42 -83t-10 -138.5v-110q0 -90 10 -140.5t42 -82.5t82.5 -42t140.5 -10h102q125 0 173 18t60 64h459 q0 -250 -160 -377t-458 -127h-207q-199 2 -326 36t-208.5 115.5t-115.5 208.5t-36 326z" />
<glyph unicode="D" horiz-adv-x="1667" d="M106 0v1434h752q198 0 336 -36t231.5 -117.5t137 -212t43.5 -320.5v-62q0 -190 -43.5 -320.5t-137 -212t-231.5 -117.5t-336 -36h-752zM549 418h278q183 0 259.5 63t76.5 215v41q0 152 -76.5 215.5t-259.5 63.5h-278v-598z" />
<glyph unicode="E" horiz-adv-x="1480" d="M106 0v1434h1301v-418h-858v-101h581v-393h-581v-104h862v-418h-1305z" />
<glyph unicode="F" horiz-adv-x="1445" d="M106 0v1434h1287v-418h-844v-121h561v-393h-561v-502h-443z" />
<glyph unicode="G" horiz-adv-x="1703" d="M78 651v131q2 199 36 326t115.5 208.5t208.5 115.5t326 36h248q298 0 458 -126.5t160 -376.5h-459q-12 46 -60 64t-173 18h-143q-89 0 -140 -10.5t-83 -43t-42 -83t-10 -138.5v-110q0 -90 10 -140.5t42 -82.5t82.5 -42t140.5 -10h104q165 0 220 25.5t55 117.5h-326v357 h784v-277q-2 -127 -16 -219.5t-46.5 -166t-82.5 -120.5t-128.5 -78.5t-178 -45t-236.5 -15.5h-180q-199 2 -326 36t-208.5 115.5t-115.5 208.5t-36 326z" />
<glyph unicode="H" horiz-adv-x="1691" d="M106 0v1434h443v-504h594v504h442v-1434h-442v512h-594v-512h-443z" />
<glyph unicode="I" horiz-adv-x="677" d="M117 0v1434h442v-1434h-442z" />
<glyph unicode="J" horiz-adv-x="1480" d="M37 471h459q14 -82 202 -82q148 0 196 54t48 221v352h-741v418h1183v-783q-2 -198 -36.5 -325.5t-116 -209t-206.5 -115.5t-318 -36q-331 0 -500.5 119.5t-169.5 386.5z" />
<glyph unicode="K" horiz-adv-x="1665" d="M106 0v1434h443v-566l1038 590v-497l-336 -187l355 -774h-482l-266 557l-309 -172v-385h-443z" />
<glyph unicode="L" horiz-adv-x="1404" d="M106 0v1434h443v-1016h811v-418h-1254z" />
<glyph unicode="M" horiz-adv-x="1785" d="M106 0v1434h463l326 -373l326 373h458v-1434h-442v805l-346 -395l-342 389v-799h-443z" />
<glyph unicode="N" horiz-adv-x="1703" d="M106 0v1434h451l598 -682v682h442v-1434h-378l-670 764v-764h-443z" />
<glyph unicode="O" horiz-adv-x="1716" d="M78 651v131q2 199 36 326t115.5 208.5t208.5 115.5t326 36h188q199 -2 326 -36t208.5 -115.5t115.5 -208.5t36 -326v-131q-2 -199 -36 -326t-115.5 -208.5t-208.5 -115.5t-326 -36h-188q-199 2 -326 36t-208.5 115.5t-115.5 208.5t-36 326zM520 662q0 -90 10 -140.5 t42 -82.5t82.5 -42t140.5 -10h127q90 0 140 10t82 42t42 82.5t10 140.5v110q0 88 -10 138.5t-41.5 83t-82.5 43t-140 10.5h-127q-89 0 -140 -10.5t-83 -43t-42 -83t-10 -138.5v-110z" />
<glyph unicode="P" horiz-adv-x="1638" d="M106 0v1434h955q270 0 409.5 -125t139.5 -367q0 -241 -139.5 -366t-409.5 -125h-512v-451h-443zM549 868h520q98 0 98 74q0 34 -25 54t-73 20h-520v-148z" />
<glyph unicode="Q" horiz-adv-x="1716" d="M78 651v131q2 199 36 326t115.5 208.5t208.5 115.5t326 36h188q199 -2 326 -36t208.5 -115.5t115.5 -208.5t36 -326v-131q0 -242 -55 -379l90 -86l-262 -272l-102 96q-134 -45 -357 -45h-188q-199 2 -326 36t-208.5 115.5t-115.5 208.5t-36 326zM520 662q0 -90 10 -140.5 t42 -82.5t82.5 -42t140.5 -10h120l-124 119l262 272l143 -137v21v110q0 88 -10 138.5t-41.5 83t-82.5 43t-140 10.5h-127q-89 0 -140 -10.5t-83 -43t-42 -83t-10 -138.5v-110z" />
<glyph unicode="R" horiz-adv-x="1665" d="M106 0v1434h955q270 0 409.5 -125t139.5 -367q0 -157 -68.5 -265.5t-198.5 -162.5l295 -514h-497l-256 467h-336v-467h-443zM549 885h522q96 0 96 65q0 66 -96 66h-522v-131z" />
<glyph unicode="S" d="M57 469h459q12 -46 60.5 -64t173.5 -18h270q54 0 78 14t24 45q0 64 -102 64h-350q-613 0 -613 477q0 243 156 362t451 119h270q289 0 451.5 -127.5t162.5 -375.5h-458q-12 46 -60.5 64t-173.5 18h-248q-54 0 -78 -14.5t-24 -45.5q0 -33 24 -48t78 -15h361 q312 0 459 -112.5t147 -365.5q0 -245 -153.5 -363t-458.5 -118h-291q-280 0 -449 123q-166 126 -166 381z" />
<glyph unicode="T" horiz-adv-x="1560" d="M41 1016v418h1479v-418h-519v-1016h-442v1016h-518z" />
<glyph unicode="U" horiz-adv-x="1687" d="M96 651v783h443v-772q0 -90 10 -140.5t42 -82.5t82 -42t140 -10h61q90 0 140.5 10t82.5 42t42 82.5t10 140.5v772h442v-783q-2 -199 -36 -326t-115.5 -208.5t-208.5 -115.5t-326 -36h-123q-199 2 -326 36t-208.5 115.5t-115.5 208.5t-36 326z" />
<glyph unicode="V" horiz-adv-x="1611" d="M-12 1434h491l330 -936l328 936h487l-539 -1434h-559z" />
<glyph unicode="W" horiz-adv-x="2023" d="M16 1434h463l170 -654l189 658h352l188 -658l170 654h459l-395 -1434h-426l-174 618l-174 -618h-426z" />
<glyph unicode="X" horiz-adv-x="1673" d="M8 0l539 725l-529 709h560l266 -365l262 365h549l-531 -707l541 -727h-559l-268 381l-281 -381h-549z" />
<glyph unicode="Y" horiz-adv-x="1583" d="M-16 1434h514l295 -504l292 504h512l-587 -967v-467h-443v467z" />
<glyph unicode="Z" horiz-adv-x="1546" d="M90 0v391l688 625h-688v418h1366v-394l-686 -622h686v-418h-1366z" />
<glyph unicode="[" horiz-adv-x="942" d="M106 -381v2196h779v-381h-336v-1434h336v-381h-779z" />
<glyph unicode="\" horiz-adv-x="1095" d="M25 1434h467l579 -1434h-467z" />
<glyph unicode="]" horiz-adv-x="942" d="M57 0h336v1434h-336v381h779v-2196h-779v381z" />
<glyph unicode="^" horiz-adv-x="1277" d="M37 750l391 684h422l391 -684h-442l-160 278l-162 -278h-440z" />
<glyph unicode="_" horiz-adv-x="1417" d="M-12 -117h1442v-418h-1442v418z" />
<glyph unicode="`" horiz-adv-x="1228" d="M252 1847h381l155 -311h-346z" />
<glyph unicode="a" horiz-adv-x="1683" d="M-12 0l579 1434h549l580 -1434h-469l-92 238h-590l-92 -238h-465zM705 655h270l-135 351z" />
<glyph unicode="b" horiz-adv-x="1662" d="M106 0v1434h938q272 0 412.5 -107.5t140.5 -316.5q0 -188 -112 -281q133 -103 133 -299q0 -209 -141.5 -319.5t-411.5 -110.5h-959zM549 418h536q97 0 97 59q0 60 -97 60h-536v-119zM549 897h516q96 0 96 59q0 60 -96 60h-516v-119z" />
<glyph unicode="c" horiz-adv-x="1654" d="M78 651v131q2 199 36 326t115.5 208.5t208.5 115.5t326 36h207q298 0 458 -126.5t160 -376.5h-459q-12 46 -60 64t-173 18h-102q-89 0 -140 -10.5t-83 -43t-42 -83t-10 -138.5v-110q0 -90 10 -140.5t42 -82.5t82.5 -42t140.5 -10h102q125 0 173 18t60 64h459 q0 -250 -160 -377t-458 -127h-207q-199 2 -326 36t-208.5 115.5t-115.5 208.5t-36 326z" />
<glyph unicode="d" horiz-adv-x="1667" d="M106 0v1434h752q198 0 336 -36t231.5 -117.5t137 -212t43.5 -320.5v-62q0 -190 -43.5 -320.5t-137 -212t-231.5 -117.5t-336 -36h-752zM549 418h278q183 0 259.5 63t76.5 215v41q0 152 -76.5 215.5t-259.5 63.5h-278v-598z" />
<glyph unicode="e" horiz-adv-x="1480" d="M106 0v1434h1301v-418h-858v-101h581v-393h-581v-104h862v-418h-1305z" />
<glyph unicode="f" horiz-adv-x="1445" d="M106 0v1434h1287v-418h-844v-121h561v-393h-561v-502h-443z" />
<glyph unicode="g" horiz-adv-x="1703" d="M78 651v131q2 199 36 326t115.5 208.5t208.5 115.5t326 36h248q298 0 458 -126.5t160 -376.5h-459q-12 46 -60 64t-173 18h-143q-89 0 -140 -10.5t-83 -43t-42 -83t-10 -138.5v-110q0 -90 10 -140.5t42 -82.5t82.5 -42t140.5 -10h104q165 0 220 25.5t55 117.5h-326v357 h784v-277q-2 -127 -16 -219.5t-46.5 -166t-82.5 -120.5t-128.5 -78.5t-178 -45t-236.5 -15.5h-180q-199 2 -326 36t-208.5 115.5t-115.5 208.5t-36 326z" />
<glyph unicode="h" horiz-adv-x="1691" d="M106 0v1434h443v-504h594v504h442v-1434h-442v512h-594v-512h-443z" />
<glyph unicode="i" horiz-adv-x="677" d="M117 0v1434h442v-1434h-442z" />
<glyph unicode="j" horiz-adv-x="1480" d="M37 471h459q14 -82 202 -82q148 0 196 54t48 221v352h-741v418h1183v-783q-2 -198 -36.5 -325.5t-116 -209t-206.5 -115.5t-318 -36q-331 0 -500.5 119.5t-169.5 386.5z" />
<glyph unicode="k" horiz-adv-x="1665" d="M106 0v1434h443v-566l1038 590v-497l-336 -187l355 -774h-482l-266 557l-309 -172v-385h-443z" />
<glyph unicode="l" horiz-adv-x="1404" d="M106 0v1434h443v-1016h811v-418h-1254z" />
<glyph unicode="m" horiz-adv-x="1785" d="M106 0v1434h463l326 -373l326 373h458v-1434h-442v805l-346 -395l-342 389v-799h-443z" />
<glyph unicode="n" horiz-adv-x="1703" d="M106 0v1434h451l598 -682v682h442v-1434h-378l-670 764v-764h-443z" />
<glyph unicode="o" horiz-adv-x="1716" d="M78 651v131q2 199 36 326t115.5 208.5t208.5 115.5t326 36h188q199 -2 326 -36t208.5 -115.5t115.5 -208.5t36 -326v-131q-2 -199 -36 -326t-115.5 -208.5t-208.5 -115.5t-326 -36h-188q-199 2 -326 36t-208.5 115.5t-115.5 208.5t-36 326zM520 662q0 -90 10 -140.5 t42 -82.5t82.5 -42t140.5 -10h127q90 0 140 10t82 42t42 82.5t10 140.5v110q0 88 -10 138.5t-41.5 83t-82.5 43t-140 10.5h-127q-89 0 -140 -10.5t-83 -43t-42 -83t-10 -138.5v-110z" />
<glyph unicode="p" horiz-adv-x="1638" d="M106 0v1434h955q270 0 409.5 -125t139.5 -367q0 -241 -139.5 -366t-409.5 -125h-512v-451h-443zM549 868h520q98 0 98 74q0 34 -25 54t-73 20h-520v-148z" />
<glyph unicode="q" horiz-adv-x="1716" d="M78 651v131q2 199 36 326t115.5 208.5t208.5 115.5t326 36h188q199 -2 326 -36t208.5 -115.5t115.5 -208.5t36 -326v-131q0 -242 -55 -379l90 -86l-262 -272l-102 96q-134 -45 -357 -45h-188q-199 2 -326 36t-208.5 115.5t-115.5 208.5t-36 326zM520 662q0 -90 10 -140.5 t42 -82.5t82.5 -42t140.5 -10h120l-124 119l262 272l143 -137v21v110q0 88 -10 138.5t-41.5 83t-82.5 43t-140 10.5h-127q-89 0 -140 -10.5t-83 -43t-42 -83t-10 -138.5v-110z" />
<glyph unicode="r" horiz-adv-x="1665" d="M106 0v1434h955q270 0 409.5 -125t139.5 -367q0 -157 -68.5 -265.5t-198.5 -162.5l295 -514h-497l-256 467h-336v-467h-443zM549 885h522q96 0 96 65q0 66 -96 66h-522v-131z" />
<glyph unicode="s" d="M57 469h459q12 -46 60.5 -64t173.5 -18h270q54 0 78 14t24 45q0 64 -102 64h-350q-613 0 -613 477q0 243 156 362t451 119h270q289 0 451.5 -127.5t162.5 -375.5h-458q-12 46 -60.5 64t-173.5 18h-248q-54 0 -78 -14.5t-24 -45.5q0 -33 24 -48t78 -15h361 q312 0 459 -112.5t147 -365.5q0 -245 -153.5 -363t-458.5 -118h-291q-280 0 -449 123q-166 126 -166 381z" />
<glyph unicode="t" horiz-adv-x="1560" d="M41 1016v418h1479v-418h-519v-1016h-442v1016h-518z" />
<glyph unicode="u" horiz-adv-x="1687" d="M96 651v783h443v-772q0 -90 10 -140.5t42 -82.5t82 -42t140 -10h61q90 0 140.5 10t82.5 42t42 82.5t10 140.5v772h442v-783q-2 -199 -36 -326t-115.5 -208.5t-208.5 -115.5t-326 -36h-123q-199 2 -326 36t-208.5 115.5t-115.5 208.5t-36 326z" />
<glyph unicode="v" horiz-adv-x="1611" d="M-12 1434h491l330 -936l328 936h487l-539 -1434h-559z" />
<glyph unicode="w" horiz-adv-x="2023" d="M16 1434h463l170 -654l189 658h352l188 -658l170 654h459l-395 -1434h-426l-174 618l-174 -618h-426z" />
<glyph unicode="x" horiz-adv-x="1673" d="M8 0l539 725l-529 709h560l266 -365l262 365h549l-531 -707l541 -727h-559l-268 381l-281 -381h-549z" />
<glyph unicode="y" horiz-adv-x="1583" d="M-16 1434h514l295 -504l292 504h512l-587 -967v-467h-443v467z" />
<glyph unicode="z" horiz-adv-x="1546" d="M90 0v391l688 625h-688v418h1366v-394l-686 -622h686v-418h-1366z" />
<glyph unicode="{" horiz-adv-x="1032" d="M61 508v418h17q225 0 225 213v69q0 173 40.5 291.5t125.5 187.5t202.5 98.5t286.5 29.5h17v-381h-17q-213 0 -213 -226v-16q0 -334 -163 -475q163 -141 163 -475v-17q0 -225 213 -225h17v-381h-17q-134 0 -235 18t-182.5 60.5t-132.5 112.5t-78 173t-27 242v70 q0 213 -225 213h-17z" />
<glyph unicode="|" horiz-adv-x="724" d="M152 -215v1864h421v-1864h-421z" />
<glyph unicode="}" horiz-adv-x="1032" d="M57 0h17q213 0 213 225v17q0 334 164 475q-164 141 -164 475v16q0 226 -213 226h-17v381h17q169 0 286.5 -29.5t202.5 -98.5t125.5 -187.5t40.5 -291.5v-69q0 -213 225 -213h17v-418h-17q-225 0 -225 -213v-70q0 -139 -27 -242t-78 -173t-132.5 -112.5t-182.5 -60.5 t-235 -18h-17v381z" />
<glyph unicode="~" horiz-adv-x="1304" d="M29 897q55 151 169 236.5t251 85.5q61 0 114 -14.5t135 -47.5q100 -41 140 -41q74 0 98 86l340 -131q-49 -146 -156.5 -233.5t-253.5 -87.5q-114 0 -258 61q-87 37 -129 37q-81 0 -104 -84z" />
<glyph unicode="&#xa2;" horiz-adv-x="1548" d="M57 655q0 243 57 387.5t184.5 216t346.5 84.5v175h266v-175q294 -14 441 -136t147 -365h-471q-8 31 -31.5 48.5t-76 26.5t-144.5 9q-89 0 -140.5 -11.5t-84 -44.5t-43 -84.5t-10.5 -140.5q0 -83 11 -131.5t44 -78.5t84 -40t139 -10q92 0 144.5 9t76 26.5t31.5 48.5h471 q0 -243 -147 -365.5t-441 -136.5v-141h-266v141q-218 13 -345 84.5t-185 216.5t-58 387z" />
<glyph unicode="&#xa3;" horiz-adv-x="1540" d="M61 0v406q85 0 127 46t48 140h-134v246h138q12 311 171.5 470.5t456.5 159.5q272 0 428 -133t162 -370h-436q-14 39 -54 60.5t-100 21.5q-80 0 -127 -53t-57 -156h272v-246h-278q-3 -100 -31 -170h832v-422h-1418z" />
<glyph unicode="&#xa5;" horiz-adv-x="1527" d="M-12 1434h534l244 -359l244 359h530l-498 -699h377v-184h-436v-62h436v-184h-436v-305h-442v305h-432v184h432v62h-432v184h372z" />
<glyph unicode="&#xa8;" horiz-adv-x="1228" d="M135 1712q0 97 46.5 143t144.5 46t144 -46t46 -143t-46 -142.5t-144 -45.5t-144.5 45.5t-46.5 142.5zM713 1712q0 97 46 143t144 46t144.5 -46t46.5 -143t-46.5 -142.5t-144.5 -45.5t-144 45.5t-46 142.5z" />
<glyph unicode="&#xa9;" horiz-adv-x="1650" d="M66 717q0 351 201 551t558 200t558.5 -200t201.5 -551t-201.5 -551.5t-558.5 -200.5t-558 200.5t-201 551.5zM274 717q0 -267 141 -409t410 -142t410 142t141 409t-141 409t-410 142t-410 -142t-141 -409zM459 684v61q0 102 14.5 164.5t53 102t100.5 54.5t164 15h73 q180 0 254 -60t74 -212h-227q-4 35 -28.5 48t-84.5 13h-41q-88 0 -110.5 -22t-22.5 -107v-51q0 -84 22 -105.5t111 -21.5h41q63 0 86 12t27 48h227q0 -156 -73.5 -213.5t-254.5 -57.5h-73q-105 2 -165.5 16t-99 53t-52 99t-15.5 164z" />
<glyph unicode="&#xab;" horiz-adv-x="1636" d="M0 713l608 608l271 -270l-338 -338l338 -338l-271 -271zM700 713l609 608l270 -270l-338 -338l338 -338l-270 -271z" />
<glyph unicode="&#xad;" horiz-adv-x="1003" d="M66 524v418h872v-418h-872z" />
<glyph unicode="&#xae;" horiz-adv-x="1650" d="M66 717q0 351 201 551t558 200t558.5 -200t201.5 -551t-201.5 -551.5t-558.5 -200.5t-558 200.5t-201 551.5zM274 717q0 -267 141 -409t410 -142t410 142t141 409t-141 409t-410 142t-410 -142t-141 -409zM514 377v682h367q171 0 246 -58.5t75 -191.5q0 -155 -112 -207 l129 -225h-238l-104 190h-154v-190h-209zM723 766h199q41 0 58 11t17 36t-17 36t-58 11h-199v-94z" />
<glyph unicode="&#xb4;" horiz-adv-x="1228" d="M442 1536l156 311h381l-191 -311h-346z" />
<glyph unicode="&#xb8;" horiz-adv-x="1228" d="M418 -313h274q45 0 45 28q0 33 -45 33h-211v152l41 65h203l-37 -53h8q126 0 182 -50t56 -157t-55.5 -155t-182.5 -48h-278v185z" />
<glyph unicode="&#xbb;" horiz-adv-x="1636" d="M57 375l338 338l-338 338l271 270l608 -608l-608 -609zM758 375l338 338l-338 338l270 270l608 -608l-608 -609z" />
<glyph unicode="&#x2c6;" horiz-adv-x="1228" d="M162 1536l188 295h529l188 -295h-330l-123 150l-122 -150h-330z" />
<glyph unicode="&#x2da;" horiz-adv-x="1228" d="M338 1604q0 111 80.5 189.5t195.5 78.5t196 -78.5t81 -189.5t-81 -190t-196 -79t-195.5 79t-80.5 190zM481 1604q0 -54 38 -91.5t95 -37.5t95.5 37t38.5 92t-38.5 92t-95.5 37q-56 0 -94.5 -37t-38.5 -92z" />
<glyph unicode="&#x2dc;" horiz-adv-x="1228" d="M186 1546q20 134 86 206.5t170 72.5q75 0 187 -47q80 -35 123 -35q65 0 77 69h213q-40 -278 -258 -278q-81 0 -196 47q-79 31 -113 31q-61 0 -76 -66h-213z" />
<glyph unicode="&#x401;" horiz-adv-x="1480" d="M106 0v1434h1301v-418h-858v-101h581v-393h-581v-104h862v-418h-1305zM281 1712q0 97 46 143t144 46t144.5 -46t46.5 -143t-46.5 -142.5t-144.5 -45.5t-144 45.5t-46 142.5zM858 1712q0 97 46.5 143t144.5 46t144 -46t46 -143t-46 -142.5t-144 -45.5t-144.5 45.5 t-46.5 142.5z" />
<glyph unicode="&#x402;" horiz-adv-x="2037" d="M41 1016v418h1479v-418h-519v-119h455q553 0 553 -448q0 -449 -553 -449h-334v418h355q96 0 96 59q0 60 -96 60h-476v-537h-442v1016h-518z" />
<glyph unicode="&#x403;" horiz-adv-x="1398" d="M106 0v1434h1252v-418h-809v-1016h-443zM543 1536l155 311h381l-190 -311h-346z" />
<glyph unicode="&#x404;" d="M78 651v131q2 199 36 326t115.5 208.5t208.5 115.5t326 36h180q298 0 458.5 -126.5t160.5 -376.5h-459q-12 46 -60.5 64t-173.5 18h-75q-139 0 -201 -33t-62 -107h517v-381h-519q0 -73 62.5 -106t202.5 -33h75q125 0 173.5 18t60.5 64h459q0 -250 -160.5 -377 t-458.5 -127h-180q-199 2 -326 36t-208.5 115.5t-115.5 208.5t-36 326z" />
<glyph unicode="&#x405;" d="M57 469h459q12 -46 60.5 -64t173.5 -18h270q54 0 78 14t24 45q0 64 -102 64h-350q-613 0 -613 477q0 243 156 362t451 119h270q289 0 451.5 -127.5t162.5 -375.5h-458q-12 46 -60.5 64t-173.5 18h-248q-54 0 -78 -14.5t-24 -45.5q0 -33 24 -48t78 -15h361 q312 0 459 -112.5t147 -365.5q0 -245 -153.5 -363t-458.5 -118h-291q-280 0 -449 123q-166 126 -166 381z" />
<glyph unicode="&#x406;" horiz-adv-x="677" d="M117 0v1434h442v-1434h-442z" />
<glyph unicode="&#x407;" horiz-adv-x="677" d="M-139 1712q0 97 46 143t144 46t144.5 -46t46.5 -143t-46.5 -142.5t-144.5 -45.5t-144 45.5t-46 142.5zM117 0v1434h442v-1434h-442zM438 1712q0 97 46.5 143t144.5 46t144 -46t46 -143t-46 -142.5t-144 -45.5t-144.5 45.5t-46.5 142.5z" />
<glyph unicode="&#x408;" horiz-adv-x="1480" d="M37 471h459q14 -82 202 -82q148 0 196 54t48 221v352h-741v418h1183v-783q-2 -198 -36.5 -325.5t-116 -209t-206.5 -115.5t-318 -36q-331 0 -500.5 119.5t-169.5 386.5z" />
<glyph unicode="&#x409;" horiz-adv-x="2643" d="M45 0v422q105 0 157.5 18t74 57t32.5 121l115 816h1188v-476h454q270 0 409.5 -122t139.5 -357t-139.5 -357t-409.5 -122h-897v1016h-362l-78 -559q-35 -244 -189 -350.5t-464 -106.5h-31zM1612 418h465q51 0 73.5 14.5t22.5 46.5t-22.5 47t-73.5 15h-465v-123z" />
<glyph unicode="&#x40a;" horiz-adv-x="2617" d="M106 0v1434h443v-504h594v504h442v-476h455q270 0 409.5 -122t139.5 -357t-139.5 -357t-409.5 -122h-897v512h-594v-512h-443zM1585 418h465q51 0 73.5 14.5t22.5 46.5t-22.5 47t-73.5 15h-465v-123z" />
<glyph unicode="&#x40b;" horiz-adv-x="2064" d="M41 1016v418h1479v-418h-519v-119h332q107 -2 186 -9t148 -23.5t115.5 -40t85 -63t61 -87.5t38.5 -119t23 -152t9 -192v-211h-443v221q0 150 -44.5 204t-168.5 54h-342v-479h-442v1016h-518z" />
<glyph unicode="&#x40c;" d="M106 0v1434h443v-504h268l297 504h504l-428 -713l420 -721h-508l-295 512h-258v-512h-443zM616 1536l156 311h381l-190 -311h-347z" />
<glyph unicode="&#x40e;" horiz-adv-x="1673" d="M23 1434h499l336 -596l336 596h496l-703 -1217q-50 -87 -102.5 -132.5t-127.5 -65t-198 -19.5h-295v418h250q49 0 86 16zM471 1866v20h213q0 -71 47 -114t123 -43t123 43t47 114h213v-20q0 -161 -101.5 -251.5t-281.5 -90.5t-281.5 90.5t-101.5 251.5z" />
<glyph unicode="&#x40f;" horiz-adv-x="1626" d="M106 0v1434h443v-1016h528v1016h443v-1434h-494v-215h-426v215h-494z" />
<glyph unicode="&#x410;" horiz-adv-x="1683" d="M-12 0l579 1434h549l580 -1434h-469l-92 238h-590l-92 -238h-465zM705 655h270l-135 351z" />
<glyph unicode="&#x411;" horiz-adv-x="1667" d="M106 0v1434h1455v-418h-1012v-119h516q553 0 553 -448q0 -449 -553 -449h-959zM549 418h536q97 0 97 59q0 60 -97 60h-536v-119z" />
<glyph unicode="&#x412;" horiz-adv-x="1662" d="M106 0v1434h938q272 0 412.5 -107.5t140.5 -316.5q0 -188 -112 -281q133 -103 133 -299q0 -209 -141.5 -319.5t-411.5 -110.5h-959zM549 418h536q97 0 97 59q0 60 -97 60h-536v-119zM549 897h516q96 0 96 59q0 60 -96 60h-516v-119z" />
<glyph unicode="&#x413;" horiz-adv-x="1398" d="M106 0v1434h1252v-418h-809v-1016h-443z" />
<glyph unicode="&#x414;" horiz-adv-x="1810" d="M41 -215v621h27q115 0 165 20q49 22 68 68t37 170l108 770h1164v-1016h159v-633h-426v215h-876v-215h-426zM733 418h434v598h-338l-59 -430q-14 -93 -37 -168z" />
<glyph unicode="&#x415;" horiz-adv-x="1480" d="M106 0v1434h1301v-418h-858v-101h581v-393h-581v-104h862v-418h-1305z" />
<glyph unicode="&#x416;" horiz-adv-x="2424" d="M10 1434h508l297 -504h178v504h443v-504h178l297 504h504l-428 -713l419 -721h-508l-294 512h-168v-512h-443v512h-168l-295 -512h-507l417 717z" />
<glyph unicode="&#x417;" horiz-adv-x="1622" d="M61 469h463q12 -46 60.5 -64t173.5 -18h237q103 0 103 70q0 69 -103 69h-385v381h365q102 0 102 70t-102 70h-217q-125 0 -173.5 -18t-60.5 -64h-463q0 259 169 381t507 122h168q651 0 651 -477q0 -176 -86 -262q107 -87 107 -283q0 -234 -169 -357.5t-488 -123.5h-183 q-338 0 -507 122.5t-169 381.5z" />
<glyph unicode="&#x418;" horiz-adv-x="1708" d="M106 0v1434h443v-695l602 695h451v-1434h-443v772l-670 -772h-383z" />
<glyph unicode="&#x419;" horiz-adv-x="1708" d="M106 0v1434h443v-695l602 695h451v-1434h-443v772l-670 -772h-383zM473 1866v20h213q0 -71 47 -114t123 -43t123 43t47 114h213v-20q0 -161 -101.5 -251.5t-281.5 -90.5t-281.5 90.5t-101.5 251.5z" />
<glyph unicode="&#x41a;" d="M106 0v1434h443v-504h268l297 504h504l-428 -713l420 -721h-508l-295 512h-258v-512h-443z" />
<glyph unicode="&#x41b;" horiz-adv-x="1718" d="M45 0v422q105 0 157.5 18t74 57t32.5 121l115 816h1188v-1434h-443v1016h-362l-78 -559q-35 -244 -189 -350.5t-464 -106.5h-31z" />
<glyph unicode="&#x41c;" horiz-adv-x="1785" d="M106 0v1434h463l326 -373l326 373h458v-1434h-442v805l-346 -395l-342 389v-799h-443z" />
<glyph unicode="&#x41d;" horiz-adv-x="1691" d="M106 0v1434h443v-504h594v504h442v-1434h-442v512h-594v-512h-443z" />
<glyph unicode="&#x41e;" horiz-adv-x="1716" d="M78 651v131q2 199 36 326t115.5 208.5t208.5 115.5t326 36h188q199 -2 326 -36t208.5 -115.5t115.5 -208.5t36 -326v-131q-2 -199 -36 -326t-115.5 -208.5t-208.5 -115.5t-326 -36h-188q-199 2 -326 36t-208.5 115.5t-115.5 208.5t-36 326zM520 662q0 -90 10 -140.5 t42 -82.5t82.5 -42t140.5 -10h127q90 0 140 10t82 42t42 82.5t10 140.5v110q0 88 -10 138.5t-41.5 83t-82.5 43t-140 10.5h-127q-89 0 -140 -10.5t-83 -43t-42 -83t-10 -138.5v-110z" />
<glyph unicode="&#x41f;" horiz-adv-x="1691" d="M106 0v1434h1479v-1434h-442v1016h-594v-1016h-443z" />
<glyph unicode="&#x420;" horiz-adv-x="1638" d="M106 0v1434h955q270 0 409.5 -125t139.5 -367q0 -241 -139.5 -366t-409.5 -125h-512v-451h-443zM549 868h520q98 0 98 74q0 34 -25 54t-73 20h-520v-148z" />
<glyph unicode="&#x421;" horiz-adv-x="1654" d="M78 651v131q2 199 36 326t115.5 208.5t208.5 115.5t326 36h207q298 0 458 -126.5t160 -376.5h-459q-12 46 -60 64t-173 18h-102q-89 0 -140 -10.5t-83 -43t-42 -83t-10 -138.5v-110q0 -90 10 -140.5t42 -82.5t82.5 -42t140.5 -10h102q125 0 173 18t60 64h459 q0 -250 -160 -377t-458 -127h-207q-199 2 -326 36t-208.5 115.5t-115.5 208.5t-36 326z" />
<glyph unicode="&#x422;" horiz-adv-x="1560" d="M41 1016v418h1479v-418h-519v-1016h-442v1016h-518z" />
<glyph unicode="&#x423;" horiz-adv-x="1673" d="M23 1434h499l336 -596l336 596h496l-703 -1217q-50 -87 -102.5 -132.5t-127.5 -65t-198 -19.5h-295v418h250q49 0 86 16z" />
<glyph unicode="&#x424;" horiz-adv-x="1810" d="M66 717q0 174 38 294t118 193.5t191.5 107t270.5 38.5v84h442v-84q126 -4 222 -26t172.5 -68t125 -118t74 -177t25.5 -244t-25.5 -244t-74 -177t-125 -118t-172.5 -68t-222 -26v-84h-442v84q-159 5 -270.5 38.5t-191.5 107t-118 193.5t-38 294zM508 717q0 -103 41.5 -150 t134.5 -59v418q-93 -12 -134.5 -59t-41.5 -150zM1126 508q93 12 135 59t42 150t-42 150t-135 59v-418z" />
<glyph unicode="&#x425;" horiz-adv-x="1673" d="M8 0l539 725l-529 709h560l266 -365l262 365h549l-531 -707l541 -727h-559l-268 381l-281 -381h-549z" />
<glyph unicode="&#x426;" horiz-adv-x="1753" d="M106 0v1434h443v-1016h561v1016h442v-1016h160v-633h-426v215h-1180z" />
<glyph unicode="&#x427;" horiz-adv-x="1622" d="M66 1198v236h442v-226q1 -50 3 -82.5t8 -63t13 -48t23 -33.5t33.5 -23t48 -13t63 -8t82.5 -3h291v500h443v-1434h-443v512h-321q-144 3 -243 15.5t-178.5 44t-126.5 78.5t-78.5 126.5t-44 178.5t-15.5 243z" />
<glyph unicode="&#x428;" horiz-adv-x="2334" d="M106 0v1434h443v-1016h397v1016h443v-1016h397v1016h442v-1434h-2122z" />
<glyph unicode="&#x429;" horiz-adv-x="2428" d="M106 0v1434h443v-1016h397v1016h443v-1016h397v1016h442v-1016h160v-633h-426v215h-1856z" />
<glyph unicode="&#x42a;" horiz-adv-x="1744" d="M41 1016v418h672v-476h454q270 0 409.5 -122t139.5 -357t-139.5 -357t-409.5 -122h-897v1016h-229zM713 418h465q51 0 73.5 14.5t22.5 46.5t-22.5 47t-73.5 15h-465v-123z" />
<glyph unicode="&#x42b;" horiz-adv-x="2312" d="M106 0v1434h443v-476h504q284 0 424.5 -119t140.5 -360t-140.5 -360t-424.5 -119h-947zM549 422h536q97 0 97 57q0 58 -97 58h-536v-115zM1763 0v1434h443v-1434h-443z" />
<glyph unicode="&#x42c;" horiz-adv-x="1581" d="M106 0v1434h443v-476h455q270 0 409 -122t139 -357t-139 -357t-409 -122h-898zM549 418h465q51 0 73.5 14.5t22.5 46.5t-22.5 47t-73.5 15h-465v-123z" />
<glyph unicode="&#x42d;" horiz-adv-x="1652" d="M66 469h458q12 -46 60.5 -64t173.5 -18h100q140 0 202 33t62 106h-542v381h540q0 74 -61.5 107t-200.5 33h-100q-125 0 -173.5 -18t-60.5 -64h-458q0 250 160 376.5t458 126.5h205q199 -2 326 -36t208.5 -115.5t115.5 -208.5t36 -326v-131q-2 -199 -36 -326 t-115.5 -208.5t-208.5 -115.5t-326 -36h-205q-298 0 -458 127t-160 377z" />
<glyph unicode="&#x42e;" horiz-adv-x="2416" d="M106 0v1434h443v-502h321q14 150 56.5 250.5t125 165t202.5 92.5t296 28h103q199 -2 326 -36t208.5 -115.5t115.5 -208.5t36 -326v-131q-2 -199 -36 -326t-115.5 -208.5t-208.5 -115.5t-326 -36h-103q-351 0 -504 122t-178 427h-319v-514h-443zM1307 662q0 -90 10 -140.5 t42 -82.5t82 -42t140 -10h41q90 0 140 10t82 42t42 82.5t10 140.5v110q0 88 -10 138.5t-41.5 83t-82.5 43t-140 10.5h-41q-89 0 -140 -10.5t-82.5 -43t-41.5 -83t-10 -138.5v-110z" />
<glyph unicode="&#x42f;" horiz-adv-x="1640" d="M29 0l290 516q-129 54 -196.5 162.5t-67.5 263.5q0 242 139.5 367t409.5 125h930v-1434h-442v467h-293l-271 -467h-499zM498 950q0 -65 96 -65h498v131h-498q-96 0 -96 -66z" />
<glyph unicode="&#x430;" horiz-adv-x="1683" d="M-12 0l579 1434h549l580 -1434h-469l-92 238h-590l-92 -238h-465zM705 655h270l-135 351z" />
<glyph unicode="&#x431;" horiz-adv-x="1667" d="M106 0v1434h1455v-418h-1012v-119h516q553 0 553 -448q0 -449 -553 -449h-959zM549 418h536q97 0 97 59q0 60 -97 60h-536v-119z" />
<glyph unicode="&#x432;" horiz-adv-x="1662" d="M106 0v1434h938q272 0 412.5 -107.5t140.5 -316.5q0 -188 -112 -281q133 -103 133 -299q0 -209 -141.5 -319.5t-411.5 -110.5h-959zM549 418h536q97 0 97 59q0 60 -97 60h-536v-119zM549 897h516q96 0 96 59q0 60 -96 60h-516v-119z" />
<glyph unicode="&#x433;" horiz-adv-x="1398" d="M106 0v1434h1252v-418h-809v-1016h-443z" />
<glyph unicode="&#x434;" horiz-adv-x="1810" d="M41 -215v621h27q115 0 165 20q49 22 68 68t37 170l108 770h1164v-1016h159v-633h-426v215h-876v-215h-426zM733 418h434v598h-338l-59 -430q-14 -93 -37 -168z" />
<glyph unicode="&#x435;" horiz-adv-x="1480" d="M106 0v1434h1301v-418h-858v-101h581v-393h-581v-104h862v-418h-1305z" />
<glyph unicode="&#x436;" horiz-adv-x="2424" d="M10 1434h508l297 -504h178v504h443v-504h178l297 504h504l-428 -713l419 -721h-508l-294 512h-168v-512h-443v512h-168l-295 -512h-507l417 717z" />
<glyph unicode="&#x437;" horiz-adv-x="1622" d="M61 469h463q12 -46 60.5 -64t173.5 -18h237q103 0 103 70q0 69 -103 69h-385v381h365q102 0 102 70t-102 70h-217q-125 0 -173.5 -18t-60.5 -64h-463q0 259 169 381t507 122h168q651 0 651 -477q0 -176 -86 -262q107 -87 107 -283q0 -234 -169 -357.5t-488 -123.5h-183 q-338 0 -507 122.5t-169 381.5z" />
<glyph unicode="&#x438;" horiz-adv-x="1708" d="M106 0v1434h443v-695l602 695h451v-1434h-443v772l-670 -772h-383z" />
<glyph unicode="&#x439;" horiz-adv-x="1708" d="M106 0v1434h443v-695l602 695h451v-1434h-443v772l-670 -772h-383zM473 1866v20h213q0 -71 47 -114t123 -43t123 43t47 114h213v-20q0 -161 -101.5 -251.5t-281.5 -90.5t-281.5 90.5t-101.5 251.5z" />
<glyph unicode="&#x43a;" d="M106 0v1434h443v-504h268l297 504h504l-428 -713l420 -721h-508l-295 512h-258v-512h-443z" />
<glyph unicode="&#x43b;" horiz-adv-x="1718" d="M45 0v422q105 0 157.5 18t74 57t32.5 121l115 816h1188v-1434h-443v1016h-362l-78 -559q-35 -244 -189 -350.5t-464 -106.5h-31z" />
<glyph unicode="&#x43c;" horiz-adv-x="1785" d="M106 0v1434h463l326 -373l326 373h458v-1434h-442v805l-346 -395l-342 389v-799h-443z" />
<glyph unicode="&#x43d;" horiz-adv-x="1691" d="M106 0v1434h443v-504h594v504h442v-1434h-442v512h-594v-512h-443z" />
<glyph unicode="&#x43e;" horiz-adv-x="1716" d="M78 651v131q2 199 36 326t115.5 208.5t208.5 115.5t326 36h188q199 -2 326 -36t208.5 -115.5t115.5 -208.5t36 -326v-131q-2 -199 -36 -326t-115.5 -208.5t-208.5 -115.5t-326 -36h-188q-199 2 -326 36t-208.5 115.5t-115.5 208.5t-36 326zM520 662q0 -90 10 -140.5 t42 -82.5t82.5 -42t140.5 -10h127q90 0 140 10t82 42t42 82.5t10 140.5v110q0 88 -10 138.5t-41.5 83t-82.5 43t-140 10.5h-127q-89 0 -140 -10.5t-83 -43t-42 -83t-10 -138.5v-110z" />
<glyph unicode="&#x43f;" horiz-adv-x="1691" d="M106 0v1434h1479v-1434h-442v1016h-594v-1016h-443z" />
<glyph unicode="&#x440;" horiz-adv-x="1638" d="M106 0v1434h955q270 0 409.5 -125t139.5 -367q0 -241 -139.5 -366t-409.5 -125h-512v-451h-443zM549 868h520q98 0 98 74q0 34 -25 54t-73 20h-520v-148z" />
<glyph unicode="&#x441;" horiz-adv-x="1654" d="M78 651v131q2 199 36 326t115.5 208.5t208.5 115.5t326 36h207q298 0 458 -126.5t160 -376.5h-459q-12 46 -60 64t-173 18h-102q-89 0 -140 -10.5t-83 -43t-42 -83t-10 -138.5v-110q0 -90 10 -140.5t42 -82.5t82.5 -42t140.5 -10h102q125 0 173 18t60 64h459 q0 -250 -160 -377t-458 -127h-207q-199 2 -326 36t-208.5 115.5t-115.5 208.5t-36 326z" />
<glyph unicode="&#x442;" horiz-adv-x="1560" d="M41 1016v418h1479v-418h-519v-1016h-442v1016h-518z" />
<glyph unicode="&#x443;" horiz-adv-x="1673" d="M23 1434h499l336 -596l336 596h496l-703 -1217q-50 -87 -102.5 -132.5t-127.5 -65t-198 -19.5h-295v418h250q49 0 86 16z" />
<glyph unicode="&#x444;" horiz-adv-x="1810" d="M66 717q0 174 38 294t118 193.5t191.5 107t270.5 38.5v84h442v-84q126 -4 222 -26t172.5 -68t125 -118t74 -177t25.5 -244t-25.5 -244t-74 -177t-125 -118t-172.5 -68t-222 -26v-84h-442v84q-159 5 -270.5 38.5t-191.5 107t-118 193.5t-38 294zM508 717q0 -103 41.5 -150 t134.5 -59v418q-93 -12 -134.5 -59t-41.5 -150zM1126 508q93 12 135 59t42 150t-42 150t-135 59v-418z" />
<glyph unicode="&#x445;" horiz-adv-x="1673" d="M8 0l539 725l-529 709h560l266 -365l262 365h549l-531 -707l541 -727h-559l-268 381l-281 -381h-549z" />
<glyph unicode="&#x446;" horiz-adv-x="1753" d="M106 0v1434h443v-1016h561v1016h442v-1016h160v-633h-426v215h-1180z" />
<glyph unicode="&#x447;" horiz-adv-x="1622" d="M66 1198v236h442v-226q1 -50 3 -82.5t8 -63t13 -48t23 -33.5t33.5 -23t48 -13t63 -8t82.5 -3h291v500h443v-1434h-443v512h-321q-144 3 -243 15.5t-178.5 44t-126.5 78.5t-78.5 126.5t-44 178.5t-15.5 243z" />
<glyph unicode="&#x448;" horiz-adv-x="2334" d="M106 0v1434h443v-1016h397v1016h443v-1016h397v1016h442v-1434h-2122z" />
<glyph unicode="&#x449;" horiz-adv-x="2428" d="M106 0v1434h443v-1016h397v1016h443v-1016h397v1016h442v-1016h160v-633h-426v215h-1856z" />
<glyph unicode="&#x44a;" horiz-adv-x="1744" d="M41 1016v418h672v-476h454q270 0 409.5 -122t139.5 -357t-139.5 -357t-409.5 -122h-897v1016h-229zM713 418h465q51 0 73.5 14.5t22.5 46.5t-22.5 47t-73.5 15h-465v-123z" />
<glyph unicode="&#x44b;" horiz-adv-x="2312" d="M106 0v1434h443v-476h504q284 0 424.5 -119t140.5 -360t-140.5 -360t-424.5 -119h-947zM549 422h536q97 0 97 57q0 58 -97 58h-536v-115zM1763 0v1434h443v-1434h-443z" />
<glyph unicode="&#x44c;" horiz-adv-x="1581" d="M106 0v1434h443v-476h455q270 0 409 -122t139 -357t-139 -357t-409 -122h-898zM549 418h465q51 0 73.5 14.5t22.5 46.5t-22.5 47t-73.5 15h-465v-123z" />
<glyph unicode="&#x44d;" horiz-adv-x="1652" d="M66 469h458q12 -46 60.5 -64t173.5 -18h100q140 0 202 33t62 106h-542v381h540q0 74 -61.5 107t-200.5 33h-100q-125 0 -173.5 -18t-60.5 -64h-458q0 250 160 376.5t458 126.5h205q199 -2 326 -36t208.5 -115.5t115.5 -208.5t36 -326v-131q-2 -199 -36 -326 t-115.5 -208.5t-208.5 -115.5t-326 -36h-205q-298 0 -458 127t-160 377z" />
<glyph unicode="&#x44e;" horiz-adv-x="2416" d="M106 0v1434h443v-502h321q14 150 56.5 250.5t125 165t202.5 92.5t296 28h103q199 -2 326 -36t208.5 -115.5t115.5 -208.5t36 -326v-131q-2 -199 -36 -326t-115.5 -208.5t-208.5 -115.5t-326 -36h-103q-351 0 -504 122t-178 427h-319v-514h-443zM1307 662q0 -90 10 -140.5 t42 -82.5t82 -42t140 -10h41q90 0 140 10t82 42t42 82.5t10 140.5v110q0 88 -10 138.5t-41.5 83t-82.5 43t-140 10.5h-41q-89 0 -140 -10.5t-82.5 -43t-41.5 -83t-10 -138.5v-110z" />
<glyph unicode="&#x44f;" horiz-adv-x="1640" d="M29 0l290 516q-129 54 -196.5 162.5t-67.5 263.5q0 242 139.5 367t409.5 125h930v-1434h-442v467h-293l-271 -467h-499zM498 950q0 -65 96 -65h498v131h-498q-96 0 -96 -66z" />
<glyph unicode="&#x451;" horiz-adv-x="1480" d="M106 0v1434h1301v-418h-858v-101h581v-393h-581v-104h862v-418h-1305zM281 1712q0 97 46 143t144 46t144.5 -46t46.5 -143t-46.5 -142.5t-144.5 -45.5t-144 45.5t-46 142.5zM858 1712q0 97 46.5 143t144.5 46t144 -46t46 -143t-46 -142.5t-144 -45.5t-144.5 45.5 t-46.5 142.5z" />
<glyph unicode="&#x452;" horiz-adv-x="2037" d="M41 1016v418h1479v-418h-519v-119h455q553 0 553 -448q0 -449 -553 -449h-334v418h355q96 0 96 59q0 60 -96 60h-476v-537h-442v1016h-518z" />
<glyph unicode="&#x453;" horiz-adv-x="1398" d="M106 0v1434h1252v-418h-809v-1016h-443zM543 1536l155 311h381l-190 -311h-346z" />
<glyph unicode="&#x454;" d="M78 651v131q2 199 36 326t115.5 208.5t208.5 115.5t326 36h180q298 0 458.5 -126.5t160.5 -376.5h-459q-12 46 -60.5 64t-173.5 18h-75q-139 0 -201 -33t-62 -107h517v-381h-519q0 -73 62.5 -106t202.5 -33h75q125 0 173.5 18t60.5 64h459q0 -250 -160.5 -377 t-458.5 -127h-180q-199 2 -326 36t-208.5 115.5t-115.5 208.5t-36 326z" />
<glyph unicode="&#x455;" d="M57 469h459q12 -46 60.5 -64t173.5 -18h270q54 0 78 14t24 45q0 64 -102 64h-350q-613 0 -613 477q0 243 156 362t451 119h270q289 0 451.5 -127.5t162.5 -375.5h-458q-12 46 -60.5 64t-173.5 18h-248q-54 0 -78 -14.5t-24 -45.5q0 -33 24 -48t78 -15h361 q312 0 459 -112.5t147 -365.5q0 -245 -153.5 -363t-458.5 -118h-291q-280 0 -449 123q-166 126 -166 381z" />
<glyph unicode="&#x456;" horiz-adv-x="677" d="M117 0v1434h442v-1434h-442z" />
<glyph unicode="&#x457;" horiz-adv-x="677" d="M-139 1712q0 97 46 143t144 46t144.5 -46t46.5 -143t-46.5 -142.5t-144.5 -45.5t-144 45.5t-46 142.5zM117 0v1434h442v-1434h-442zM438 1712q0 97 46.5 143t144.5 46t144 -46t46 -143t-46 -142.5t-144 -45.5t-144.5 45.5t-46.5 142.5z" />
<glyph unicode="&#x458;" horiz-adv-x="1480" d="M37 471h459q14 -82 202 -82q148 0 196 54t48 221v352h-741v418h1183v-783q-2 -198 -36.5 -325.5t-116 -209t-206.5 -115.5t-318 -36q-331 0 -500.5 119.5t-169.5 386.5z" />
<glyph unicode="&#x459;" horiz-adv-x="2643" d="M45 0v422q105 0 157.5 18t74 57t32.5 121l115 816h1188v-476h454q270 0 409.5 -122t139.5 -357t-139.5 -357t-409.5 -122h-897v1016h-362l-78 -559q-35 -244 -189 -350.5t-464 -106.5h-31zM1612 418h465q51 0 73.5 14.5t22.5 46.5t-22.5 47t-73.5 15h-465v-123z" />
<glyph unicode="&#x45a;" horiz-adv-x="2617" d="M106 0v1434h443v-504h594v504h442v-476h455q270 0 409.5 -122t139.5 -357t-139.5 -357t-409.5 -122h-897v512h-594v-512h-443zM1585 418h465q51 0 73.5 14.5t22.5 46.5t-22.5 47t-73.5 15h-465v-123z" />
<glyph unicode="&#x45b;" horiz-adv-x="2064" d="M41 1016v418h1479v-418h-519v-119h332q107 -2 186 -9t148 -23.5t115.5 -40t85 -63t61 -87.5t38.5 -119t23 -152t9 -192v-211h-443v221q0 150 -44.5 204t-168.5 54h-342v-479h-442v1016h-518z" />
<glyph unicode="&#x45c;" d="M106 0v1434h443v-504h268l297 504h504l-428 -713l420 -721h-508l-295 512h-258v-512h-443zM616 1536l156 311h381l-190 -311h-347z" />
<glyph unicode="&#x45e;" horiz-adv-x="1673" d="M23 1434h499l336 -596l336 596h496l-703 -1217q-50 -87 -102.5 -132.5t-127.5 -65t-198 -19.5h-295v418h250q49 0 86 16zM471 1866v20h213q0 -71 47 -114t123 -43t123 43t47 114h213v-20q0 -161 -101.5 -251.5t-281.5 -90.5t-281.5 90.5t-101.5 251.5z" />
<glyph unicode="&#x45f;" horiz-adv-x="1626" d="M106 0v1434h443v-1016h528v1016h443v-1434h-494v-215h-426v215h-494z" />
<glyph unicode="&#x490;" horiz-adv-x="1509" d="M106 0v1434h916v184h442v-602h-915v-1016h-443z" />
<glyph unicode="&#x491;" horiz-adv-x="1509" d="M106 0v1434h916v184h442v-602h-915v-1016h-443z" />
<glyph unicode="&#x2000;" horiz-adv-x="950" />
<glyph unicode="&#x2001;" horiz-adv-x="1901" />
<glyph unicode="&#x2002;" horiz-adv-x="950" />
<glyph unicode="&#x2003;" horiz-adv-x="1901" />
<glyph unicode="&#x2004;" horiz-adv-x="633" />
<glyph unicode="&#x2005;" horiz-adv-x="475" />
<glyph unicode="&#x2006;" horiz-adv-x="316" />
<glyph unicode="&#x2007;" horiz-adv-x="316" />
<glyph unicode="&#x2008;" horiz-adv-x="237" />
<glyph unicode="&#x2009;" horiz-adv-x="380" />
<glyph unicode="&#x200a;" horiz-adv-x="105" />
<glyph unicode="&#x2010;" horiz-adv-x="1003" d="M66 524v418h872v-418h-872z" />
<glyph unicode="&#x2011;" horiz-adv-x="1003" d="M66 524v418h872v-418h-872z" />
<glyph unicode="&#x2012;" horiz-adv-x="1003" d="M66 524v418h872v-418h-872z" />
<glyph unicode="&#x2013;" horiz-adv-x="1650" d="M66 524v418h1519v-418h-1519z" />
<glyph unicode="&#x2014;" horiz-adv-x="2465" d="M66 524v418h2334v-418h-2334z" />
<glyph unicode="&#x2018;" horiz-adv-x="577" d="M45 979v92q2 81 9 136.5t24.5 99.5t43 70.5t68.5 44.5t96.5 25.5t131.5 10.5h12v-182q-76 0 -112.5 -17.5t-36.5 -60.5h8q127 0 185 -57.5t58 -182.5t-58 -182t-185 -57q-129 0 -186.5 59.5t-57.5 200.5z" />
<glyph unicode="&#x2019;" horiz-adv-x="577" d="M45 1219q0 125 58.5 182t185.5 57q129 0 186 -59.5t57 -200.5v-92q-2 -81 -9 -136.5t-24 -99.5t-42.5 -70.5t-68.5 -44.5t-96.5 -25.5t-131.5 -10.5h-13v182q77 0 113.5 17.5t36.5 60.5h-8q-127 0 -185.5 57.5t-58.5 182.5z" />
<glyph unicode="&#x201a;" horiz-adv-x="602" d="M57 223q0 125 58.5 182.5t185.5 57.5q129 0 186.5 -59.5t57.5 -200.5v-92q-2 -81 -9 -136.5t-24.5 -99.5t-43 -70.5t-68.5 -44.5t-96.5 -25.5t-131.5 -10.5h-12v182q76 0 112.5 17.5t36.5 60.5h-8q-127 0 -185.5 57t-58.5 182z" />
<glyph unicode="&#x201c;" horiz-adv-x="1163" d="M45 979v92q2 81 9 136.5t24.5 99.5t43 70.5t68.5 44.5t96.5 25.5t131.5 10.5h12v-182q-76 0 -112.5 -17.5t-36.5 -60.5h8q127 0 185 -57.5t58 -182.5t-58 -182t-185 -57q-129 0 -186.5 59.5t-57.5 200.5zM627 979v92q2 81 9 136.5t24 99.5t42.5 70.5t68.5 44.5t96.5 25.5 t131.5 10.5h13v-182q-77 0 -113.5 -17.5t-36.5 -60.5h8q127 0 185.5 -57.5t58.5 -182.5t-58.5 -182t-185.5 -57q-129 0 -186 59.5t-57 200.5z" />
<glyph unicode="&#x201d;" horiz-adv-x="1159" d="M45 1219q0 125 58.5 182t185.5 57q129 0 186 -59.5t57 -200.5v-92q-2 -81 -9 -136.5t-24 -99.5t-42.5 -70.5t-68.5 -44.5t-96.5 -25.5t-131.5 -10.5h-13v182q77 0 113.5 17.5t36.5 60.5h-8q-127 0 -185.5 57.5t-58.5 182.5zM627 1219q0 125 58 182t185 57 q129 0 186.5 -59.5t57.5 -200.5v-92q-2 -81 -9 -136.5t-24.5 -99.5t-43 -70.5t-68.5 -44.5t-96.5 -25.5t-131.5 -10.5h-12v182q77 0 113.5 17.5t36.5 60.5h-9q-127 0 -185 57.5t-58 182.5z" />
<glyph unicode="&#x201e;" horiz-adv-x="1183" d="M57 223q0 125 58.5 182.5t185.5 57.5q129 0 186.5 -59.5t57.5 -200.5v-92q-2 -81 -9 -136.5t-24.5 -99.5t-43 -70.5t-68.5 -44.5t-96.5 -25.5t-131.5 -10.5h-12v182q76 0 112.5 17.5t36.5 60.5h-8q-127 0 -185.5 57t-58.5 182zM639 223q0 125 58.5 182.5t185.5 57.5 q129 0 186 -59.5t57 -200.5v-92q-2 -81 -9 -136.5t-24 -99.5t-42.5 -70.5t-68.5 -44.5t-96.5 -25.5t-131.5 -10.5h-13v182q77 0 113.5 17.5t36.5 60.5h-8q-127 0 -185.5 57t-58.5 182z" />
<glyph unicode="&#x2026;" horiz-adv-x="1757" d="M57 223q0 125 58.5 182.5t185.5 57.5t185.5 -57.5t58.5 -182.5t-58.5 -182t-185.5 -57t-185.5 57t-58.5 182zM635 223q0 125 58.5 182.5t185.5 57.5t185 -57.5t58 -182.5t-58 -182t-185 -57t-185.5 57t-58.5 182zM1212 223q0 125 58.5 182.5t185.5 57.5t185.5 -57.5 t58.5 -182.5t-58.5 -182t-185.5 -57t-185.5 57t-58.5 182z" />
<glyph unicode="&#x202f;" horiz-adv-x="380" />
<glyph unicode="&#x2039;" horiz-adv-x="935" d="M0 713l608 608l271 -270l-338 -338l338 -338l-271 -271z" />
<glyph unicode="&#x203a;" horiz-adv-x="935" d="M57 375l338 338l-338 338l271 270l608 -608l-608 -609z" />
<glyph unicode="&#x205f;" horiz-adv-x="475" />
<glyph unicode="&#x20ac;" d="M10 508v184h127v62h-127v184h133q14 149 57 249t125.5 163t202.5 90.5t295 27.5h64q338 0 507 -122t169 -381h-465q-12 44 -65.5 63t-178.5 19q-119 0 -176.5 -24t-77.5 -85h418v-184h-438v-62h438v-184h-424q20 -71 76.5 -96t183.5 -25q125 0 178.5 19t65.5 63h465 q0 -259 -169 -381.5t-507 -122.5h-64q-348 0 -501.5 122t-178.5 421h-133z" />
<glyph unicode="&#x2122;" horiz-adv-x="1441" d="M41 1247v187h590v-187h-199v-381h-192v381h-199zM723 866v568h186l135 -164l136 164h184v-568h-188v289l-134 -160l-131 160v-289h-188z" />
<glyph unicode="&#x25fc;" horiz-adv-x="1433" d="M0 0v1434h1434v-1434h-1434z" />
</font>
</defs>
</svg>
