<?xml version="1.0" standalone="no"?>
<!DOCTYPE svg PUBLIC "-//W3C//DTD SVG 1.1//EN" "http://www.w3.org/Graphics/SVG/1.1/DTD/svg11.dtd" >
<svg xmlns="http://www.w3.org/2000/svg" xmlns:xlink="http://www.w3.org/1999/xlink" version="1.1">
<metadata></metadata>
<defs>
<font id="interregular" horiz-adv-x="1640" >
<font-face units-per-em="2816" ascent="2252" descent="-564" />
<missing-glyph horiz-adv-x="792" />
<glyph horiz-adv-x="0" />
<glyph horiz-adv-x="938" />
<glyph unicode=" "  horiz-adv-x="792" />
<glyph unicode="&#x09;" horiz-adv-x="792" />
<glyph unicode="&#xa0;" horiz-adv-x="792" />
<glyph unicode="!" horiz-adv-x="784" d="M528 2048l-20 -1472h-232l-20 1472h272zM392 -16q-74 0 -127 53t-53 127t53 127t127 53t127 -53t53 -127q0 -49 -24.5 -90t-65 -65.5t-90.5 -24.5z" />
<glyph unicode="&#x22;" horiz-adv-x="1136" d="M420 2048v-704h-220v704h220zM932 2048v-704h-220v704h220z" />
<glyph unicode="#" horiz-adv-x="1776" d="M980 0l336 2048h200l-336 -2048h-200zM48 568l32 200h1528l-32 -200h-1528zM260 0l336 2048h200l-336 -2048h-200zM168 1280l32 200h1528l-32 -200h-1528z" />
<glyph unicode="$" horiz-adv-x="1796" d="M816 -256v2560h164v-2560h-164zM1368 1536q-18 152 -146 236t-314 84q-136 0 -237.5 -44t-158 -121t-56.5 -175q0 -82 39.5 -140.5t101.5 -97t130 -63t125 -39.5l208 -56q80 -21 178.5 -58t189 -100.5t149.5 -162.5t59 -243q0 -166 -86.5 -300t-252 -213t-401.5 -79 q-220 0 -380.5 71t-252 198t-103.5 295h256q10 -116 78.5 -191.5t174 -112t227.5 -36.5q142 0 255 46.5t179 130t66 195.5q0 102 -57 166t-150 104t-201 70l-252 72q-240 69 -380 197t-140 335q0 172 93.5 300.5t252 200t354.5 71.5q198 0 352 -70.5t244.5 -192.5t95.5 -277 h-240z" />
<glyph unicode="%" horiz-adv-x="2288" d="M1256 384v108q0 112 46.5 205.5t136 150t217.5 56.5q130 0 218 -56.5t133 -150t45 -205.5v-108q0 -112 -45.5 -205.5t-134 -150t-216.5 -56.5q-130 0 -219 56.5t-135 150t-46 205.5zM1460 492v-108q0 -93 44 -166.5t152 -73.5q105 0 148.5 73.5t43.5 166.5v108 q0 93 -42 166.5t-150 73.5q-105 0 -150.5 -73.5t-45.5 -166.5zM236 1556v108q0 112 46.5 205.5t136 150t217.5 56.5q130 0 218 -56.5t133 -150t45 -205.5v-108q0 -112 -45.5 -205.5t-134 -150t-216.5 -56.5q-130 0 -219 56.5t-135 150t-46 205.5zM440 1664v-108 q0 -93 44 -166.5t152 -73.5q105 0 148.5 73.5t43.5 166.5v108q0 93 -42 166.5t-150 73.5q-105 0 -150.5 -73.5t-45.5 -166.5zM312 0l1408 2048h228l-1408 -2048h-228z" />
<glyph unicode="&#x26;" horiz-adv-x="1800" d="M796 -28q-202 0 -348 74t-225 203t-79 295q0 128 54.5 227.5t151 185t222.5 171.5l296 220q87 57 139.5 122t52.5 170q0 78 -68.5 151t-179.5 73q-78 0 -137.5 -39.5t-93 -100t-33.5 -124.5q0 -72 39.5 -145.5t101 -150t127.5 -156.5l940 -1148h-284l-776 936 q-108 130 -196 236t-140 209t-52 223q0 138 61.5 242.5t173 163t261.5 58.5q154 0 265 -59.5t171 -157t60 -211.5q0 -147 -73 -255t-199 -201l-408 -304q-138 -102 -187 -198t-49 -138q0 -96 50 -179t141 -134t213 -51q116 0 226 49.5t199.5 143.5t142 226t52.5 297h228 q0 -204 -47 -333t-106 -202t-95 -109q-12 -15 -22 -30t-22 -30q-99 -111 -250 -165.5t-298 -54.5z" />
<glyph unicode="'" horiz-adv-x="624" d="M420 2048v-704h-220v704h220z" />
<glyph unicode="(" horiz-adv-x="1020" d="M300 864q0 378 98.5 695.5t281.5 584.5h208q-72 -99 -134.5 -243.5t-109.5 -317t-73.5 -356.5t-26.5 -363q0 -238 46 -483t124 -455t174 -342h-208q-183 267 -281.5 584.5t-98.5 695.5z" />
<glyph unicode=")" horiz-adv-x="1020" d="M720 864q0 -378 -98.5 -695.5t-281.5 -584.5h-208q72 99 134.5 243.5t109.5 317t73.5 357t26.5 362.5q0 238 -46 483t-124 455t-174 342h208q183 -267 281.5 -584.5t98.5 -695.5z" />
<glyph unicode="*" horiz-adv-x="1408" d="M608 896l16 440l-372 -236l-96 168l392 204l-392 204l96 168l372 -236l-16 440h192l-16 -440l372 236l96 -168l-392 -204l392 -204l-96 -168l-372 236l16 -440h-192z" />
<glyph unicode="+" horiz-adv-x="1856" d="M816 140v1320h224v-1320h-224zM268 688v224h1320v-224h-1320z" />
<glyph unicode="," horiz-adv-x="788" d="M568 280l-16 -108q-17 -114 -51.5 -244t-71.5 -245t-61 -183h-180q13 64 34 169t42.5 234.5t35.5 264.5l12 112h256z" />
<glyph unicode="-" horiz-adv-x="1296" d="M1096 988v-220h-896v220h896z" />
<glyph unicode="." horiz-adv-x="776" d="M388 -16q-74 0 -127 53t-53 127t53 127t127 53t127 -53t53 -127q0 -49 -24.5 -90t-65 -65.5t-90.5 -24.5z" />
<glyph unicode="/" horiz-adv-x="1004" d="M940 2144l-660 -2452h-216l660 2452h216z" />
<glyph unicode="0" horiz-adv-x="1760" d="M880 -28q-226 0 -385 123.5t-243 359t-84 569.5q0 332 84.5 567.5t244 360t383.5 124.5t383.5 -124.5t244 -360t84.5 -567.5q0 -334 -84 -569.5t-243 -359t-385 -123.5zM880 192q224 0 348 216t124 616q0 266 -56.5 453t-162 285t-253.5 98q-222 0 -347 -218.5 t-125 -617.5q0 -266 56 -452t161.5 -283t254.5 -97z" />
<glyph unicode="1" horiz-adv-x="1308" d="M932 2048v-2048h-248v1788h-12l-500 -332v252l512 340h248z" />
<glyph unicode="2" horiz-adv-x="1704" d="M212 0v180l676 740q119 130 196 226.5t114.5 182t37.5 179.5q0 108 -51.5 187t-140.5 122t-200 43q-118 0 -205.5 -48.5t-135 -135.5t-47.5 -204h-236q0 180 83 316t226.5 212t322.5 76q180 0 319 -76t218 -205t79 -287q0 -113 -40.5 -220.5t-140 -239t-275.5 -320.5 l-460 -492v-16h952v-220h-1292z" />
<glyph unicode="3" horiz-adv-x="1792" d="M904 -28q-198 0 -352.5 68t-245 189.5t-98.5 282.5h252q8 -99 68 -170.5t157 -110.5t215 -39q132 0 234 46t160 128t58 190q0 113 -56 199.5t-164 135.5t-264 49h-164v220h164q122 0 214.5 44t145 124t52.5 188q0 104 -46 181t-129.5 120t-196.5 43q-106 0 -199.5 -38.5 t-152.5 -111t-64 -174.5h-240q6 161 97 282.5t238.5 189.5t324.5 68q190 0 326 -76.5t209 -201.5t73 -270q0 -173 -90.5 -295t-245.5 -169v-16q194 -32 303 -164.5t109 -327.5q0 -167 -90.5 -299.5t-246.5 -208.5t-355 -76z" />
<glyph unicode="4" horiz-adv-x="1808" d="M164 420v204l900 1424h148v-316h-100l-680 -1076v-16h1212v-220h-1480zM1128 0v482v95v1471h236v-2048h-236z" />
<glyph unicode="5" horiz-adv-x="1712" d="M852 -28q-176 0 -317 70t-226 192t-93 278h240q14 -139 126.5 -229.5t269.5 -90.5q126 0 224.5 59t155 162.5t56.5 234.5q0 134 -58.5 239.5t-160.5 166.5t-233 62q-94 1 -193 -28.5t-163 -75.5l-232 28l124 1008h1064v-220h-856l-72 -604h12q63 50 158 83t198 33 q188 0 335.5 -89.5t232 -244.5t84.5 -354q0 -196 -87.5 -349.5t-240.5 -242t-348 -88.5z" />
<glyph unicode="6" horiz-adv-x="1756" d="M892 -28q-126 2 -252 48t-230 155.5t-167 297t-63 471.5q0 272 51 482.5t148 355t234.5 219.5t310.5 75q172 0 306.5 -68.5t219.5 -190.5t110 -281h-244q-34 138 -132 229t-260 91q-238 0 -374.5 -207t-137.5 -581h16q56 85 133.5 145.5t171.5 93.5t199 33 q176 0 322 -87.5t234 -241t88 -351.5q0 -190 -85 -347.5t-238.5 -250t-360.5 -90.5zM892 192q126 0 226.5 63t159 169t58.5 236q0 127 -56.5 231.5t-155 166.5t-224.5 62q-95 0 -177 -37.5t-143.5 -102.5t-96.5 -148.5t-35 -175.5q0 -122 57.5 -228t158 -171t228.5 -65z" />
<glyph unicode="7" horiz-adv-x="1608" d="M276 0l916 1812v16h-1056v220h1312v-232l-912 -1816h-260z" />
<glyph unicode="8" horiz-adv-x="1736" d="M868 -28q-206 0 -363.5 73.5t-245.5 203t-87 295.5q-1 130 51 240.5t142.5 185t202.5 94.5v12q-147 38 -234 165.5t-86 290.5q-1 156 79 279t220.5 194t320.5 71q178 0 318 -71t220.5 -194t81.5 -279q-1 -163 -88.5 -290.5t-231.5 -165.5v-12q111 -20 200 -94.5t142 -185 t54 -240.5q-1 -166 -89.5 -295.5t-245 -203t-361.5 -73.5zM868 192q139 0 240 45t156 127t56 192q-1 116 -60 205t-160.5 140t-231.5 51q-131 0 -233.5 -51t-161 -140t-57.5 -205q-1 -110 53.5 -192t156.5 -127t242 -45zM868 1164q110 0 195.5 44t134.5 123t50 185 q-1 104 -49 181.5t-133 120t-198 42.5q-115 0 -201 -42.5t-133 -120t-46 -181.5q-1 -106 47.5 -185t134.5 -123t198 -44z" />
<glyph unicode="9" horiz-adv-x="1756" d="M864 2076q126 -1 252 -48t230 -155.5t167 -295.5t63 -469q0 -273 -51.5 -484.5t-148 -356.5t-234 -220t-310.5 -75q-172 0 -306.5 68.5t-220 191t-109.5 284.5h244q33 -141 131.5 -232.5t260.5 -91.5q237 0 374.5 207t137.5 585h-16q-56 -84 -133 -145t-171 -94t-200 -33 q-176 0 -322.5 87.5t-234 241t-87.5 351.5q0 188 84.5 344.5t238 249.5t361.5 90zM864 1856q-126 0 -226.5 -62.5t-159 -168t-58.5 -233.5t56.5 -232.5t155 -166t224.5 -61.5q95 0 177 37.5t143.5 103t96.5 149t35 174.5q0 120 -57.5 225t-158 170t-228.5 65z" />
<glyph unicode=":" horiz-adv-x="776" d="M388 -16q-74 0 -127 53t-53 127t53 127t127 53t127 -53t53 -127q0 -49 -24.5 -90t-65 -65.5t-90.5 -24.5zM388 1124q-74 0 -127 53t-53 127t53 127t127 53t127 -53t53 -127q0 -49 -24.5 -90t-65 -65.5t-90.5 -24.5z" />
<glyph unicode=";" horiz-adv-x="788" d="M568 280l-16 -108q-17 -114 -51.5 -244t-71.5 -245t-61 -183h-180q13 64 34 169t42.5 234.5t35.5 264.5l12 112h256zM424 1124q-74 0 -127 53t-53 127t53 127t127 53t127 -53t53 -127q0 -49 -24.5 -90t-65 -65.5t-90.5 -24.5z" />
<glyph unicode="&#x3c;" horiz-adv-x="1856" d="M284 720v160l1288 656v-256l-988 -476l8 16v-40l-8 16l988 -476v-256z" />
<glyph unicode="=" horiz-adv-x="1856" d="M312 988v216h1232v-216h-1232zM312 396v216h1232v-216h-1232z" />
<glyph unicode="&#x3e;" horiz-adv-x="1856" d="M1572 720l-1288 -656v256l988 476l-8 -16v40l8 -16l-988 476v256l1288 -656v-160z" />
<glyph unicode="?" horiz-adv-x="1428" d="M524 576v12q2 191 40 304t108 183t168 129q59 36 106 85.5t74.5 114.5t27.5 144q0 98 -46 170t-123 111t-171 39q-82 0 -158 -34t-127 -107t-59 -191h-252q8 170 88.5 291t213 185t294.5 64q176 0 306.5 -70t202 -192t71.5 -278q0 -110 -33.5 -199t-96 -159t-150.5 -124 q-88 -55 -141 -115.5t-77 -143.5t-26 -207v-12h-240zM652 -16q-74 0 -127 53t-53 127t53 127t127 53t127 -53t53 -127q0 -49 -24.5 -90t-65 -65.5t-90.5 -24.5z" />
<glyph unicode="@" horiz-adv-x="2636" d="M1396 -540q-306 0 -541 83.5t-395 245.5t-242 397t-82 538q0 293 83.5 524t243 392.5t388 246.5t517.5 85q281 0 492.5 -91.5t354 -247t214 -349.5t71.5 -400q0 -145 -14 -294t-59 -273.5t-138.5 -200.5t-252.5 -76q-70 0 -154 22t-149 73t-77 137h-12 q-24 -58 -73.5 -110t-129 -83t-193.5 -27q-130 5 -229 58.5t-165.5 146t-100 215t-33.5 264.5q0 135 40 247t111.5 196t168 134.5t208.5 62.5q100 10 182 -8.5t135 -55t67 -80.5h12v112h212v-904q0 -84 47 -148t137 -64q102 0 156.5 70t75 216t20.5 374q0 134 -36.5 264.5 t-110 244.5t-185.5 201t-262.5 136.5t-341.5 49.5q-235 0 -420.5 -72.5t-315 -211t-197 -336t-67.5 -448.5q0 -255 67.5 -453t200 -334t328.5 -206.5t452 -70.5q110 0 217 21t189 46t118 37l56 -184q-62 -26 -161.5 -52t-212 -43t-214.5 -17zM1280 256q134 0 217 54t121 163 t38 275q0 168 -42 262t-124 132t-202 38q-114 0 -194.5 -59.5t-123 -158t-42.5 -214.5q0 -128 34 -240.5t111 -182t207 -69.5z" />
<glyph unicode="A" horiz-adv-x="1904" d="M332 0h-260l752 2048h256l752 -2048h-260l-612 1724h-16zM428 800h1048v-220h-1048v220z" />
<glyph unicode="B" horiz-adv-x="1832" d="M248 0v2048h716q214 0 353 -73.5t207 -197t68 -273.5q0 -132 -46.5 -218t-122 -136t-163.5 -74v-20q94 -6 189 -66t159 -172t64 -274q0 -154 -70 -277t-221 -195t-393 -72h-740zM496 220h492q243 0 345.5 94.5t102.5 229.5q0 104 -53 192.5t-151 142t-232 53.5h-504v-712 zM496 1148h460q112 0 202.5 44t144 124t53.5 188q0 135 -94 229.5t-298 94.5h-468v-680z" />
<glyph unicode="C" horiz-adv-x="2048" d="M1896 1408h-248q-22 107 -76.5 188t-132 136.5t-171.5 83.5t-196 28q-186 0 -336.5 -94t-239 -277t-88.5 -449t88.5 -449t239 -277t336.5 -94q102 0 196 28t171.5 83.5t132 137t76.5 187.5h248q-28 -157 -102 -281t-184 -210.5t-246.5 -131.5t-291.5 -45q-262 0 -466 128 t-321 364t-117 560t117 560t321 364t466 128q155 0 291.5 -45t246.5 -131.5t184 -210t102 -281.5z" />
<glyph unicode="D" horiz-adv-x="2024" d="M880 0h-632v2048h660q298 0 510 -122.5t325 -351t113 -546.5q0 -320 -114 -550.5t-332 -354t-530 -123.5zM496 220h368q254 0 421 98t249 279t82 431q0 248 -81 427.5t-242 276t-401 96.5h-396v-1608z" />
<glyph unicode="E" horiz-adv-x="1684" d="M248 0v2048h1236v-220h-988v-692h924v-220h-924v-696h1004v-220h-1252z" />
<glyph unicode="F" horiz-adv-x="1652" d="M248 0v2048h1228v-220h-980v-692h888v-220h-888v-916h-248z" />
<glyph unicode="G" horiz-adv-x="2092" d="M1648 1408q-33 101 -86.5 181.5t-127 137.5t-166.5 87t-204 30q-182 0 -331 -94t-237 -277t-88 -449t89 -449t241 -277t342 -94q176 0 310.5 75.5t210 214t75.5 326.5l76 -16h-616v220h780v-220q0 -253 -107.5 -440t-296 -289.5t-432.5 -102.5q-272 0 -477.5 128 t-320 364t-114.5 560q0 243 65.5 437.5t185.5 331.5t284 210t361 73q162 0 302.5 -48.5t251 -137t184.5 -211t102 -271.5h-256z" />
<glyph unicode="H" horiz-adv-x="2084" d="M248 0v2048h248v-912h1092v912h248v-2048h-248v916h-1092v-916h-248z" />
<glyph unicode="I" horiz-adv-x="744" d="M496 2048v-2048h-248v2048h248z" />
<glyph unicode="J" horiz-adv-x="1528" d="M1032 2048h248v-1464q0 -196 -72 -333t-203 -208t-309 -71q-168 0 -299 61.5t-206 175.5t-75 271h244q0 -87 43.5 -151.5t119.5 -100.5t173 -36q107 0 182 45t114.5 132.5t39.5 214.5v1464z" />
<glyph unicode="K" horiz-adv-x="1836" d="M248 0v2048h248v-1016h24l920 1016h324l-860 -924l860 -1124h-300l-712 952l-256 -288v-664h-248z" />
<glyph unicode="L" horiz-adv-x="1584" d="M248 0v2048h248v-1828h952v-220h-1200z" />
<glyph unicode="M" horiz-adv-x="2504" d="M248 2048h296l696 -1700h24l696 1700h296v-2048h-232v1556h-20l-640 -1556h-224l-640 1556h-20v-1556h-232v2048z" />
<glyph unicode="N" horiz-adv-x="2120" d="M1872 2048v-2048h-240l-1116 1608h-20v-1608h-248v2048h240l1120 -1612h20v1612h244z" />
<glyph unicode="O" horiz-adv-x="2144" d="M1976 1024q0 -324 -117 -560t-321 -364t-466 -128t-466 128t-321 364t-117 560t117 560t321 364t466 128t466 -128t321 -364t117 -560zM1736 1024q0 266 -88.5 449t-239 277t-336.5 94t-336.5 -94t-239 -277t-88.5 -449t88.5 -449t239 -277t336.5 -94t336.5 94t239 277 t88.5 449z" />
<glyph unicode="P" horiz-adv-x="1788" d="M248 0v2048h692q241 0 394.5 -86.5t227.5 -233.5t74 -328t-73.5 -329t-226.5 -235.5t-392 -87.5h-496v220h488q165 0 265 57t145.5 154.5t45.5 220.5t-45.5 220t-146.5 152.5t-268 55.5h-436v-1828h-248z" />
<glyph unicode="Q" horiz-adv-x="2144" d="M992 640h272l228 -300l60 -80l340 -452h-272l-224 300l-56 76zM1976 1024q0 -324 -117 -560t-321 -364t-466 -128t-466 128t-321 364t-117 560t117 560t321 364t466 128t466 -128t321 -364t117 -560zM1736 1024q0 266 -88.5 449t-239 277t-336.5 94t-336.5 -94t-239 -277 t-88.5 -449t88.5 -449t239 -277t336.5 -94t336.5 94t239 277t88.5 449z" />
<glyph unicode="R" horiz-adv-x="1800" d="M248 0v2048h692q240 0 394 -81.5t228 -223.5t74 -323t-74 -321t-227 -219.5t-391 -79.5h-560v224h552q164 0 264.5 48t146 136.5t45.5 211.5t-46 215t-147 142.5t-267 50.5h-436v-1828h-248zM1212 920l504 -920h-288l-496 920h280z" />
<glyph unicode="S" horiz-adv-x="1796" d="M1368 1536q-18 152 -146 236t-314 84q-136 0 -237.5 -44t-158 -121t-56.5 -175q0 -82 39.5 -140.5t101.5 -97t130 -63t125 -39.5l208 -56q80 -21 178.5 -58t189 -100.5t149.5 -162.5t59 -243q0 -166 -86.5 -300t-252 -213t-401.5 -79q-220 0 -380.5 71t-252 198 t-103.5 295h256q10 -116 78.5 -191.5t174 -112t227.5 -36.5q142 0 255 46.5t179 130t66 195.5q0 102 -57 166t-150 104t-201 70l-252 72q-240 69 -380 197t-140 335q0 172 93.5 300.5t252 200t354.5 71.5q198 0 352 -70.5t244.5 -192.5t95.5 -277h-240z" />
<glyph unicode="T" horiz-adv-x="1808" d="M136 1828v220h1536v-220h-644v-1828h-248v1828h-644z" />
<glyph unicode="U" horiz-adv-x="2088" d="M1592 2048h248v-1356q0 -210 -98.5 -374.5t-277.5 -259t-420 -94.5t-420 94.5t-277.5 259t-98.5 374.5v1356h248v-1336q0 -150 66 -266.5t188.5 -183t293.5 -66.5t294 66.5t188.5 183t65.5 266.5v1336z" />
<glyph unicode="V" horiz-adv-x="1904" d="M332 2048l608 -1724h24l608 1724h260l-752 -2048h-256l-752 2048h260z" />
<glyph unicode="W" horiz-adv-x="2672" d="M620 0l-560 2048h252l428 -1668h20l436 1668h280l436 -1668h20l428 1668h252l-560 -2048h-256l-452 1632h-16l-452 -1632h-256z" />
<glyph unicode="X" horiz-adv-x="1808" d="M368 2048l528 -852h16l528 852h292l-644 -1024l644 -1024h-292l-528 836h-16l-528 -836h-292l660 1024l-660 1024h292z" />
<glyph unicode="Y" horiz-adv-x="1872" d="M72 2048h284l568 -956h24l568 956h284l-740 -1204v-844h-248v844z" />
<glyph unicode="Z" horiz-adv-x="1760" d="M180 0v180l1104 1648h-1116v220h1412v-180l-1104 -1648h1116v-220h-1412z" />
<glyph unicode="[" horiz-adv-x="1020" d="M332 -416v2560h592v-196h-368v-2168h368v-196h-592z" />
<glyph unicode="\" horiz-adv-x="1004" d="M724 -308l-660 2452h216l660 -2452h-216z" />
<glyph unicode="]" horiz-adv-x="1020" d="M688 2144v-2560h-592v196h368v2168h-368v196h592z" />
<glyph unicode="^" horiz-adv-x="1320" d="M624 1872h72v-100h-72v100zM112 1120l412 864h272l412 -864h-236l-324 692h24l-320 -692h-240z" />
<glyph unicode="_" horiz-adv-x="1272" d="M1276 0v-220h-1280v220h1280z" />
<glyph unicode="`" horiz-adv-x="1400" d="M752 1744l-312 464h276l244 -464h-208z" />
<glyph unicode="a" horiz-adv-x="1588" d="M668 -36q-146 0 -265 55.5t-189 161t-70 255.5q0 132 52 214.5t139 129.5t192.5 70.5t212.5 37.5q140 18 227.5 27.5t128 32.5t40.5 80v8q0 148 -80.5 230t-243.5 82q-169 0 -265 -74t-135 -158l-224 80q60 140 160.5 218.5t220 110t235.5 31.5q74 0 170.5 -17.5 t187 -71.5t150.5 -163t60 -292v-1012h-236v208h-12q-24 -50 -80 -107t-149 -97t-227 -40zM704 176q140 0 236.5 55t146 142t49.5 183v216q-15 -18 -65.5 -32.5t-116 -25t-127 -18t-99.5 -12.5q-92 -12 -171.5 -38.5t-128 -79t-48.5 -142.5q0 -123 91.5 -185.5t232.5 -62.5z " />
<glyph unicode="b" horiz-adv-x="1748" d="M248 0v2048h236v-756h20q26 40 72.5 102.5t134 112t237.5 49.5q194 0 342 -97t231 -275t83 -420q0 -244 -83 -422.5t-230 -276t-339 -97.5q-148 0 -237 49.5t-137 113t-74 105.5h-28v-236h-228zM480 768q0 -174 51 -306.5t149 -207t240 -74.5q148 0 247.5 78.5t150 212 t50.5 297.5q0 162 -49.5 292.5t-149 207t-249.5 76.5q-144 0 -242 -72.5t-148 -202t-50 -301.5z" />
<glyph unicode="c" horiz-adv-x="1572" d="M840 -32q-216 0 -372 102t-240 281t-84 409q0 234 86.5 413.5t242 281t363.5 101.5q162 0 292 -60t213 -168t103 -252h-236q-27 105 -119.5 186.5t-248.5 81.5q-138 0 -241.5 -71.5t-161 -201t-57.5 -303.5q0 -178 56.5 -310t160 -205t243.5 -73q92 0 167 32t127 92 t74 144h236q-20 -136 -98.5 -244.5t-207 -172t-298.5 -63.5z" />
<glyph unicode="d" horiz-adv-x="1748" d="M796 -32q-192 0 -339 97.5t-230 276t-83 422.5q0 242 83 420t231 275t342 97q150 0 237.5 -49.5t134 -112t72.5 -102.5h20v756h236v-2048h-228v236h-28q-26 -42 -74 -105.5t-137 -113t-237 -49.5zM828 180q142 0 240 74.5t149 207t51 306.5q0 172 -50 301.5t-148 202 t-242 72.5q-150 0 -249.5 -76.5t-149 -207t-49.5 -292.5q0 -164 50.5 -297.5t150 -212t247.5 -78.5z" />
<glyph unicode="e" d="M860 -32q-222 0 -382.5 98.5t-247 276t-86.5 413.5t86.5 416.5t242 282t363.5 101.5q120 0 237 -40t213 -129.5t153 -236.5t57 -362v-100h-1184v204h944q0 130 -51.5 232t-146 161t-222.5 59q-141 0 -243.5 -69.5t-157.5 -180.5t-55 -238v-136q0 -174 60.5 -294.5 t168.5 -183t251 -62.5q93 0 168.5 26.5t130.5 80t85 133.5l228 -64q-36 -116 -121 -203.5t-210 -136t-281 -48.5z" />
<glyph unicode="f" horiz-adv-x="1016" d="M900 1536v-200h-828v200h828zM320 0v1748q0 132 62 220t161 132t209 44q87 0 142 -14t82 -26l-68 -204q-18 6 -49.5 15t-82.5 9q-117 0 -168.5 -59t-51.5 -173v-1692h-236z" />
<glyph unicode="g" horiz-adv-x="1716" d="M836 -608q-171 0 -294 43.5t-204.5 114t-129.5 150.5l188 132q32 -42 81 -96.5t134.5 -95t224.5 -40.5q186 0 307 90t121 282v312h-20q-26 -42 -73.5 -103.5t-136 -109t-238.5 -47.5q-186 0 -333.5 88t-233 256t-85.5 408q0 236 83 411.5t231 272t342 96.5 q150 0 238.5 -49.5t136 -112t73.5 -102.5h24v244h228v-1580q0 -198 -89.5 -322.5t-240 -183t-334.5 -58.5zM828 236q142 0 240 65t149 187t51 292q0 166 -50 293t-148 199t-242 72q-150 0 -249.5 -76t-149 -204t-49.5 -284q0 -160 50.5 -282.5t150 -192t247.5 -69.5z" />
<glyph unicode="h" horiz-adv-x="1664" d="M452 924v-924h-236v2048h236v-752h20q54 119 162.5 189.5t289.5 70.5q157 0 275 -62.5t183.5 -191t65.5 -326.5v-976h-236v960q0 183 -94.5 283.5t-261.5 100.5q-116 0 -207.5 -49t-144 -143t-52.5 -228z" />
<glyph unicode="i" horiz-adv-x="668" d="M216 0v1536h236v-1536h-236zM336 1792q-69 0 -118.5 47t-49.5 113t49.5 113t118.5 47t118.5 -47t49.5 -113t-49.5 -113t-118.5 -47z" />
<glyph unicode="j" horiz-adv-x="668" d="M216 1536h236v-1648q0 -142 -48.5 -246t-146 -161t-245.5 -57h-24h-24v220h22h22q108 0 158 63.5t50 180.5v1648zM332 1792q-69 0 -118.5 47t-49.5 113t49.5 113t118.5 47t118.5 -47t49.5 -113t-49.5 -113t-118.5 -47z" />
<glyph unicode="k" horiz-adv-x="1532" d="M436 560l-4 292h48l672 684h292l-716 -724h-20zM216 0v2048h236v-2048h-236zM1192 0l-600 760l168 164l732 -924h-300z" />
<glyph unicode="l" horiz-adv-x="668" d="M452 2048v-2048h-236v2048h236z" />
<glyph unicode="m" horiz-adv-x="2448" d="M216 0v1536h228v-240h20q48 123 155 191.5t257 68.5q152 0 253.5 -68.5t158.5 -191.5h16q59 119 177 189.5t283 70.5q206 0 337 -128.5t131 -399.5v-1028h-236v1028q0 170 -93 243t-219 73q-162 0 -251 -97.5t-89 -246.5v-1000h-240v1052q0 131 -85 211.5t-219 80.5 q-92 0 -171.5 -49t-128 -135.5t-48.5 -199.5v-960h-236z" />
<glyph unicode="n" horiz-adv-x="1648" d="M452 924v-924h-236v1536h228v-240h20q54 117 164 188.5t284 71.5q156 0 273 -63.5t182 -192t65 -324.5v-976h-236v960q0 181 -94 282.5t-258 101.5q-113 0 -201.5 -49t-139.5 -143t-51 -228z" />
<glyph unicode="o" horiz-adv-x="1680" d="M840 -32q-208 0 -364.5 99t-244 277t-87.5 416q0 240 87.5 419t244 278t364.5 99t364.5 -99t244 -278t87.5 -419q0 -238 -87.5 -416t-244 -277t-364.5 -99zM840 180q158 0 260 81t151 213t49 286t-49 287t-151 215t-260 82t-260 -82t-151 -215t-49 -287t49 -286t151 -213 t260 -81z" />
<glyph unicode="p" horiz-adv-x="1716" d="M216 -576v2112h228v-244h28q26 40 72.5 102.5t134 112t237.5 49.5q194 0 342 -97t231 -275t83 -420q0 -244 -83 -422.5t-230 -276t-339 -97.5q-148 0 -237 49.5t-137 113t-74 105.5h-20v-812h-236zM448 768q0 -174 51 -306.5t149 -207t240 -74.5q148 0 247.5 78.5 t150 212t50.5 297.5q0 162 -49.5 292.5t-149 207t-249.5 76.5q-144 0 -242 -72.5t-148 -202t-50 -301.5z" />
<glyph unicode="q" horiz-adv-x="1716" d="M1264 -576v812h-20q-26 -42 -74 -105.5t-137 -113t-237 -49.5q-192 0 -339 97.5t-230 276t-83 422.5q0 242 83 420t231 275t342 97q150 0 237.5 -49.5t134 -112t72.5 -102.5h28v244h228v-2112h-236zM828 180q142 0 240 74.5t149 207t51 306.5q0 172 -50 301.5t-148 202 t-242 72.5q-150 0 -249.5 -76.5t-149 -207t-49.5 -292.5q0 -164 50.5 -297.5t150 -212t247.5 -78.5z" />
<glyph unicode="r" horiz-adv-x="1048" d="M216 0v1536h228v-232h16q42 114 152 185t248 71q26 0 65 -1t59 -3v-240q-12 3 -54.5 9.5t-89.5 6.5q-112 0 -199.5 -46.5t-138 -128t-50.5 -185.5v-972h-236z" />
<glyph unicode="s" horiz-adv-x="1472" d="M1304 1192l-212 -60q-20 53 -58.5 103.5t-104.5 83.5t-169 33q-141 0 -234.5 -64.5t-93.5 -163.5q0 -88 64 -139t200 -85l228 -56q206 -50 307 -152.5t101 -263.5q0 -132 -75.5 -236t-210.5 -164t-314 -60q-235 0 -389 102t-195 298l224 56q32 -124 121.5 -186t234.5 -62 q165 0 262.5 70.5t97.5 169.5q0 80 -56 134.5t-172 81.5l-256 60q-211 50 -309.5 155.5t-98.5 264.5q0 130 73.5 230t201 157t289.5 57q228 0 358.5 -100t185.5 -264z" />
<glyph unicode="t" horiz-adv-x="1024" d="M884 1536v-200h-796v200h796zM320 1904h236v-1464q0 -100 29.5 -149.5t76 -66t98.5 -16.5q39 0 64 4.5t40 7.5l48 -212q-24 -9 -67 -18.5t-109 -9.5q-100 0 -195.5 43t-158 131t-62.5 222v1528z" />
<glyph unicode="u" horiz-adv-x="1636" d="M1184 628v908h236v-1536h-236v260h-16q-54 -117 -168 -198.5t-288 -81.5q-144 0 -256 63.5t-176 192t-64 324.5v976h236v-960q0 -168 94.5 -268t241.5 -100q88 0 179.5 45t154 138t62.5 237z" />
<glyph unicode="v" horiz-adv-x="1568" d="M1472 1536l-568 -1536h-240l-568 1536h256l424 -1224h16l424 1224h256z" />
<glyph unicode="w" horiz-adv-x="2288" d="M564 0l-468 1536h248l332 -1176h16l328 1176h252l324 -1172h16l332 1172h248l-468 -1536h-232l-336 1180h-24l-336 -1180h-232z" />
<glyph unicode="x" horiz-adv-x="1520" d="M392 1536l368 -628l368 628h272l-496 -768l496 -768h-272l-368 596l-368 -596h-272l488 768l-488 768h272z" />
<glyph unicode="y" horiz-adv-x="1568" d="M368 -576q-60 0 -107 9.5t-65 18.5l60 208q86 -22 152 -16t117.5 58.5t94.5 169.5l44 120l-568 1544h256l424 -1224h16l424 1224h256l-652 -1760q-44 -119 -109 -197.5t-150.5 -116.5t-192.5 -38z" />
<glyph unicode="z" horiz-adv-x="1524" d="M172 0v180l872 1120v16h-844v220h1148v-188l-848 -1112v-16h876v-220h-1204z" />
<glyph unicode="{" horiz-adv-x="1020" d="M104 860v124q167 0 233.5 70t66.5 234v320q0 138 26.5 239t86.5 167t160 98t247 32v-196q-116 0 -182.5 -36t-94 -111.5t-27.5 -192.5v-400q0 -78 -20.5 -142t-75.5 -110t-156.5 -71t-263.5 -25zM924 -416q-147 0 -247 32t-160 98t-86.5 167t-26.5 239v320 q0 164 -66.5 234t-233.5 70v124q162 0 263.5 -25t156.5 -71t75.5 -110t20.5 -142v-400q0 -117 27.5 -192t94 -111.5t182.5 -36.5v-196zM104 744v240h236v-240h-236z" />
<glyph unicode="|" horiz-adv-x="920" d="M560 2708v-3368h-200v3368h200z" />
<glyph unicode="}" horiz-adv-x="1020" d="M916 868v-124q-167 0 -233.5 -70t-66.5 -234v-320q0 -138 -26.5 -239t-86.5 -167t-160 -98t-247 -32v196q116 0 182.5 36.5t94 111.5t27.5 192v400q0 78 20.5 142t75.5 110t156.5 71t263.5 25zM96 2144q147 0 247 -32t160 -98t86.5 -167t26.5 -239v-320q0 -164 66.5 -234 t233.5 -70v-124q-162 0 -263.5 25t-156.5 71t-75.5 110t-20.5 142v400q0 117 -27.5 192.5t-94 111.5t-182.5 36v196zM916 984v-240h-236v240h236z" />
<glyph unicode="~" horiz-adv-x="1856" d="M232 608q-3 166 54 267t148.5 147t193.5 46t186.5 -44.5t193.5 -139.5q74 -64 118.5 -90t97.5 -26q86 0 136 62.5t48 181.5h216q3 -166 -53.5 -267t-148.5 -147t-194 -46t-186 44.5t-194 139.5q-73 64 -118 90t-98 26q-81 0 -133.5 -56.5t-50.5 -187.5h-216z" />
<glyph unicode="&#xa2;" horiz-adv-x="1572" d="M744 0v2048h164v-2048h-164zM840 230q-216 0 -372 102t-240 281t-84 409q0 234 86.5 413.5t242 281t363.5 101.5q162 0 292 -60t213 -168t103 -252h-236q-27 105 -119.5 186.5t-248.5 81.5q-138 0 -241.5 -71.5t-161 -201t-57.5 -303.5q0 -178 56.5 -310t160 -205 t243.5 -73q92 0 167 32t127 92t74 144h236q-20 -136 -98.5 -244.5t-207 -172t-298.5 -63.5z" />
<glyph unicode="&#xa3;" horiz-adv-x="1776" d="M1540 0h-1356v220h1356v-220zM1108 796h-932v228h932v-228zM612 1428l32 -868q6 -126 -22.5 -232.5t-109.5 -163.5l-248 56q60 0 92 60t43 140t9 140l-28 868q-8 218 79.5 362t230 215t298.5 71q143 0 260 -51.5t197 -138.5t112 -195.5t3 -222.5l-232 64 q14 104 -31.5 176.5t-126 110t-170.5 37.5q-96 0 -185 -45.5t-146 -140t-57 -242.5z" />
<glyph unicode="&#xa5;" horiz-adv-x="1544" d="M316 2048l524 -1140l-192 -80l-608 1220h276zM704 908l524 1140h276l-608 -1220zM896 1076v-1076h-248v1076h248zM1344 1020v-180h-1144v180h1144zM1344 624v-180h-1144v180h1144z" />
<glyph unicode="&#xa8;" horiz-adv-x="1664" d="M544 1792q-63 0 -111.5 48.5t-48.5 111.5q0 69 48.5 114.5t111.5 45.5q69 0 114.5 -45.5t45.5 -114.5q0 -63 -45.5 -111.5t-114.5 -48.5zM1120 1792q-63 0 -111.5 48.5t-48.5 111.5q0 69 48.5 114.5t111.5 45.5q69 0 114.5 -45.5t45.5 -114.5q0 -63 -45.5 -111.5 t-114.5 -48.5z" />
<glyph unicode="&#xa9;" horiz-adv-x="2576" d="M704 1024q0 164 80 299t215 215t299 80q142 0 262.5 -61t199.5 -166.5t98 -238.5h-242q-20 103 -111 168.5t-207 65.5q-100 0 -182 -49t-131 -131t-49 -182t49 -182t131 -131t182 -49q116 0 196.5 65.5t101.5 168.5h242q-19 -133 -93 -238.5t-189.5 -166.5t-257.5 -61 q-164 0 -299 80t-215 215t-80 299zM1288 -32q-218 0 -409.5 82t-337 227.5t-228 336.5t-81.5 410t83.5 410t227.5 336.5t336 227.5t409 82q219 0 410.5 -82t336 -227.5t226.5 -336.5t83 -410t-81 -410t-227 -336.5t-337 -227.5t-411 -82zM1288 200q171 0 321 64t263 177 t177 262.5t63 319.5q-1 171 -65 321t-177 263t-262 177t-320 64q-170 0 -319 -64t-262 -177.5t-177.5 -263t-65.5 -320.5q-1 -169 63 -318.5t177.5 -262.5t263 -177.5t320.5 -64.5z" />
<glyph unicode="&#xab;" horiz-adv-x="1520" d="M800 220h-208l-404 600v20h228zM800 1448l-384 -620h-228v20l404 600h208zM1312 220h-208l-404 600v20h228zM1312 1448l-384 -620h-228v20l404 600h208z" />
<glyph unicode="&#xad;" horiz-adv-x="1296" d="M1096 988v-220h-896v220h896z" />
<glyph unicode="&#xae;" horiz-adv-x="1888" d="M664 916v738h374q45 0 98 -25.5t90.5 -78t37.5 -132.5q0 -81 -39 -137.5t-94.5 -85.5t-104.5 -29h-270v120h220q33 0 71.5 33t38.5 99q0 68 -38.5 92t-67.5 24h-154v-618h-162zM1110 1264l184 -348h-178l-180 348h174zM944 476q-166 0 -311 62t-255 172t-172 255t-62 311 t62 311t172 255t255 172t311 62t311 -62t255 -172t172 -255t62 -311t-62 -311t-172 -255t-255 -172t-311 -62zM944 668q168 0 306 82t220 220t82 306t-82 306t-220 220t-306 82t-306 -82t-220 -220t-82 -306t82 -306t220 -220t306 -82z" />
<glyph unicode="&#xaf;" horiz-adv-x="1264" d="M1100 2048v-200h-936v200h936z" />
<glyph unicode="&#xb4;" horiz-adv-x="1400" d="M560 1744l244 464h276l-312 -464h-208z" />
<glyph unicode="&#xb8;" horiz-adv-x="752" d="M280 8h196l-16 -80q78 -12 143 -65.5t65 -170.5q0 -129 -106.5 -210.5t-313.5 -81.5l-8 156q93 0 154.5 29.5t61.5 98.5t-51 94t-165 34z" />
<glyph unicode="&#xbb;" horiz-adv-x="1520" d="M188 220l384 620h228v-20l-404 -600h-208zM188 1448h208l404 -600v-20h-228zM700 220l384 620h228v-20l-404 -600h-208zM700 1448h208l404 -600v-20h-228z" />
<glyph unicode="&#xc4;" horiz-adv-x="1904" d="M332 0h-260l752 2048h256l752 -2048h-260l-612 1724h-16zM428 800h1048v-220h-1048v220zM664 2304q-63 0 -111.5 48.5t-48.5 111.5q0 69 48.5 114.5t111.5 45.5q69 0 114.5 -45.5t45.5 -114.5q0 -63 -45.5 -111.5t-114.5 -48.5zM1240 2304q-63 0 -111.5 48.5t-48.5 111.5 q0 69 48.5 114.5t111.5 45.5q69 0 114.5 -45.5t45.5 -114.5q0 -63 -45.5 -111.5t-114.5 -48.5z" />
<glyph unicode="&#xc6;" horiz-adv-x="2788" d="M72 0l992 2048h1524v-220h-988v-692h924v-220h-924v-696h1004v-220h-1252v1828h-148l-860 -1828h-272zM508 580v220h968v-220h-968z" />
<glyph unicode="&#xd6;" horiz-adv-x="2144" d="M1976 1024q0 -324 -117 -560t-321 -364t-466 -128t-466 128t-321 364t-117 560t117 560t321 364t466 128t466 -128t321 -364t117 -560zM1736 1024q0 266 -88.5 449t-239 277t-336.5 94t-336.5 -94t-239 -277t-88.5 -449t88.5 -449t239 -277t336.5 -94t336.5 94t239 277 t88.5 449zM784 2304q-63 0 -111.5 48.5t-48.5 111.5q0 69 48.5 114.5t111.5 45.5q69 0 114.5 -45.5t45.5 -114.5q0 -63 -45.5 -111.5t-114.5 -48.5zM1360 2304q-63 0 -111.5 48.5t-48.5 111.5q0 69 48.5 114.5t111.5 45.5q69 0 114.5 -45.5t45.5 -114.5q0 -63 -45.5 -111.5 t-114.5 -48.5z" />
<glyph unicode="&#xe4;" horiz-adv-x="1588" d="M668 -36q-146 0 -265 55.5t-189 161t-70 255.5q0 132 52 214.5t139 129.5t192.5 70.5t212.5 37.5q140 18 227.5 27.5t128 32.5t40.5 80v8q0 148 -80.5 230t-243.5 82q-169 0 -265 -74t-135 -158l-224 80q60 140 160.5 218.5t220 110t235.5 31.5q74 0 170.5 -17.5 t187 -71.5t150.5 -163t60 -292v-1012h-236v208h-12q-24 -50 -80 -107t-149 -97t-227 -40zM704 176q140 0 236.5 55t146 142t49.5 183v216q-15 -18 -65.5 -32.5t-116 -25t-127 -18t-99.5 -12.5q-92 -12 -171.5 -38.5t-128 -79t-48.5 -142.5q0 -123 91.5 -185.5t232.5 -62.5z M532 1792q-63 0 -111.5 48.5t-48.5 111.5q0 69 48.5 114.5t111.5 45.5q69 0 114.5 -45.5t45.5 -114.5q0 -63 -45.5 -111.5t-114.5 -48.5zM1108 1792q-63 0 -111.5 48.5t-48.5 111.5q0 69 48.5 114.5t111.5 45.5q69 0 114.5 -45.5t45.5 -114.5q0 -63 -45.5 -111.5 t-114.5 -48.5z" />
<glyph unicode="&#xe6;" horiz-adv-x="2604" d="M1824 -32q-255 0 -424 125.5t-208 326.5l44 764q75 174 217.5 273t346.5 99q120 0 237 -40t213 -129.5t153 -236.5t57 -362v-100h-1184v204h944q0 130 -51.5 232t-146 161t-222.5 59q-141 0 -243.5 -69.5t-157.5 -181t-55 -237.5v-136q0 -174 61 -294.5t169 -183 t250 -62.5q93 0 168.5 26.5t130.5 80t85 133.5l228 -64q-36 -116 -121 -203.5t-210 -136t-281 -48.5zM704 176q140 0 236.5 55t146 142t49.5 183v216q-15 -18 -65.5 -32.5t-116 -25t-127 -18t-99.5 -12.5q-92 -12 -171.5 -38.5t-128 -79t-48.5 -142.5q0 -123 91.5 -185.5 t232.5 -62.5zM668 -36q-146 0 -265 55.5t-189 161t-70 255.5q0 132 52.5 214.5t139 130t192.5 71t212 36.5q140 18 227.5 28t128 33t40.5 79v8q0 147 -81 229.5t-243 82.5q-168 0 -264.5 -74t-135.5 -158l-224 80q60 140 160.5 218.5t220 110t235.5 31.5q62 0 140 -11.5 t157 -45.5t144 -101t99 -178l-92 -940h-20q-30 -86 -112.5 -158t-200 -115t-251.5 -43z" />
<glyph unicode="&#xeb;" d="M860 -32q-222 0 -382.5 98.5t-247 276t-86.5 413.5t86.5 416.5t242 282t363.5 101.5q120 0 237 -40t213 -129.5t153 -236.5t57 -362v-100h-1184v204h944q0 130 -51.5 232t-146 161t-222.5 59q-141 0 -243.5 -69.5t-157.5 -180.5t-55 -238v-136q0 -174 60.5 -294.5 t168.5 -183t251 -62.5q93 0 168.5 26.5t130.5 80t85 133.5l228 -64q-36 -116 -121 -203.5t-210 -136t-281 -48.5zM536 1792q-63 0 -111.5 48.5t-48.5 111.5q0 69 48.5 114.5t111.5 45.5q69 0 114.5 -45.5t45.5 -114.5q0 -63 -45.5 -111.5t-114.5 -48.5zM1112 1792 q-63 0 -111.5 48.5t-48.5 111.5q0 69 48.5 114.5t111.5 45.5q69 0 114.5 -45.5t45.5 -114.5q0 -63 -45.5 -111.5t-114.5 -48.5z" />
<glyph unicode="&#xef;" horiz-adv-x="668" d="M216 0v1536h236v-1536h-236zM48 1792q-63 0 -111.5 48.5t-48.5 111.5q0 69 48.5 114.5t111.5 45.5q69 0 114.5 -45.5t45.5 -114.5q0 -63 -45.5 -111.5t-114.5 -48.5zM624 1792q-63 0 -111.5 48.5t-48.5 111.5q0 69 48.5 114.5t111.5 45.5q69 0 114.5 -45.5t45.5 -114.5 q0 -63 -45.5 -111.5t-114.5 -48.5z" />
<glyph unicode="&#xf6;" horiz-adv-x="1680" d="M840 -32q-208 0 -364.5 99t-244 277t-87.5 416q0 240 87.5 419t244 278t364.5 99t364.5 -99t244 -278t87.5 -419q0 -238 -87.5 -416t-244 -277t-364.5 -99zM840 180q158 0 260 81t151 213t49 286t-49 287t-151 215t-260 82t-260 -82t-151 -215t-49 -287t49 -286t151 -213 t260 -81zM552 1792q-63 0 -111.5 48.5t-48.5 111.5q0 69 48.5 114.5t111.5 45.5q69 0 114.5 -45.5t45.5 -114.5q0 -63 -45.5 -111.5t-114.5 -48.5zM1128 1792q-63 0 -111.5 48.5t-48.5 111.5q0 69 48.5 114.5t111.5 45.5q69 0 114.5 -45.5t45.5 -114.5q0 -63 -45.5 -111.5 t-114.5 -48.5z" />
<glyph unicode="&#xff;" horiz-adv-x="1568" d="M368 -576q-60 0 -107 9.5t-65 18.5l60 208q86 -22 152 -16t117.5 58.5t94.5 169.5l44 120l-568 1544h256l424 -1224h16l424 1224h256l-652 -1760q-44 -119 -109 -197.5t-150.5 -116.5t-192.5 -38zM496 1792q-63 0 -111.5 48.5t-48.5 111.5q0 69 48.5 114.5t111.5 45.5 q69 0 114.5 -45.5t45.5 -114.5q0 -63 -45.5 -111.5t-114.5 -48.5zM1072 1792q-63 0 -111.5 48.5t-48.5 111.5q0 69 48.5 114.5t111.5 45.5q69 0 114.5 -45.5t45.5 -114.5q0 -63 -45.5 -111.5t-114.5 -48.5z" />
<glyph unicode="&#x259;" d="M780 1568q222 0 382.5 -98.5t247 -276t86.5 -413.5t-86.5 -416.5t-242 -282t-363.5 -101.5q-120 0 -237 40t-213 129.5t-153 237t-57 361.5v100h1184v-204h-944q0 -130 51.5 -232t146 -161t222.5 -59q142 0 244 69.5t157 181t55 237.5v136q0 175 -60.5 295t-168.5 182.5 t-251 62.5q-92 0 -168 -26.5t-131 -80t-85 -133.5l-228 64q36 116 121 203.5t210 136t281 48.5z" />
<glyph unicode="&#x2c6;" horiz-adv-x="1280" d="M848 1720l-208 280l-208 -280h-224v16l324 416h216l324 -416v-16h-224z" />
<glyph unicode="&#x2d8;" horiz-adv-x="1264" d="M828 2048h220q0 -162 -112 -265t-304 -103q-189 0 -300.5 103t-111.5 265h220q0 -78 43.5 -137t148.5 -59t150.5 59t45.5 137z" />
<glyph unicode="&#x2da;" horiz-adv-x="880" d="M440 1708q-102 0 -184.5 45t-131 122t-48.5 173t48.5 176t131 128t184.5 48t183.5 -48t129 -128t47.5 -176t-47.5 -173t-129 -122t-183.5 -45zM440 1860q84 0 138 58t54 130q0 75 -54 135.5t-138 60.5t-138 -60.5t-54 -135.5q0 -72 54 -130t138 -58z" />
<glyph unicode="&#x2dc;" horiz-adv-x="1408" d="M396 1720l-184 8q0 153 87.5 250.5t216.5 97.5q57 0 101 -19.5t84 -44.5t82.5 -44.5t96.5 -19.5q57 0 96.5 44.5t39.5 107.5l180 -16q0 -156 -87.5 -248t-216.5 -92q-69 0 -114 19.5t-80 44.5t-74 44.5t-96 19.5t-94.5 -44.5t-37.5 -107.5z" />
<glyph unicode="&#x2dd;" horiz-adv-x="1040" d="M544 1688l308 424h264l-364 -424h-208zM132 1688l224 424h260l-296 -424h-188z" />
<glyph unicode="&#x30f;" horiz-adv-x="0" d="M-958 1744l-330 464h294l244 -464h-208zM-534 1744l-244 464h300l150 -464h-206z" />
<glyph unicode="&#x393;" horiz-adv-x="1620" d="M1484 2048v-220h-988v-1828h-248v2048h1236z" />
<glyph unicode="&#x3a0;" horiz-adv-x="2032" d="M1780 2048v-2048h-248v1828h-1032v-1828h-248v2048h1528z" />
<glyph unicode="&#x3a8;" horiz-adv-x="2192" d="M1696 2048h248v-772q0 -252 -108.5 -426t-296 -264t-423.5 -90h-40q-236 0 -423.5 90t-296 264t-108.5 426v772h248v-772q0 -185 75.5 -309.5t206.5 -187.5t298 -63h40q167 0 298 63t206.5 187.5t75.5 309.5v772zM1220 2048v-2048h-248v2048h248z" />
<glyph unicode="&#x3b3;" horiz-adv-x="1504" d="M96 1536h256l404 -1168l396 1168h256l-536 -1504v-608h-236v608z" />
<glyph unicode="&#x3c8;" horiz-adv-x="2104" d="M216 1536h236v-716q0 -230 85.5 -368t225 -199t301.5 -61q230 0 376 88.5t215 224t69 275.5q-3 92 -16.5 189t-36.5 195t-53 192.5t-66 179.5h252q30 -63 58 -146.5t50 -182t35 -206.5t13 -221q0 -159 -46.5 -304t-149.5 -259t-272.5 -179.5t-415.5 -65.5 q-264 0 -457 89.5t-298 277t-105 481.5v716zM968 1536h236v-2192h-236v2192z" />
<glyph unicode="&#x400;" horiz-adv-x="1684" d="M248 0v2048h1236v-220h-988v-692h924v-220h-924v-696h1004v-220h-1252zM764 2256l-312 464h276l244 -464h-208z" />
<glyph unicode="&#x401;" horiz-adv-x="1684" d="M248 0v2048h1236v-220h-988v-692h924v-220h-924v-696h1004v-220h-1252zM576 2304q-63 0 -111.5 48.5t-48.5 111.5q0 69 48.5 114.5t111.5 45.5q69 0 114.5 -45.5t45.5 -114.5q0 -63 -45.5 -111.5t-114.5 -48.5zM1152 2304q-63 0 -111.5 48.5t-48.5 111.5q0 69 48.5 114.5 t111.5 45.5q69 0 114.5 -45.5t45.5 -114.5q0 -63 -45.5 -111.5t-114.5 -48.5z" />
<glyph unicode="&#x402;" horiz-adv-x="2276" d="M912 908v220q123 47 257 73.5t243 26.5q224 0 385 -75.5t248 -216.5t87 -336q0 -144 -47.5 -258t-137.5 -194t-218 -122t-289 -42l-4 220q139 0 239.5 47t154.5 135t54 210q0 192 -126 302t-346 110q-125 0 -258.5 -26.5t-241.5 -73.5zM1028 2004v-2004h-248v2004h248z M1672 2048v-220h-1536v220h1536z" />
<glyph unicode="&#x403;" horiz-adv-x="1620" d="M1484 2048v-220h-988v-1828h-248v2048h1236zM760 2256l244 464h276l-312 -464h-208z" />
<glyph unicode="&#x404;" horiz-adv-x="1872" d="M956 -28q-231 0 -409 119.5t-278.5 329.5t-100.5 483v192q0 287 104.5 508t288.5 346.5t423 125.5q208 0 370 -81.5t258.5 -233t107.5 -361.5h-260q-10 138 -78 237.5t-172.5 153t-225.5 53.5q-166 0 -294.5 -95.5t-201 -264.5t-72.5 -388v-192q0 -206 69 -365t191 -249 t280 -90q128 0 238.5 53t182.5 152t83 235h260q-12 -207 -112.5 -357t-268.5 -230.5t-383 -80.5zM376 896v228h852v-228h-852z" />
<glyph unicode="&#x405;" horiz-adv-x="1796" d="M1368 1536q-18 152 -146 236t-314 84q-136 0 -237.5 -44t-158 -121t-56.5 -175q0 -82 39.5 -140.5t101.5 -97t130 -63t125 -39.5l208 -56q80 -21 178.5 -58t189 -100.5t149.5 -162.5t59 -243q0 -166 -86.5 -300t-252 -213t-401.5 -79q-220 0 -380.5 71t-252 198 t-103.5 295h256q10 -116 78.5 -191.5t174 -112t227.5 -36.5q142 0 255 46.5t179 130t66 195.5q0 102 -57 166t-150 104t-201 70l-252 72q-240 69 -380 197t-140 335q0 172 93.5 300.5t252 200t354.5 71.5q198 0 352 -70.5t244.5 -192.5t95.5 -277h-240z" />
<glyph unicode="&#x406;" horiz-adv-x="744" d="M496 2048v-2048h-248v2048h248z" />
<glyph unicode="&#x407;" horiz-adv-x="744" d="M496 2048v-2048h-248v2048h248zM84 2304q-63 0 -111.5 48.5t-48.5 111.5q0 69 48.5 114.5t111.5 45.5q69 0 114.5 -45.5t45.5 -114.5q0 -63 -45.5 -111.5t-114.5 -48.5zM660 2304q-63 0 -111.5 48.5t-48.5 111.5q0 69 48.5 114.5t111.5 45.5q69 0 114.5 -45.5 t45.5 -114.5q0 -63 -45.5 -111.5t-114.5 -48.5z" />
<glyph unicode="&#x408;" horiz-adv-x="1528" d="M1032 2048h248v-1464q0 -196 -72 -333t-203 -208t-309 -71q-168 0 -299 61.5t-206 175.5t-75 271h244q0 -87 43.5 -151.5t119.5 -100.5t173 -36q107 0 182 45t114.5 132.5t39.5 214.5v1464z" />
<glyph unicode="&#x409;" horiz-adv-x="3048" d="M56 0v228h56q83 0 144.5 35t103.5 124.5t66.5 253t33.5 419.5l36 988h996v-220h-756l-36 -816q-12 -261 -39.5 -452t-87 -315t-165.5 -184.5t-276 -60.5h-76zM1640 1188h584q220 0 371.5 -72t230 -203t78.5 -309t-78.5 -314t-230 -213t-371.5 -77h-768v2048h248v-1832 h520q140 0 237.5 56.5t148 146t50.5 189.5q0 147 -113 253.5t-323 106.5h-584v220z" />
<glyph unicode="&#x40a;" horiz-adv-x="3180" d="M248 0v2048h248v-860h1212v-220h-1212v-968h-248zM1772 1188h584q220 0 371.5 -72t230 -203t78.5 -309t-78.5 -314t-230 -213t-371.5 -77h-768v2048h248v-1832h520q140 0 237.5 56.5t148 146t50.5 189.5q0 147 -113 253.5t-323 106.5h-584v220z" />
<glyph unicode="&#x40b;" horiz-adv-x="2536" d="M1692 2048v-220h-1556v220h1556zM2248 0h-248v684q0 152 -53 238.5t-150 122t-229 35.5q-82 0 -160.5 -6.5t-153 -18.5t-146 -29t-140.5 -38v224q68 21 133 38t135.5 29t151.5 18.5t180 6.5q212 0 364.5 -61t234 -197t81.5 -362v-684zM1000 0h-248v2048h248v-2048z" />
<glyph unicode="&#x40c;" horiz-adv-x="1836" d="M248 0v2048h248v-1016h24l920 1016h324l-860 -924l860 -1124h-300l-712 952l-256 -288v-664h-248zM820 2256l244 464h276l-312 -464h-208z" />
<glyph unicode="&#x40d;" horiz-adv-x="2120" d="M248 2048h244v-1612h20l1120 1612h240v-2048h-248v1608h-20l-1116 -1608h-240v2048zM960 2256l-312 464h276l244 -464h-208z" />
<glyph unicode="&#x40e;" horiz-adv-x="1756" d="M356 -28v232h128q74 0 124.5 29t84 75t55.5 96l32 76l-708 1568h268l564 -1272l516 1272h264l-708 -1716q-42 -96 -95.5 -178t-145 -132t-247.5 -50h-132zM1068 2560h220q0 -162 -112 -265t-304 -103q-189 0 -300.5 103t-111.5 265h220q0 -78 43.5 -137t148.5 -59 t150.5 59t45.5 137z" />
<glyph unicode="&#x40f;" horiz-adv-x="2024" d="M248 0v2048h248v-1820h1032v1820h248v-2048h-1528zM1136 200v-696h-248v696h248z" />
<glyph unicode="&#x410;" horiz-adv-x="1904" d="M332 0h-260l752 2048h256l752 -2048h-260l-612 1724h-16zM428 800h1048v-220h-1048v220z" />
<glyph unicode="&#x411;" horiz-adv-x="1856" d="M248 0v2048h1236v-220h-988v-640h520q220 0 371.5 -72t230 -203t78.5 -309t-78.5 -314t-230 -213t-371.5 -77h-768zM496 216h520q140 0 237.5 56.5t148 146t50.5 189.5q0 147 -113 253.5t-323 106.5h-520v-752z" />
<glyph unicode="&#x412;" horiz-adv-x="1832" d="M248 0v2048h716q214 0 353 -73.5t207 -197t68 -273.5q0 -132 -46.5 -218t-122 -136t-163.5 -74v-20q94 -6 189 -66t159 -172t64 -274q0 -154 -70 -277t-221 -195t-393 -72h-740zM496 220h492q243 0 345.5 94.5t102.5 229.5q0 104 -53 192.5t-151 142t-232 53.5h-504v-712 zM496 1148h460q112 0 202.5 44t144 124t53.5 188q0 135 -94 229.5t-298 94.5h-468v-680z" />
<glyph unicode="&#x413;" horiz-adv-x="1620" d="M1484 2048v-220h-988v-1828h-248v2048h1236z" />
<glyph unicode="&#x414;" horiz-adv-x="2116" d="M72 -496v716h132q68 62 128.5 175.5t103 304t56.5 484.5l44 864h1216v-1828h236v-712h-236v492h-1444v-496h-236zM500 220h1016v1608h-756l-32 -644q-12 -224 -42 -405.5t-77 -321t-109 -237.5z" />
<glyph unicode="&#x415;" horiz-adv-x="1684" d="M248 0v2048h1236v-220h-988v-692h924v-220h-924v-696h1004v-220h-1252z" />
<glyph unicode="&#x416;" horiz-adv-x="2672" d="M1460 2048v-2048h-248v2048h248zM76 0l664 1068l-608 980h300l532 -908h748l532 908h300l-612 -984l664 -1064h-284l-556 908h-840l-560 -908h-280z" />
<glyph unicode="&#x417;" horiz-adv-x="1792" d="M904 -28q-198 0 -352.5 68t-245 189.5t-98.5 282.5h252q8 -99 68 -170.5t157 -110.5t215 -39q132 0 234 46t160 128t58 190q0 113 -56 199.5t-164 135.5t-264 49h-164v220h164q122 0 214.5 44t145 124t52.5 188q0 104 -46 181t-129.5 120t-196.5 43q-106 0 -199.5 -38.5 t-152.5 -111t-64 -174.5h-240q6 161 97 282.5t238.5 189.5t324.5 68q190 0 326 -76.5t209 -201.5t73 -270q0 -173 -90.5 -295t-245.5 -169v-16q194 -32 303 -164.5t109 -327.5q0 -167 -90.5 -299.5t-246.5 -208.5t-355 -76z" />
<glyph unicode="&#x418;" horiz-adv-x="2120" d="M248 2048h244v-1612h20l1120 1612h240v-2048h-248v1608h-20l-1116 -1608h-240v2048z" />
<glyph unicode="&#x419;" horiz-adv-x="2120" d="M248 2048h244v-1612h20l1120 1612h240v-2048h-248v1608h-20l-1116 -1608h-240v2048zM1256 2560h220q0 -162 -112 -265t-304 -103q-189 0 -300.5 103t-111.5 265h220q0 -78 43.5 -137t148.5 -59t150.5 59t45.5 137z" />
<glyph unicode="&#x41a;" horiz-adv-x="1820" d="M1452 0l-704 940h-252v-940h-248v2048h248v-888h108l820 888h296l-828 -900l856 -1148h-296z" />
<glyph unicode="&#x41b;" horiz-adv-x="2008" d="M72 0v228h60q128 0 199 82t102.5 265t42.5 485l36 988h1248v-2048h-248v1828h-764l-32 -816q-12 -322 -59 -548t-165 -345t-344 -119h-76z" />
<glyph unicode="&#x41c;" horiz-adv-x="2504" d="M248 2048h296l696 -1700h24l696 1700h296v-2048h-232v1556h-20l-640 -1556h-224l-640 1556h-20v-1556h-232v2048z" />
<glyph unicode="&#x41d;" horiz-adv-x="2084" d="M248 0v2048h248v-912h1092v912h248v-2048h-248v916h-1092v-916h-248z" />
<glyph unicode="&#x41e;" horiz-adv-x="2144" d="M1976 1024q0 -324 -117 -560t-321 -364t-466 -128t-466 128t-321 364t-117 560t117 560t321 364t466 128t466 -128t321 -364t117 -560zM1736 1024q0 266 -88.5 449t-239 277t-336.5 94t-336.5 -94t-239 -277t-88.5 -449t88.5 -449t239 -277t336.5 -94t336.5 94t239 277 t88.5 449z" />
<glyph unicode="&#x41f;" horiz-adv-x="2032" d="M1780 2048v-2048h-248v1828h-1032v-1828h-248v2048h1528z" />
<glyph unicode="&#x420;" horiz-adv-x="1788" d="M248 0v2048h692q241 0 394.5 -86.5t227.5 -233.5t74 -328t-73.5 -329t-226.5 -235.5t-392 -87.5h-496v220h488q165 0 265 57t145.5 154.5t45.5 220.5t-45.5 220t-146.5 152.5t-268 55.5h-436v-1828h-248z" />
<glyph unicode="&#x421;" horiz-adv-x="2048" d="M1896 1408h-248q-22 107 -76.5 188t-132 136.5t-171.5 83.5t-196 28q-186 0 -336.5 -94t-239 -277t-88.5 -449t88.5 -449t239 -277t336.5 -94q102 0 196 28t171.5 83.5t132 137t76.5 187.5h248q-28 -157 -102 -281t-184 -210.5t-246.5 -131.5t-291.5 -45q-262 0 -466 128 t-321 364t-117 560t117 560t321 364t466 128q155 0 291.5 -45t246.5 -131.5t184 -210t102 -281.5z" />
<glyph unicode="&#x422;" horiz-adv-x="1808" d="M136 1828v220h1536v-220h-644v-1828h-248v1828h-644z" />
<glyph unicode="&#x423;" horiz-adv-x="1756" d="M356 -28v232h128q74 0 124.5 29t84 75t55.5 96l32 76l-708 1568h268l564 -1272l516 1272h264l-708 -1716q-42 -96 -95.5 -178t-145 -132t-247.5 -50h-132z" />
<glyph unicode="&#x424;" horiz-adv-x="2228" d="M952 1804h324q228 0 405 -102t278 -284t101 -422t-101 -423t-278 -286t-405 -103h-324q-228 0 -405 102t-278 284t-101 422t101 423t278 286t405 103zM952 1584q-174 0 -293.5 -73t-181 -206t-61.5 -313q0 -178 61.5 -310t181 -205t293.5 -73h324q174 0 293.5 73t181 206 t61.5 313q0 178 -61.5 310t-181 205t-293.5 73h-324zM1240 2084v-2168h-248v2168h248z" />
<glyph unicode="&#x425;" horiz-adv-x="1808" d="M368 2048l528 -852h16l528 852h292l-644 -1024l644 -1024h-292l-528 836h-16l-528 -836h-292l660 1024l-660 1024h292z" />
<glyph unicode="&#x426;" horiz-adv-x="2116" d="M1988 236l-28 -720h-256v484h-144v236h428zM248 0v2048h236v-1820h1056v1820h236v-2048h-1528z" />
<glyph unicode="&#x427;" horiz-adv-x="2012" d="M268 2048h248v-684q0 -152 53 -238.5t150 -122t229 -35.5q83 0 161 6.5t152.5 18.5t146 29t140.5 38v-224q-67 -21 -132.5 -38t-136 -29t-151.5 -18.5t-180 -6.5q-212 0 -364.5 61t-234 197t-81.5 362v684zM1516 2048h248v-2048h-248v2048z" />
<glyph unicode="&#x428;" horiz-adv-x="2680" d="M248 2048h248v-1820h720v1820h248v-1820h720v1820h248v-2048h-2184v2048z" />
<glyph unicode="&#x429;" horiz-adv-x="2760" d="M2632 220l-28 -704h-244v484h-196v220h468zM248 2048h248v-1820h720v1820h248v-1820h720v1820h248v-2048h-2184v2048z" />
<glyph unicode="&#x42a;" horiz-adv-x="2288" d="M136 1828v220h604v-220h-604zM880 1188h584q220 0 371.5 -72t230 -203t78.5 -309t-78.5 -314t-230 -213t-371.5 -77h-768v2048h248v-1832h520q140 0 237.5 56.5t148 146t50.5 189.5q0 147 -113 253.5t-323 106.5h-584v220z" />
<glyph unicode="&#x42b;" horiz-adv-x="2392" d="M432 1188h584q220 0 371.5 -72t230 -203t78.5 -309t-78.5 -314t-230 -213t-371.5 -77h-768v2048h248v-1832h520q140 0 237.5 56.5t148 146t50.5 189.5q0 147 -113 253.5t-323 106.5h-584v220zM2144 2048v-2048h-248v2048h248z" />
<glyph unicode="&#x42c;" horiz-adv-x="1840" d="M432 1188h584q220 0 371.5 -72t230 -203t78.5 -309t-78.5 -314t-230 -213t-371.5 -77h-768v2048h248v-1832h520q140 0 237.5 56.5t148 146t50.5 189.5q0 147 -113 253.5t-323 106.5h-584v220z" />
<glyph unicode="&#x42d;" horiz-adv-x="1888" d="M1500 1108v-220h-844v220h844zM168 640h256q33 -216 146 -332t362 -116q176 0 294.5 99t178 262t59.5 355v228q0 212 -66.5 373.5t-191 252t-298.5 90.5q-152 0 -252 -54t-156 -155t-76 -243h-256q20 196 107.5 348.5t245 240t387.5 87.5q250 0 432 -116.5t281 -327 t99 -492.5v-236q0 -282 -98 -491.5t-275 -325t-415 -115.5q-244 0 -405.5 88.5t-249 240t-109.5 339.5z" />
<glyph unicode="&#x42e;" horiz-adv-x="2848" d="M496 2048v-2048h-248v2048h248zM943.213 1116v-220h-627.211v220h627.211zM2680 1024q0 -324 -117 -560t-321 -364t-466 -128t-466 128t-321 364t-117 560t117 560t321 364t466 128t466 -128t321 -364t117 -560zM2440 1024q0 266 -88.5 449t-239 277t-336.5 94 t-336.5 -94t-239 -277t-88.5 -449t88.5 -449t239 -277t336.5 -94t336.5 94t239 277t88.5 449z" />
<glyph unicode="&#x42f;" horiz-adv-x="1888" d="M1640 0h-248v1828h-436q-166 0 -267 -50.5t-147 -142.5t-46 -215t45.5 -211.5t146 -136.5t264.5 -48h552v-224h-560q-238 0 -391 79.5t-227 219.5t-74 321t74 323t228 223.5t394 81.5h692v-2048zM676 920h280l-496 -920h-288z" />
<glyph unicode="&#x430;" horiz-adv-x="1588" d="M668 -36q-146 0 -265 55.5t-189 161t-70 255.5q0 132 52 214.5t139 129.5t192.5 70.5t212.5 37.5q140 18 227.5 27.5t128 32.5t40.5 80v8q0 148 -80.5 230t-243.5 82q-169 0 -265 -74t-135 -158l-224 80q60 140 160.5 218.5t220 110t235.5 31.5q74 0 170.5 -17.5 t187 -71.5t150.5 -163t60 -292v-1012h-236v208h-12q-24 -50 -80 -107t-149 -97t-227 -40zM704 176q140 0 236.5 55t146 142t49.5 183v216q-15 -18 -65.5 -32.5t-116 -25t-127 -18t-99.5 -12.5q-92 -12 -171.5 -38.5t-128 -79t-48.5 -142.5q0 -123 91.5 -185.5t232.5 -62.5z " />
<glyph unicode="&#x431;" horiz-adv-x="1660" d="M1356 2112l120 -144q-70 -68 -162 -95t-208 -33t-258 -12q-160 -6 -265 -78t-162 -208t-73 -334h20q78 144 216 212t296 68q180 0 324 -84t228 -249t84 -407q0 -241 -85.5 -416t-239 -269.5t-359.5 -94.5t-361 97.5t-241 290t-86 476.5v164q0 513 174.5 778t525.5 274 q124 4 221 2t169 9t122 53zM832 180q139 0 239.5 70t154.5 197.5t54 300.5q0 168 -54.5 286t-155.5 180t-242 62q-103 0 -185 -35t-140 -103t-89.5 -166t-33.5 -224q0 -258 121 -413t331 -155z" />
<glyph unicode="&#x432;" horiz-adv-x="1580" d="M216 0v1536h628q248 0 394 -112t146 -296q0 -140 -83 -216.5t-213 -103.5q85 -12 165.5 -60t133.5 -131.5t53 -204.5q0 -118 -60 -211t-172 -147t-268 -54h-724zM440 216h500q122 0 191 58t69 158q0 119 -69 187.5t-191 68.5h-500v-472zM440 892h404q95 0 163 26.5 t104.5 76t36.5 117.5q0 97 -81 152.5t-223 55.5h-404v-428z" />
<glyph unicode="&#x433;" horiz-adv-x="1292" d="M1164 1536v-220h-712v-1316h-236v1536h948z" />
<glyph unicode="&#x434;" horiz-adv-x="1756" d="M52 -440v660h128q47 49 81 106t59.5 135.5t43.5 192t32 274.5l52 608h976v-1316h236v-660h-236v440h-1136v-440h-236zM448 220h740v1096h-520l-40 -388q-25 -241 -62 -421t-118 -287z" />
<glyph unicode="&#x435;" d="M860 -32q-222 0 -382.5 98.5t-247 276t-86.5 413.5t86.5 416.5t242 282t363.5 101.5q120 0 237 -40t213 -129.5t153 -236.5t57 -362v-100h-1184v204h944q0 130 -51.5 232t-146 161t-222.5 59q-141 0 -243.5 -69.5t-157.5 -180.5t-55 -238v-136q0 -174 60.5 -294.5 t168.5 -183t251 -62.5q93 0 168.5 26.5t130.5 80t85 133.5l228 -64q-36 -116 -121 -203.5t-210 -136t-281 -48.5z" />
<glyph unicode="&#x436;" horiz-adv-x="2328" d="M120 0l624 780l-616 756h280l512 -656h128v656h236v-656h124l512 656h280l-612 -756l620 -780h-284l-520 660h-120v-660h-236v660h-120l-524 -660h-284z" />
<glyph unicode="&#x437;" horiz-adv-x="1392" d="M120 392h252q8 -104 94.5 -158t225.5 -54q142 0 243 58.5t101 189.5q0 77 -38 134.5t-107 89.5t-163 32h-264v212h264q141 0 208.5 64t67.5 160q0 103 -73 165.5t-207 62.5q-135 0 -225 -60.5t-95 -155.5h-248q4 124 76 219.5t196 150t284 54.5q162 0 281.5 -56.5 t185 -153t65.5 -218.5q0 -130 -73 -210t-183 -114v-16q87 -6 151.5 -55.5t100.5 -129t36 -175.5q0 -140 -75 -243.5t-206 -160t-299 -56.5q-163 0 -292 53.5t-204.5 149t-79.5 221.5z" />
<glyph unicode="&#x438;" horiz-adv-x="1680" d="M452 348l740 1188h272v-1536h-236v1188l-736 -1188h-276v1536h236v-1188z" />
<glyph unicode="&#x439;" horiz-adv-x="1680" d="M452 348l740 1188h272v-1536h-236v1188l-736 -1188h-276v1536h236v-1188zM1036 2048h220q0 -162 -112 -265t-304 -103q-189 0 -300.5 103t-111.5 265h220q0 -78 43.5 -137t148.5 -59t150.5 59t45.5 137z" />
<glyph unicode="&#x43a;" horiz-adv-x="1512" d="M216 0v1536h236v-668h156l552 668h304l-620 -740l628 -796h-304l-504 648h-212v-648h-236z" />
<glyph unicode="&#x43b;" horiz-adv-x="1660" d="M80 0v220h56q69 0 115 27.5t74.5 97t44 194t22.5 317.5l28 680h1024v-1536h-236v1316h-564l-24 -548q-8 -189 -33.5 -332.5t-77 -240.5t-136.5 -146t-213 -49h-80z" />
<glyph unicode="&#x43c;" horiz-adv-x="2112" d="M1056 320l536 1216h224l-664 -1536h-192l-652 1536h220zM452 1536v-1536h-236v1536h236zM1660 0v1536h236v-1536h-236z" />
<glyph unicode="&#x43d;" d="M1244 876v-220h-848v220h848zM452 1536v-1536h-236v1536h236zM1424 1536v-1536h-236v1536h236z" />
<glyph unicode="&#x43e;" horiz-adv-x="1680" d="M840 -32q-208 0 -364.5 99t-244 277t-87.5 416q0 240 87.5 419t244 278t364.5 99t364.5 -99t244 -278t87.5 -419q0 -238 -87.5 -416t-244 -277t-364.5 -99zM840 180q158 0 260 81t151 213t49 286t-49 287t-151 215t-260 82t-260 -82t-151 -215t-49 -287t49 -286t151 -213 t260 -81z" />
<glyph unicode="&#x43f;" d="M216 0v1536h1208v-1536h-236v1316h-736v-1316h-236z" />
<glyph unicode="&#x440;" horiz-adv-x="1716" d="M216 -576v2112h228v-244h28q26 40 72.5 102.5t134 112t237.5 49.5q194 0 342 -97t231 -275t83 -420q0 -244 -83 -422.5t-230 -276t-339 -97.5q-148 0 -237 49.5t-137 113t-74 105.5h-20v-812h-236zM448 768q0 -174 51 -306.5t149 -207t240 -74.5q148 0 247.5 78.5 t150 212t50.5 297.5q0 162 -49.5 292.5t-149 207t-249.5 76.5q-144 0 -242 -72.5t-148 -202t-50 -301.5z" />
<glyph unicode="&#x441;" horiz-adv-x="1572" d="M840 -32q-216 0 -372 102t-240 281t-84 409q0 234 86.5 413.5t242 281t363.5 101.5q162 0 292 -60t213 -168t103 -252h-236q-27 105 -119.5 186.5t-248.5 81.5q-138 0 -241.5 -71.5t-161 -201t-57.5 -303.5q0 -178 56.5 -310t160 -205t243.5 -73q92 0 167 32t127 92 t74 144h236q-20 -136 -98.5 -244.5t-207 -172t-298.5 -63.5z" />
<glyph unicode="&#x442;" horiz-adv-x="1504" d="M128 1316v220h1248v-220h-504v-1316h-236v1316h-508z" />
<glyph unicode="&#x443;" horiz-adv-x="1568" d="M368 -576q-60 0 -107 9.5t-65 18.5l60 208q86 -22 152 -16t117.5 58.5t94.5 169.5l44 120l-568 1544h256l424 -1224h16l424 1224h256l-652 -1760q-44 -119 -109 -197.5t-150.5 -116.5t-192.5 -38z" />
<glyph unicode="&#x444;" horiz-adv-x="1916" d="M840 -524v2572h236v-2572h-236zM840 -32q-156 0 -284 56.5t-220 161t-142 250.5t-50 324q0 180 50 326.5t142 251.5t220 161.5t284 56.5h72v-1588h-72zM840 180h40v1164h-40q-118 0 -205 -47.5t-143.5 -129t-84 -186.5t-27.5 -221q0 -154 49 -286t151 -213t260 -81z M1076 -32h-72v1588h72q156 0 284 -56.5t220 -161.5t142 -251.5t50 -326.5q0 -178 -50 -324t-142 -250.5t-220 -161t-284 -56.5zM1076 180q119 0 205.5 46.5t143 128t84 186t27.5 219.5q0 154 -49 287t-151 215t-260 82h-40v-1164h40z" />
<glyph unicode="&#x445;" horiz-adv-x="1520" d="M392 1536l368 -628l368 628h272l-496 -768l496 -768h-272l-368 596l-368 -596h-272l488 768l-488 768h272z" />
<glyph unicode="&#x446;" horiz-adv-x="1788" d="M1424 1536v-1316h216v-716h-236v496h-1188v1536h236v-1316h736v1316h236z" />
<glyph unicode="&#x447;" horiz-adv-x="1616" d="M1400 1536v-1536h-236v1536h236zM1308 804v-220q-80 -30 -159 -52.5t-166 -35t-191 -12.5q-261 0 -418.5 141t-157.5 423v492h236v-492q0 -118 45 -194t122 -113t173 -37q150 0 271.5 27.5t244.5 72.5z" />
<glyph unicode="&#x448;" horiz-adv-x="2300" d="M216 1536h236v-1316h580v1316h236v-1316h580v1316h236v-1536h-1868v1536z" />
<glyph unicode="&#x449;" horiz-adv-x="2440" d="M2312 220l-28 -660h-244v440h-200v220h472zM216 1536h236v-1316h580v1316h236v-1316h580v1316h236v-1536h-1868v1536z" />
<glyph unicode="&#x44a;" horiz-adv-x="1844" d="M500 1536v-220h-428v220h428zM704 980h440q270 0 413 -137t143 -347q0 -138 -64 -250.5t-188 -179t-304 -66.5h-644v1536h236v-1316h408q140 0 230 74t90 190q0 122 -90 199t-230 77h-440v220z" />
<glyph unicode="&#x44b;" horiz-adv-x="2112" d="M420 980h440q270 0 413 -137t143 -347q0 -138 -64 -250.5t-188 -179t-304 -66.5h-644v1536h236v-1316h408q140 0 230 74t90 190q0 122 -90 199t-230 77h-440v220zM1660 0v1536h236v-1536h-236z" />
<glyph unicode="&#x44c;" horiz-adv-x="1560" d="M420 980h440q270 0 413 -137t143 -347q0 -138 -64 -250.5t-188 -179t-304 -66.5h-644v1536h236v-1316h408q140 0 230 74t90 190q0 122 -90 199t-230 77h-440v220z" />
<glyph unicode="&#x44d;" horiz-adv-x="1524" d="M724 1336q-80 -1 -160.5 -41t-134 -105.5t-53.5 -145.5h-232q0 100 48 192t129.5 164t186 114t216.5 42q210 0 356.5 -106t223 -280t76.5 -378v-56q0 -203 -76.5 -377.5t-223 -280.5t-356.5 -106q-168 0 -299 74.5t-206 199.5t-75 278h232q0 -87 49.5 -162.5t129 -122 t169.5 -47.5q134 1 228 84t143 208t49 252v56q0 130 -48.5 254.5t-142 206.5t-229.5 83zM1240 884v-220h-672v220h672z" />
<glyph unicode="&#x44e;" horiz-adv-x="2288" d="M952 864v-220h-812v220h812zM340 1536v-1536h-236v1536h236zM1424 -32q-208 0 -364.5 99t-244 277t-87.5 416q0 240 87.5 419t244 278t364.5 99t364.5 -99t244 -278t87.5 -419q0 -238 -87.5 -416t-244 -277t-364.5 -99zM1424 180q158 0 260 81t151 213t49 286t-49 287 t-151 215t-260 82t-260 -82t-151 -215t-49 -287t49 -286t151 -213t260 -81z" />
<glyph unicode="&#x44f;" horiz-adv-x="1580" d="M1140 0v1320h-408q-138 0 -217 -64t-79 -176q0 -110 71.5 -173t196.5 -63h496v-220h-496q-156 0 -269 55t-174 157.5t-61 243.5q0 142 64 244t183.5 157t284.5 55h632v-1536h-224zM116 0l436 764h256l-436 -764h-256z" />
<glyph unicode="&#x450;" d="M860 -32q-222 0 -382.5 98.5t-247 276t-86.5 413.5t86.5 416.5t242 282t363.5 101.5q120 0 237 -40t213 -129.5t153 -236.5t57 -362v-100h-1184v204h944q0 130 -51.5 232t-146 161t-222.5 59q-141 0 -243.5 -69.5t-157.5 -180.5t-55 -238v-136q0 -174 60.5 -294.5 t168.5 -183t251 -62.5q93 0 168.5 26.5t130.5 80t85 133.5l228 -64q-36 -116 -121 -203.5t-210 -136t-281 -48.5zM724 1744l-312 464h276l244 -464h-208z" />
<glyph unicode="&#x451;" d="M860 -32q-222 0 -382.5 98.5t-247 276t-86.5 413.5t86.5 416.5t242 282t363.5 101.5q120 0 237 -40t213 -129.5t153 -236.5t57 -362v-100h-1184v204h944q0 130 -51.5 232t-146 161t-222.5 59q-141 0 -243.5 -69.5t-157.5 -180.5t-55 -238v-136q0 -174 60.5 -294.5 t168.5 -183t251 -62.5q93 0 168.5 26.5t130.5 80t85 133.5l228 -64q-36 -116 -121 -203.5t-210 -136t-281 -48.5zM536 1792q-63 0 -111.5 48.5t-48.5 111.5q0 69 48.5 114.5t111.5 45.5q69 0 114.5 -45.5t45.5 -114.5q0 -63 -45.5 -111.5t-114.5 -48.5zM1112 1792 q-63 0 -111.5 48.5t-48.5 111.5q0 69 48.5 114.5t111.5 45.5q69 0 114.5 -45.5t45.5 -114.5q0 -63 -45.5 -111.5t-114.5 -48.5z" />
<glyph unicode="&#x452;" horiz-adv-x="1664" d="M1212 0h236v-164q0 -99 -30.5 -175.5t-85.5 -129.5t-127.5 -80t-156.5 -27q-36 0 -72.5 1.5t-63.5 10.5v200q15 -3 35 -5.5t41 -2.5q96 0 160 44t64 164v164zM452 924v-924h-236v2048h236v-752h20q54 119 162.5 189.5t289.5 70.5q157 0 275 -62.5t183.5 -191t65.5 -326.5 v-976h-236v960q0 183 -94.5 283.5t-261.5 100.5q-116 0 -207.5 -49t-144 -143t-52.5 -228zM-104 1700v184h880v-184h-880z" />
<glyph unicode="&#x453;" horiz-adv-x="1292" d="M1164 1536v-220h-712v-1316h-236v1536h948zM576 1744l244 464h276l-312 -464h-208z" />
<glyph unicode="&#x454;" horiz-adv-x="1520" d="M840 852v-220h-756v220h756zM1344 1076h-236q-27 105 -119.5 186.5t-248.5 81.5q-138 0 -241.5 -71.5t-161 -201t-57.5 -303.5q0 -178 56.5 -310t160 -205t243.5 -73q92 0 167 32t127 92t74 144h236q-20 -136 -98.5 -244.5t-207 -172t-298.5 -63.5q-214 0 -370 101.5 t-241 282t-85 416.5q0 230 86.5 408t242 279t363.5 101q162 0 292 -60t213 -168t103 -252z" />
<glyph unicode="&#x455;" horiz-adv-x="1472" d="M1304 1192l-212 -60q-20 53 -58.5 103.5t-104.5 83.5t-169 33q-141 0 -234.5 -64.5t-93.5 -163.5q0 -88 64 -139t200 -85l228 -56q206 -50 307 -152.5t101 -263.5q0 -132 -75.5 -236t-210.5 -164t-314 -60q-235 0 -389 102t-195 298l224 56q32 -124 121.5 -186t234.5 -62 q165 0 262.5 70.5t97.5 169.5q0 80 -56 134.5t-172 81.5l-256 60q-211 50 -309.5 155.5t-98.5 264.5q0 130 73.5 230t201 157t289.5 57q228 0 358.5 -100t185.5 -264z" />
<glyph unicode="&#x456;" horiz-adv-x="668" d="M216 0v1536h236v-1536h-236zM336 1792q-69 0 -118.5 47t-49.5 113t49.5 113t118.5 47t118.5 -47t49.5 -113t-49.5 -113t-118.5 -47z" />
<glyph unicode="&#x457;" horiz-adv-x="668" d="M216 0v1536h236v-1536h-236zM48 1792q-63 0 -111.5 48.5t-48.5 111.5q0 69 48.5 114.5t111.5 45.5q69 0 114.5 -45.5t45.5 -114.5q0 -63 -45.5 -111.5t-114.5 -48.5zM624 1792q-63 0 -111.5 48.5t-48.5 111.5q0 69 48.5 114.5t111.5 45.5q69 0 114.5 -45.5t45.5 -114.5 q0 -63 -45.5 -111.5t-114.5 -48.5z" />
<glyph unicode="&#x458;" horiz-adv-x="668" d="M216 1536h236v-1648q0 -142 -48.5 -246t-146 -161t-245.5 -57h-24h-24v220h22h22q108 0 158 63.5t50 180.5v1648zM332 1792q-69 0 -118.5 47t-49.5 113t49.5 113t118.5 47t118.5 -47t49.5 -113t-49.5 -113t-118.5 -47z" />
<glyph unicode="&#x459;" horiz-adv-x="2600" d="M128 0v220h56q69 0 115 27.5t74 97t43.5 194t23.5 317.5l28 680h788v-220h-560l-28 -548q-10 -189 -35.5 -332.5t-76.5 -240.5t-135.5 -146t-212.5 -49h-80zM1460 980h440q270 0 413 -137t143 -347q0 -138 -64 -250.5t-188 -179t-304 -66.5h-644v1536h236v-1316h408 q140 0 230 74t90 190q0 122 -90 199t-230 77h-440v220z" />
<glyph unicode="&#x45a;" horiz-adv-x="2532" d="M216 0v1536h236v-596h856v-220h-856v-720h-236zM1392 940h440q270 0 413 -117t143 -327q0 -138 -64 -250.5t-188 -179t-304 -66.5h-644v1536h236v-1316h408q141 0 230.5 73.5t89.5 190.5q0 123 -89.5 179.5t-230.5 56.5h-440v220z" />
<glyph unicode="&#x45b;" horiz-adv-x="1664" d="M452 924v-924h-236v2048h236v-752h20q54 119 162.5 189.5t289.5 70.5q157 0 275 -62.5t183.5 -191t65.5 -326.5v-976h-236v960q0 183 -94.5 283.5t-261.5 100.5q-116 0 -207.5 -49t-144 -143t-52.5 -228zM-104 1700v184h880v-184h-880z" />
<glyph unicode="&#x45c;" horiz-adv-x="1512" d="M216 0v1536h236v-668h156l552 668h304l-620 -740l628 -796h-304l-504 648h-212v-648h-236zM648 1744l244 464h276l-312 -464h-208z" />
<glyph unicode="&#x45d;" horiz-adv-x="1680" d="M452 348l740 1188h272v-1536h-236v1188l-736 -1188h-276v1536h236v-1188zM740 1744l-312 464h276l244 -464h-208z" />
<glyph unicode="&#x45e;" horiz-adv-x="1568" d="M368 -576q-60 0 -107 9.5t-65 18.5l60 208q86 -22 152 -16t117.5 58.5t94.5 169.5l44 120l-568 1544h256l424 -1224h16l424 1224h256l-652 -1760q-44 -119 -109 -197.5t-150.5 -116.5t-192.5 -38zM980 2048h220q0 -162 -112 -265t-304 -103q-189 0 -300.5 103t-111.5 265 h220q0 -78 43.5 -137t148.5 -59t150.5 59t45.5 137z" />
<glyph unicode="&#x45f;" d="M700 100h236v-592h-236v592zM1424 1536v-1536h-1208v1536h236v-1316h736v1316h236z" />
<glyph unicode="&#x460;" horiz-adv-x="2496" d="M248 544v1504h248v-1504q0 -174 93.5 -259t210.5 -85q141 0 232.5 85t91.5 259v1504h248v-1504q0 -174 85.5 -259t214.5 -85t228.5 85t99.5 259v1504h248v-1504q0 -192 -77.5 -319t-208 -190t-290.5 -63q-138 0 -246.5 48.5t-177.5 147.5q-75 -99 -191 -147.5t-257 -48.5 q-160 0 -284.5 63t-196 190t-71.5 319z" />
<glyph unicode="&#x461;" horiz-adv-x="2248" d="M216 480v1056h236v-1056q0 -147 82 -217.5t178 -70.5q117 0 206.5 70.5t89.5 217.5v1056h236v-1056q0 -147 78.5 -217.5t189.5 -70.5q105 0 194.5 70.5t89.5 217.5v1056h236v-1056q0 -170 -68.5 -283t-186 -169t-265.5 -56q-84 0 -157.5 21.5t-132 64t-98.5 106.5 q-66 -96 -173 -144t-239 -48q-142 0 -254 56t-177 169t-65 283z" />
<glyph unicode="&#x462;" horiz-adv-x="1840" d="M432 1188h584q220 0 371.5 -72t230 -203t78.5 -309t-78.5 -314t-230 -213t-371.5 -77h-768v2048h248v-1832h520q140 0 237.5 56.5t148 146t50.5 189.5q0 147 -113 253.5t-323 106.5h-584v220zM-48 1524v184h880v-184h-880z" />
<glyph unicode="&#x463;" d="M1008 1724v-220h-980v220h980zM500 980h440q270 0 413 -137t143 -347q0 -138 -64 -250.5t-188 -179t-304 -66.5h-644v2304h236v-2084h408q140 0 230 74t90 190q0 122 -90 199t-230 77h-440v220z" />
<glyph unicode="&#x464;" horiz-adv-x="2672" d="M1828 1152v-220h-1396v220h1396zM2520 1408h-248q-22 107 -76.5 188t-132 136.5t-171.5 83.5t-196 28q-186 0 -336.5 -94t-239 -277t-88.5 -449t88.5 -449t239 -277t336.5 -94q102 0 196 28t171.5 83.5t132 137t76.5 187.5h248q-28 -157 -102 -281t-184 -210.5 t-246.5 -131.5t-291.5 -45q-262 0 -466 128t-321 364t-117 560t117 560t321 364t466 128q155 0 291.5 -45t246.5 -131.5t184 -210t102 -281.5zM496 2048v-2048h-248v2048h248z" />
<glyph unicode="&#x465;" horiz-adv-x="2288" d="M1548 852v-220h-1208v220h1208zM1992 1076h-236q-27 105 -119.5 186.5t-248.5 81.5q-138 0 -241.5 -71.5t-161 -201t-57.5 -303.5q0 -178 56.5 -310t160 -205t243.5 -73q92 0 167 32t127 92t74 144h236q-20 -136 -98.5 -244.5t-207 -172t-298.5 -63.5q-214 0 -370 101.5 t-241 282t-85 416.5q0 230 86.5 408t242 279t363.5 101q162 0 292 -60t213 -168t103 -252zM396 1536v-1536h-236v1536h236z" />
<glyph unicode="&#x466;" horiz-adv-x="1776" d="M960 1832l-616 -1832h-292l720 2048h176zM1436 0l-608 1844l16 204h176l708 -2048h-292zM1372 832v-236h-972v236h972zM1020 760v-760h-276v760h276z" />
<glyph unicode="&#x467;" horiz-adv-x="1520" d="M728 1040l-412 -1040h-280l604 1488h208zM1204 0l-420 1040l-116 448h208l608 -1488h-280zM1180 616v-220h-824v220h824zM900 564v-564h-272v564h272z" />
<glyph unicode="&#x468;" horiz-adv-x="2544" d="M1092 832v-232h-756v232h756zM412 2048v-2048h-248v2048h248zM1580 1832l-616 -1832h-292l720 2048h176zM2056 0l-608 1844l16 204h176l708 -2048h-292zM1992 832v-236h-972v236h972zM1640 760v-760h-276v760h276z" />
<glyph unicode="&#x469;" horiz-adv-x="2128" d="M1758 0l-420 1088l-122 448h208l608 -1536h-274zM192 0v1536h236v-1536h-236zM324 396v220h644v-220h-644zM1186 0v564h236v-564h-236zM584 0l604 1536h208l-128 -448l-412 -1088h-272zM904 396v220h824v-220h-824z" />
<glyph unicode="&#x46a;" horiz-adv-x="2288" d="M416 0h-284v508q0 336 179 476t497 140h672q159 0 285 -33.5t214 -106.5t134.5 -190.5t46.5 -285.5v-508h-288v508q0 225 -97 304.5t-295 79.5h-672q-130 0 -217 -33.5t-131 -117t-44 -233.5v-508zM1704 2048v-232h-1080v232h1080zM1056 936l638 1112h324l-730 -1220 h-180zM618 2048l646 -1124l-60 -96h-176l-734 1220h324zM1292 1080v-1080h-284v1080h284z" />
<glyph unicode="&#x46b;" horiz-adv-x="2032" d="M452 0h-276v220q0 336 164.5 474t455.5 138h444q192 0 330 -59.5t212 -194t74 -358.5v-220h-276v220q0 231 -84.5 311.5t-255.5 80.5h-444q-174 0 -259 -80.5t-85 -311.5v-220zM1520 1536v-220h-940v220h940zM940 676l466 860h310l-568 -964h-164zM642 1536l474 -868 l-48 -96h-164l-572 964h310zM1160 800v-800h-276v800h276z" />
<glyph unicode="&#x46c;" horiz-adv-x="3312" d="M1784 1124v-220h-1300v220h1300zM512 2048v-2048h-248v2048h248zM1212 0h-284v508q0 336 179 476t497 140h672q159 0 285 -33.5t214 -106.5t134.5 -190.5t46.5 -285.5v-508h-288v508q0 225 -97 304.5t-295 79.5h-672q-130 0 -217 -33.5t-131 -117t-44 -233.5v-508z M2500 2048v-232h-1080v232h1080zM1852 936l638 1112h324l-730 -1220h-180zM1414 2048l646 -1124l-60 -96h-176l-734 1220h324zM2088 1080v-1080h-284v1080h284z" />
<glyph unicode="&#x46d;" horiz-adv-x="2800" d="M1748 832v-220h-1396v220h1396zM436 1536v-1536h-236v1536h236zM1132 0h-276v220q0 336 164.5 474t455.5 138h444q288 0 452 -138t164 -474v-220h-276v220q0 231 -84.5 311.5t-255.5 80.5h-444q-174 0 -259 -80.5t-85 -311.5v-220zM2200 1536v-220h-940v220h940z M1620 676l466 860h310l-568 -964h-164zM1322 1536l474 -868l-48 -96h-164l-572 964h310zM1840 800v-800h-276v800h276z" />
<glyph unicode="&#x46e;" horiz-adv-x="1520" d="M248 2048h416q190 0 338 -65.5t233 -184t85 -278.5q0 -158 -85 -277t-238 -185t-357 -66h-200v168h196q219 0 313.5 98t94.5 242q0 150 -92.5 239t-287.5 89h-416v220zM440 1100h200q336 0 524 -136.5t188 -403.5q0 -186 -85 -317.5t-233 -201t-338 -69.5h-68 q-105 0 -150.5 -43.5t-45.5 -112.5q0 -72 38.5 -121.5t90 -81t91.5 -49.5l-112 -180q-88 38 -172.5 99.5t-140 150t-55.5 208.5q0 177 127.5 263.5t340.5 86.5h56q120 0 205 46t130 130t45 198q0 183 -113.5 278.5t-326.5 95.5h-196v160zM584 2624l240 -240l244 240h192v-16 l-368 -376h-136l-364 376v16h192z" />
<glyph unicode="&#x46f;" horiz-adv-x="1304" d="M96 1536h416q177 0 312 -51.5t211.5 -142.5t76.5 -210q0 -122 -77.5 -213t-218 -141t-328.5 -50h-200v164h196q164 0 258 60t94 166q0 97 -83 147.5t-241 50.5h-416v220zM288 836h200q317 0 486.5 -93.5t169.5 -300.5q0 -133 -73 -239.5t-206.5 -168.5t-316.5 -62h-68 q-200 0 -200 -152q0 -157 220 -256l-112 -180q-170 75 -268 194t-100 254q0 176 119.5 268t348.5 92h60q149 0 234.5 61t85.5 177q0 117 -95 179.5t-289 62.5h-196v164zM332 2114l240 -240l244 240h192v-16l-368 -376h-136l-364 376v16h192z" />
<glyph unicode="&#x470;" horiz-adv-x="2192" d="M1696 2048h248v-772q0 -252 -108.5 -426t-296 -264t-423.5 -90h-40q-236 0 -423.5 90t-296 264t-108.5 426v772h248v-772q0 -185 75.5 -309.5t206.5 -187.5t298 -63h40q167 0 298 63t206.5 187.5t75.5 309.5v772zM1220 2048v-2048h-248v2048h248z" />
<glyph unicode="&#x471;" horiz-adv-x="2104" d="M216 1536h236v-716q0 -230 85.5 -368t225 -199t301.5 -61q230 0 376 88.5t215 224t69 275.5q-3 92 -16.5 189t-36.5 195t-53 192.5t-66 179.5h252q30 -63 58 -146.5t50 -182t35 -206.5t13 -221q0 -159 -46.5 -304t-149.5 -259t-272.5 -179.5t-415.5 -65.5 q-264 0 -457 89.5t-298 277t-105 481.5v716zM968 1536h236v-2192h-236v2192z" />
<glyph unicode="&#x472;" horiz-adv-x="2144" d="M1976 1024q0 -324 -117 -560t-321 -364t-466 -128t-466 128t-321 364t-117 560t117 560t321 364t466 128t466 -128t321 -364t117 -560zM1736 1024q0 266 -88.5 449t-239 277t-336.5 94t-336.5 -94t-239 -277t-88.5 -449t88.5 -449t239 -277t336.5 -94t336.5 94t239 277 t88.5 449zM1776 1134v-220h-1408v220h1408z" />
<glyph unicode="&#x473;" horiz-adv-x="1680" d="M1378 870v-204h-1076v204h1076zM840 -32q-208 0 -364.5 99t-244 277t-87.5 416q0 240 87.5 419t244 278t364.5 99t364.5 -99t244 -278t87.5 -419q0 -238 -87.5 -416t-244 -277t-364.5 -99zM840 180q158 0 260 81t151 213t49 286t-49 287t-151 215t-260 82t-260 -82 t-151 -215t-49 -287t49 -286t151 -213t260 -81z" />
<glyph unicode="&#x474;" horiz-adv-x="1972" d="M1438 1668q68 194 150.5 301t241.5 107h68v-228h-32q-84 0 -115 -53.5t-69 -154.5l-602 -1640h-256l-752 2048h260l608 -1724h24z" />
<glyph unicode="&#x475;" horiz-adv-x="1700" d="M96 1536h256l424 -1224h16l312 900q40 124 94.5 199.5t118.5 110t131 34.5q46 0 86.5 -8.5t69.5 -19.5l-36 -216q-9 3 -31 9.5t-57 6.5q-43 0 -76 -32.5t-56 -95.5l-444 -1200h-240z" />
<glyph unicode="&#x476;" horiz-adv-x="1972" d="M1438 1668q68 194 150.5 301t241.5 107h68v-228h-32q-84 0 -115 -53.5t-69 -154.5l-602 -1640h-256l-752 2048h260l608 -1724h24zM674 2256l-330 464h294l244 -464h-208zM1098 2256l-244 464h300l150 -464h-206z" />
<glyph unicode="&#x477;" horiz-adv-x="1700" d="M96 1536h256l424 -1224h16l312 900q40 124 94.5 199.5t118.5 110t131 34.5q46 0 86.5 -8.5t69.5 -19.5l-36 -216q-9 3 -31 9.5t-57 6.5q-43 0 -76 -32.5t-56 -95.5l-444 -1200h-240zM538 1744l-330 464h294l244 -464h-208zM962 1744l-244 464h300l150 -464h-206z" />
<glyph unicode="&#x478;" horiz-adv-x="3712" d="M1976 1024q0 -324 -117 -560t-321 -364t-466 -128t-466 128t-321 364t-117 560t117 560t321 364t466 128t466 -128t321 -364t117 -560zM1736 1024q0 266 -88.5 449t-239 277t-336.5 94t-336.5 -94t-239 -277t-88.5 -449t88.5 -449t239 -277t336.5 -94t336.5 94t239 277 t88.5 449zM2512 -576q-60 0 -107 9.5t-65 18.5l60 208q86 -22 152 -16t117.5 58.5t94.5 169.5l44 120l-568 1544h256l424 -1224h16l424 1224h256l-652 -1760q-44 -119 -109 -197.5t-150.5 -116.5t-192.5 -38z" />
<glyph unicode="&#x479;" horiz-adv-x="3192" d="M840 -32q-208 0 -364.5 99t-244 277t-87.5 416q0 240 87.5 419t244 278t364.5 99t364.5 -99t244 -278t87.5 -419q0 -238 -87.5 -416t-244 -277t-364.5 -99zM840 180q158 0 260 81t151 213t49 286t-49 287t-151 215t-260 82t-260 -82t-151 -215t-49 -287t49 -286t151 -213 t260 -81zM1992 -576q-60 0 -107 9.5t-65 18.5l60 208q86 -22 152 -16t117.5 58.5t94.5 169.5l44 120l-568 1544h256l424 -1224h16l424 1224h256l-652 -1760q-44 -119 -109 -197.5t-150.5 -116.5t-192.5 -38z" />
<glyph unicode="&#x47a;" horiz-adv-x="2144" d="M1188 440v-684h-232v684h232zM1188 2296v-684h-232v684h232zM1976 1024q0 -324 -117 -560t-321 -364t-466 -128t-466 128t-321 364t-117 560t117 560t321 364t466 128t466 -128t321 -364t117 -560zM1736 1024q0 266 -88.5 449t-239 277t-336.5 94t-336.5 -94t-239 -277 t-88.5 -449t88.5 -449t239 -277t336.5 -94t336.5 94t239 277t88.5 449z" />
<glyph unicode="&#x47b;" horiz-adv-x="1776" d="M932 1656v-512h-276v512h276zM932 352v-512h-276v512h276zM824 -32q-208 0 -364.5 99t-244 277t-87.5 416q0 240 87.5 419t244 278t364.5 99t364.5 -99t244 -278t87.5 -419q0 -238 -87.5 -416t-244 -277t-364.5 -99zM824 180q158 0 260 81t151 213t49 286t-49 287 t-151 215t-260 82t-260 -82t-151 -215t-49 -287t49 -286t151 -213t260 -81z" />
<glyph unicode="&#x47c;" horiz-adv-x="2544" d="M1824 2420h56v-184h-60q-120 0 -215.5 25t-172 57t-141 57t-123.5 25q-63 0 -103.5 -32.5t-40.5 -107.5v-24h-188v48q0 156 87.5 228t240.5 72q81 0 153.5 -25t148 -57t162.5 -57t196 -25zM1224 1820l-112 76q45 57 70.5 107t25.5 101v132h232v-140q0 -54 -35 -108.5 t-85 -99t-96 -68.5zM804 2004v-232q-117 0 -194.5 -95.5t-77.5 -296.5v-784q0 -201 77.5 -298.5t194.5 -97.5q144 0 236 85t92 259v580h228v-580q0 -192 -72.5 -319t-198 -190t-285.5 -63t-286.5 68.5t-200 207t-73.5 348.5v784q0 208 73.5 346.5t200 208t286.5 69.5z M1740 1772v232q162 0 288.5 -69.5t199 -208t72.5 -346.5v-784q0 -210 -72.5 -348.5t-199 -207t-288.5 -68.5q-160 0 -284.5 63t-196 190t-71.5 319v580h228v-580q0 -174 91.5 -259t232.5 -85q120 0 198 97.5t78 298.5v784q0 201 -78 296.5t-198 95.5z" />
<glyph unicode="&#x47d;" horiz-adv-x="2032" d="M1428 1284v220q142 0 254 -62.5t177 -188t65 -313.5v-404q0 -190 -65 -315t-177 -187t-254 -62t-253 56t-175 169t-64 283v320h220v-320q0 -147 77.5 -217.5t194.5 -70.5q96 0 172 83.5t76 260.5v404q0 174 -76 259t-172 85zM604 1504v-220q-96 0 -170 -85t-74 -259v-404 q0 -177 74 -260.5t170 -83.5q117 0 196.5 70.5t79.5 217.5v320h220v-320q0 -170 -64 -283t-176 -169t-256 -56q-142 0 -253 62t-175 187t-64 315v404q0 188 64 313.5t175 188t253 62.5zM1012 1316l-112 76q45 57 68.5 107t23.5 101v132h232v-140q0 -54 -34 -108.5t-83 -99 t-95 -68.5zM1608 1928h60v-184h-64q-120 0 -214.5 25t-171.5 57t-141.5 57t-124.5 25q-63 0 -103.5 -32.5t-40.5 -107.5v-24h-188v52q0 153 87.5 224.5t240.5 71.5q81 0 153 -25t147 -57t162 -57t198 -25z" />
<glyph unicode="&#x47e;" horiz-adv-x="2496" d="M1124 2352h-432v156h1132l4 -156h-456v-176h-248v176zM1124 2048h232v-1504q0 -192 -72.5 -319t-198 -190t-285.5 -63t-284.5 63t-196 190t-71.5 319v1504h248v-1504q0 -174 93.5 -259t210.5 -85q141 0 232.5 85t91.5 259v1504zM2004 2048h244v-1504q0 -192 -77.5 -319 t-208 -190t-290.5 -63q-156 0 -275 63t-186 190t-67 319v1504h228v-1504q0 -174 85.5 -259t214.5 -85t230.5 85t101.5 259v1504z" />
<glyph unicode="&#x47f;" horiz-adv-x="2032" d="M940 1848h-428v156h1132l4 -156h-456v-172h-252v172zM864 1488h220v-1008q0 -170 -65 -283t-177 -169t-254 -56t-254 56t-177 169t-65 283v1008h276v-1008q0 -147 62 -217.5t158 -70.5q117 0 196.5 70.5t79.5 217.5v1008zM1632 1488h276v-1008q0 -170 -68.5 -283 t-186 -169t-265.5 -56q-204 0 -336 126.5t-132 381.5v1008h220v-1008q0 -147 68.5 -217.5t179.5 -70.5q105 0 174.5 70.5t69.5 217.5v1008z" />
<glyph unicode="&#x480;" horiz-adv-x="1776" d="M900 200v-228q-224 0 -397.5 108.5t-272 300t-98.5 439.5v408q0 255 97.5 445.5t274 296.5t412.5 106q216 0 380 -85t256 -236.5t92 -350.5h-284q0 133 -55.5 232t-156.5 153.5t-236 54.5q-153 0 -264.5 -74.5t-171.5 -212.5t-60 -329v-408q0 -183 61.5 -323 t170.5 -218.5t252 -78.5zM1068 200v-728h-284v728h284z" />
<glyph unicode="&#x481;" horiz-adv-x="1520" d="M796 192v-220q-210 0 -355.5 103.5t-221 273t-75.5 367.5v56q0 218 76.5 396t222 283t353.5 105q170 0 302 -74t207 -205t75 -301h-260q0 106 -43 187t-118 127t-171 46q-130 0 -211 -80t-119 -209t-38 -275v-56q0 -126 37.5 -246.5t120 -199t218.5 -78.5zM944 192v-720 h-276v720h276z" />
<glyph unicode="&#x482;" horiz-adv-x="1776" d="M1120 1112l-284 -496l400 -236l-100 -176l-400 236l-248 -440h-240l308 548l-396 236l96 176l404 -236l276 496l-396 232l100 180l400 -236l252 448h236l-312 -556l404 -236l-104 -172z" />
<glyph unicode="&#x483;" horiz-adv-x="0" d="M-296 1804h-748v-172h-244v328h752v148h240v-304z" />
<glyph unicode="&#x484;" horiz-adv-x="0" d="M-1260 1976h60q111 0 198 25t162 57t147 57t153 25q153 0 240.5 -73t87.5 -223v-52h-188v24q0 72 -40.5 106t-103.5 34q-60 0 -124.5 -25t-141.5 -57t-171.5 -57t-214.5 -25h-64v184z" />
<glyph unicode="&#x485;" horiz-adv-x="0" d="M-692 1788l-228 276v168h260l-4 -192l84 -160z" />
<glyph unicode="&#x486;" horiz-adv-x="0" d="M-492 2064l-228 -276l-112 92l80 160l-4 192h264v-168z" />
<glyph unicode="&#x487;" horiz-adv-x="0" d="M-432 1976h220v-184h-240q-70 0 -124 25t-107.5 57t-121.5 57t-167 25q-63 0 -121.5 -32.5t-58.5 -107.5v-24h-188v52q0 135 102 215.5t282 80.5q108 0 184 -25t132 -57t105 -57t103 -25z" />
<glyph unicode="&#x488;" horiz-adv-x="0" d="M-896 1744h-156q0 111 78.5 183.5t213.5 72.5q132 0 210 -72.5t78 -183.5h-152q0 54 -32 95t-104 41q-75 0 -105.5 -42.5t-30.5 -93.5zM-80 1360h-156q0 114 76.5 187t211.5 73t213.5 -73t78.5 -187h-156q0 57 -30.5 98.5t-105.5 41.5q-72 0 -102 -41.5t-30 -98.5z M176 672h-156q0 111 78 183.5t210 72.5q135 0 213.5 -72.5t78.5 -183.5h-156q0 54 -30.5 95t-105.5 41q-69 0 -100.5 -41t-31.5 -95zM-96 -44h-156q0 111 78.5 185.5t213.5 74.5q132 0 210 -73t78 -187h-152q0 54 -32 97t-104 43t-104 -43t-32 -97zM-888 -436h-156 q0 114 78 187t210 73q135 0 213.5 -73t78.5 -187h-156q0 54 -30.5 97t-105.5 43q-72 0 -102 -44.5t-30 -95.5zM-1680 1360h-160q0 114 78.5 187t213.5 73t213.5 -73t78.5 -187h-156q0 57 -30.5 98.5t-105.5 41.5q-72 0 -102 -41.5t-30 -98.5zM-1924 672h-156q0 111 78 183.5 t210 72.5q135 0 213.5 -72.5t78.5 -183.5h-156q0 54 -30.5 95t-105.5 41q-72 0 -102 -42.5t-30 -93.5zM-1696 -44h-156q0 111 78 185.5t210 74.5t212 -73t80 -187h-156q0 54 -30.5 97t-105.5 43q-72 0 -102 -44.5t-30 -95.5z" />
<glyph unicode="&#x489;" horiz-adv-x="0" d="M-908 1548l-16 20l168 464h132l-96 -484h-188zM-172 1244l-132 136v20l444 212l92 -96zM500 580l-476 96v192l20 16l456 -168v-136zM24 -328l-272 412l132 136h24l204 -448zM-924 -568l96 484h188l16 -20l-168 -464h-132zM-1688 -204l-96 92l404 276l132 -136v-20z M-1596 580l-456 168v136l476 -96v-192zM-1464 1184l-200 452l88 92l272 -412l-136 -132h-24z" />
<glyph unicode="&#x48a;" horiz-adv-x="2120" d="M248 2048h244v-1612h20l1120 1612h240v-2048h-248v1608h-20l-1116 -1608h-240v2048zM1256 2560h220q0 -162 -112 -265t-304 -103q-189 0 -300.5 103t-111.5 265h220q0 -78 43.5 -137t148.5 -59t150.5 59t45.5 137zM2108 156v-188q-2 -88 -19 -172t-51 -165t-86 -159 l-200 40q34 80 61 154.5t43 148t16 149.5v192h236z" />
<glyph unicode="&#x48b;" horiz-adv-x="1848" d="M452 348l740 1188h272v-1536h-236v1188l-736 -1188h-276v1536h236v-1188zM1036 2048h220q0 -162 -112 -265t-304 -103q-189 0 -300.5 103t-111.5 265h220q0 -78 43.5 -137t148.5 -59t150.5 59t45.5 137zM1700 156v-188q-2 -88 -19 -172t-51 -165t-86 -159l-200 40 q34 80 61 154.5t43 148t16 149.5v192h236z" />
<glyph unicode="&#x48c;" horiz-adv-x="1840" d="M432 1188h584q220 0 371.5 -72t230 -203t78.5 -309t-78.5 -314t-230 -213t-371.5 -77h-768v2048h248v-1832h520q140 0 237.5 56.5t148 146t50.5 189.5q0 147 -113 253.5t-323 106.5h-584v220zM-48 1524v184h880v-184h-880z" />
<glyph unicode="&#x48d;" d="M1008 2004v-220h-980v220h980zM500 980h440q270 0 413 -137t143 -347q0 -138 -64 -250.5t-188 -179t-304 -66.5h-644v2304h236v-2084h408q140 0 230 74t90 190q0 122 -90 199t-230 77h-440v220z" />
<glyph unicode="&#x48e;" horiz-adv-x="1788" d="M1136 1316l416 -636l-184 -120l-416 640zM248 0v2048h692q241 0 394.5 -86.5t227.5 -233.5t74 -328t-73.5 -329t-226.5 -235.5t-392 -87.5h-496v220h488q165 0 265 57t145.5 154.5t45.5 220.5t-45.5 220t-146.5 152.5t-268 55.5h-436v-1828h-248z" />
<glyph unicode="&#x48f;" horiz-adv-x="1716" d="M1084 536l464 -516l-160 -152l-464 516zM216 -576v2112h228v-244h28q26 40 72.5 102.5t134 112t237.5 49.5q194 0 342 -97t231 -275t83 -420q0 -244 -83 -422.5t-230 -276t-339 -97.5q-148 0 -237 49.5t-137 113t-74 105.5h-20v-812h-236zM448 768q0 -174 51 -306.5 t149 -207t240 -74.5q148 0 247.5 78.5t150 212t50.5 297.5q0 162 -49.5 292.5t-149 207t-249.5 76.5q-144 0 -242 -72.5t-148 -202t-50 -301.5z" />
<glyph unicode="&#x490;" horiz-adv-x="1620" d="M248 0v2048h988v456h248v-676h-988v-1828h-248z" />
<glyph unicode="&#x491;" horiz-adv-x="1296" d="M1168 1916v-600h-236v600h236zM1164 1536v-220h-712v-1316h-236v1536h948z" />
<glyph unicode="&#x492;" horiz-adv-x="1620" d="M1484 2048v-220h-988v-1828h-248v2048h1236zM-68 964v184h880v-184h-880z" />
<glyph unicode="&#x493;" horiz-adv-x="1292" d="M1164 1536v-220h-712v-1316h-236v1536h948zM-104 676v184h880v-184h-880z" />
<glyph unicode="&#x494;" horiz-adv-x="1752" d="M1484 2048v-220h-988v-1828h-248v2048h1236zM492 920v220h288q262 0 447 -86t283 -261t98 -441q0 -139 -27.5 -256.5t-81.5 -210t-133 -157t-183 -98.5t-231 -34l-4 216q108 0 186.5 40t129.5 113t75.5 171.5t24.5 215.5q0 297 -151 432.5t-433 135.5h-288z" />
<glyph unicode="&#x495;" horiz-adv-x="1520" d="M312 672v220h332q205 0 363 -84t247.5 -232t89.5 -340q0 -157 -68 -289.5t-188 -222t-276 -116.5l-56 208q103 27 182.5 90t124.5 148.5t45 181.5q0 128 -59.5 226t-164 154t-240.5 56h-332zM1164 1536v-220h-712v-1316h-236v1536h948z" />
<glyph unicode="&#x496;" horiz-adv-x="2672" d="M1460 2048v-2048h-248v2048h248zM76 0l664 1068l-608 980h300l532 -908h748l532 908h300l-612 -984l664 -1064h-284l-556 908h-840l-560 -908h-280zM2664 220v-716h-236v716h236z" />
<glyph unicode="&#x497;" horiz-adv-x="2328" d="M120 0l624 780l-616 756h280l512 -656h128v656h236v-656h124l512 656h280l-612 -756l620 -780h-284l-520 660h-120v-660h-236v660h-120l-524 -660h-284zM2280 220v-716h-236v716h236z" />
<glyph unicode="&#x498;" horiz-adv-x="1792" d="M904 -28q-198 0 -352.5 68t-245 189.5t-98.5 282.5h252q8 -99 68 -170.5t157 -110.5t215 -39q132 0 234 46t160 128t58 190q0 113 -56 199.5t-164 135.5t-264 49h-164v220h164q122 0 214.5 44t145 124t52.5 188q0 104 -46 181t-129.5 120t-196.5 43q-106 0 -199.5 -38.5 t-152.5 -111t-64 -174.5h-240q6 161 97 282.5t238.5 189.5t324.5 68q190 0 326 -76.5t209 -201.5t73 -270q0 -173 -90.5 -295t-245.5 -169v-16q194 -32 303 -164.5t109 -327.5q0 -167 -90.5 -299.5t-246.5 -208.5t-355 -76zM804 8h196l-16 -80q78 -12 143 -65.5t65 -170.5 q0 -129 -106.5 -210.5t-313.5 -81.5l-8 156q93 0 154.5 29.5t61.5 98.5t-51 94t-165 34z" />
<glyph unicode="&#x499;" horiz-adv-x="1392" d="M120 392h252q8 -104 94.5 -158t225.5 -54q142 0 243 58.5t101 189.5q0 77 -38 134.5t-107 89.5t-163 32h-264v212h264q141 0 208.5 64t67.5 160q0 103 -73 165.5t-207 62.5q-135 0 -225 -60.5t-95 -155.5h-248q4 124 76 219.5t196 150t284 54.5q162 0 281.5 -56.5 t185 -153t65.5 -218.5q0 -130 -73 -210t-183 -114v-16q87 -6 151.5 -55.5t100.5 -129t36 -175.5q0 -140 -75 -243.5t-206 -160t-299 -56.5q-163 0 -292 53.5t-204.5 149t-79.5 221.5zM596 8h196l-16 -80q78 -12 143 -65.5t65 -170.5q0 -129 -106.5 -210.5t-313.5 -81.5 l-8 156q93 0 154.5 29.5t61.5 98.5t-51 94t-165 34z" />
<glyph unicode="&#x49a;" horiz-adv-x="1936" d="M1452 0l-704 940h-252v-940h-248v2048h248v-888h108l820 888h296l-828 -900l856 -1148h-296zM1808 220v-716h-236v716h236z" />
<glyph unicode="&#x49b;" horiz-adv-x="1652" d="M216 0v1536h236v-668h156l552 668h304l-620 -740l628 -796h-304l-504 648h-212v-648h-236zM1524 220v-716h-236v716h236z" />
<glyph unicode="&#x49c;" horiz-adv-x="1852" d="M664 1472h220v-904h-220v904zM248 0v2048h248v-920h484l476 920h288l-540 -1024l576 -1024h-276l-508 892h-500v-892h-248z" />
<glyph unicode="&#x49d;" horiz-adv-x="1632" d="M216 0v1536h236v-668h416l444 668h272l-500 -740l508 -796h-272l-404 648h-464v-648h-236zM596 1148h220v-780h-220v780z" />
<glyph unicode="&#x4a0;" horiz-adv-x="2100" d="M1732 0l-704 940h-252v-940h-248v1828h-504v220h752v-888h108l820 888h296l-828 -900l856 -1148h-296z" />
<glyph unicode="&#x4a1;" horiz-adv-x="1976" d="M844 1536v-220h-716v220h716zM680 0v1536h236v-668h156l552 668h304l-620 -740l628 -796h-304l-504 648h-212v-648h-236z" />
<glyph unicode="&#x4a2;" horiz-adv-x="2160" d="M248 0v2048h248v-912h1092v912h248v-2048h-248v916h-1092v-916h-248zM2048 220v-716h-236v716h236z" />
<glyph unicode="&#x4a3;" horiz-adv-x="1784" d="M1244 876v-220h-848v220h848zM452 1536v-1536h-236v1536h236zM1424 1536v-1536h-236v1536h236zM1656 220v-716h-236v716h236z" />
<glyph unicode="&#x4a4;" horiz-adv-x="2776" d="M2640 2048v-220h-804v-1828h-248v916h-1092v-916h-248v2048h248v-912h1092v912h1052z" />
<glyph unicode="&#x4a5;" horiz-adv-x="2024" d="M1984 1536v-220h-632v220h632zM1244 876v-220h-848v220h848zM452 1536v-1536h-236v1536h236zM1424 1536v-1536h-236v1536h236z" />
<glyph unicode="&#x4a6;" horiz-adv-x="3056" d="M1700 2048v-2048h-248v1828h-1032v-1828h-248v2048h1528zM1700 920v220h288q262 0 447 -86t283 -261t98 -441q0 -139 -27.5 -256.5t-81.5 -210t-133 -157t-183 -98.5t-231 -34l-4 216q108 0 186.5 40t129.5 113t75.5 171.5t24.5 215.5q0 297 -151 432.5t-433 135.5h-288z " />
<glyph unicode="&#x4a7;" horiz-adv-x="2596" d="M1336 672v220h384q212 0 377.5 -79t260 -226t94.5 -351q0 -76 -29 -173t-91.5 -192t-164 -166t-247.5 -97l-72 212q124 32 205.5 92.5t122 143t40.5 180.5q0 134 -68 232t-181 151t-247 53h-384zM216 0v1536h1208v-1536h-236v1316h-736v-1316h-236z" />
<glyph unicode="&#x4a8;" horiz-adv-x="2288" d="M2060 196v-236q-259 0 -471.5 73t-366 207.5t-236 319.5t-82.5 408v352q0 214 71.5 385t200 271t300.5 100q170 0 298 -97.5t199 -269t71 -393.5v-380q0 -204 -68.5 -379.5t-195.5 -306.5t-303.5 -204.5t-392.5 -73.5q-192 0 -349.5 72.5t-270.5 203t-174.5 304.5 t-61.5 376v276q0 248 79 446.5t221 314t332 115.5v-240q-108 0 -195 -83t-138 -226t-51 -323v-280q0 -204 78.5 -367t216 -258t313.5 -95q212 0 372.5 96t250 261t89.5 371v384q0 156 -43.5 273t-116 182t-160.5 65t-161.5 -67.5t-118 -184t-44.5 -264.5v-360 q0 -232 110.5 -404.5t314 -268t483.5 -95.5z" />
<glyph unicode="&#x4a9;" horiz-adv-x="1776" d="M1632 204v-220q-294 0 -507.5 107t-329 290t-115.5 411v176q0 172 53.5 304.5t152 208t234.5 75.5t234.5 -81.5t152 -221t53.5 -313.5v-180q0 -224 -92 -402.5t-257 -282t-383 -103.5q-204 0 -357 108t-238 293t-85 415v112q0 186 61 333.5t170 233t253 85.5v-220 q-66 0 -122.5 -57t-91 -155t-34.5 -220v-112q0 -166 58.5 -301t159 -215t226.5 -80q142 0 254 75.5t177 204t65 288.5v184q0 173 -57.5 282.5t-146.5 109.5t-146.5 -102t-57.5 -262v-184q0 -170 89 -302t250 -207t377 -75z" />
<glyph unicode="&#x4aa;" horiz-adv-x="2048" d="M1896 1408h-248q-22 107 -76.5 188t-132 136.5t-171.5 83.5t-196 28q-186 0 -336.5 -94t-239 -277t-88.5 -449t88.5 -449t239 -277t336.5 -94q102 0 196 28t171.5 83.5t132 137t76.5 187.5h248q-28 -157 -102 -281t-184 -210.5t-246.5 -131.5t-291.5 -45q-262 0 -466 128 t-321 364t-117 560t117 560t321 364t466 128q155 0 291.5 -45t246.5 -131.5t184 -210t102 -281.5zM968 -8h196l-16 -80q78 -12 143 -65.5t65 -170.5q0 -129 -106.5 -210.5t-313.5 -81.5l-8 156q93 0 154.5 29.5t61.5 98.5t-51 94t-165 34z" />
<glyph unicode="&#x4ab;" horiz-adv-x="1572" d="M840 -32q-216 0 -372 102t-240 281t-84 409q0 234 86.5 413.5t242 281t363.5 101.5q162 0 292 -60t213 -168t103 -252h-236q-27 105 -119.5 186.5t-248.5 81.5q-138 0 -241.5 -71.5t-161 -201t-57.5 -303.5q0 -178 56.5 -310t160 -205t243.5 -73q92 0 167 32t127 92 t74 144h236q-20 -136 -98.5 -244.5t-207 -172t-298.5 -63.5zM728 8h196l-16 -80q78 -12 143 -65.5t65 -170.5q0 -129 -106.5 -210.5t-313.5 -81.5l-8 156q93 0 154.5 29.5t61.5 98.5t-51 94t-165 34z" />
<glyph unicode="&#x4ac;" horiz-adv-x="1808" d="M136 1828v220h1536v-220h-644v-1828h-248v1828h-644zM1260 220v-716h-236v716h236z" />
<glyph unicode="&#x4ad;" horiz-adv-x="1504" d="M128 1316v220h1248v-220h-504v-1316h-236v1316h-508zM1108 212v-716h-236v716h236z" />
<glyph unicode="&#x4ae;" horiz-adv-x="1872" d="M72 2048h284l568 -956h24l568 956h284l-740 -1204v-844h-248v844z" />
<glyph unicode="&#x4af;" horiz-adv-x="1504" d="M96 1536h256l404 -1168l396 1168h256l-536 -1504v-608h-236v608z" />
<glyph unicode="&#x4b0;" horiz-adv-x="1872" d="M72 2048h284l568 -956h24l568 956h284l-740 -1204v-844h-248v844zM496 724v184h880v-184h-880z" />
<glyph unicode="&#x4b1;" horiz-adv-x="1504" d="M96 1536h256l404 -1168l396 1168h256l-536 -1504v-608h-236v608zM312 -4v184h880v-184h-880z" />
<glyph unicode="&#x4b2;" horiz-adv-x="1808" d="M368 2048l528 -852h16l528 852h292l-644 -1024l644 -1024h-292l-528 836h-16l-528 -836h-292l660 1024l-660 1024h292zM1808 220v-716h-236v716h236z" />
<glyph unicode="&#x4b3;" horiz-adv-x="1520" d="M392 1536l368 -628l368 628h272l-496 -768l496 -768h-272l-368 596l-368 -596h-272l488 768l-488 768h272zM1480 220v-716h-236v716h236z" />
<glyph unicode="&#x4b4;" horiz-adv-x="2540" d="M1448 2048v-220h-1312v220h1312zM2412 236l-28 -720h-256v484h-144v236h428zM672 0v2048h236v-1820h1056v1820h236v-2048h-1528z" />
<glyph unicode="&#x4b5;" horiz-adv-x="2016" d="M1104 1536v-220h-976v220h976zM1888 220l-28 -660h-244v440h-80v220h352zM1704 1536v-1536h-1208v1536h236v-1316h736v1316h236z" />
<glyph unicode="&#x4b6;" horiz-adv-x="2012" d="M268 2048h248v-684q0 -152 53 -238.5t150 -122t229 -35.5q83 0 161 6.5t152.5 18.5t146 29t140.5 38v-224q-67 -21 -132.5 -38t-136 -29t-151.5 -18.5t-180 -6.5q-212 0 -364.5 61t-234 197t-81.5 362v684zM1516 2048h248v-2048h-248v2048zM2000 220v-716h-236v716h236z " />
<glyph unicode="&#x4b7;" horiz-adv-x="1764" d="M1400 1536v-1536h-236v1536h236zM1308 804v-220q-80 -30 -159 -52.5t-166 -35t-191 -12.5q-261 0 -418.5 141t-157.5 423v492h236v-492q0 -118 45 -194t122 -113t173 -37q150 0 271.5 27.5t244.5 72.5zM1636 212v-716h-236v716h236z" />
<glyph unicode="&#x4b8;" horiz-adv-x="2032" d="M1092 1392v-964h-220v964h220zM268 2048h248v-684q0 -152 53 -238.5t150 -122t229 -35.5q83 0 161 6.5t152.5 18.5t146 29t140.5 38v-224q-67 -21 -132.5 -38t-136 -29t-151.5 -18.5t-180 -6.5q-212 0 -364.5 61t-234 197t-81.5 362v684zM1516 2048h248v-2048h-248v2048z " />
<glyph unicode="&#x4b9;" horiz-adv-x="1616" d="M916 1092v-776h-220v776h220zM1400 1536v-1536h-236v1536h236zM1308 804v-220q-80 -30 -159 -52.5t-166 -35t-191 -12.5q-261 0 -418.5 141t-157.5 423v492h236v-492q0 -118 45 -194t122 -113t173 -37q150 0 271.5 27.5t244.5 72.5z" />
<glyph unicode="&#x4ba;" horiz-adv-x="2012" d="M1744 0h-248v684q0 152 -53 238.5t-150 122t-229 35.5q-82 0 -160.5 -6.5t-153 -18.5t-146 -29t-140.5 -38v224q68 21 133 38t135.5 29t151.5 18.5t180 6.5q212 0 364.5 -61t234 -197t81.5 -362v-684zM496 0h-248v2048h248v-2048z" />
<glyph unicode="&#x4bb;" horiz-adv-x="1664" d="M452 924v-924h-236v2048h236v-752h20q54 119 162.5 189.5t289.5 70.5q157 0 275 -62.5t183.5 -191t65.5 -326.5v-976h-236v960q0 183 -94.5 283.5t-261.5 100.5q-116 0 -207.5 -49t-144 -143t-52.5 -228z" />
<glyph unicode="&#x4bc;" horiz-adv-x="2288" d="M176 1488h224q0 -154 89 -243t243 -89v-204q-259 0 -407.5 143t-148.5 393zM1472 -32q-266 0 -458 104.5t-295 299.5t-103 464v332q0 282 90.5 485.5t259.5 313t402 109.5t400.5 -116.5t257.5 -333.5t90 -518v-156h-1324v200h1076v44q0 302 -133.5 475t-366.5 173 q-235 0 -369.5 -180.5t-134.5 -495.5v-332q0 -296 162.5 -466t445.5 -170q107 0 231 29t233 79l64 -208q-57 -41 -140 -70.5t-182 -45.5t-206 -16z" />
<glyph unicode="&#x4bd;" horiz-adv-x="2052" d="M72 1180h216q0 -135 67 -211.5t217 -76.5v-204q-249 0 -374.5 132t-125.5 360zM1272 -32q-222 0 -382.5 98.5t-247 276t-86.5 413.5t86.5 416.5t242 282t363.5 101.5q120 0 237 -40t213 -129.5t153 -236.5t57 -362v-100h-1184v204h944q0 130 -51.5 232t-146 161 t-222.5 59q-141 0 -243.5 -69.5t-157.5 -180.5t-55 -238v-136q0 -174 60.5 -294.5t168.5 -183t251 -62.5q93 0 168.5 26.5t130.5 80t85 133.5l228 -64q-36 -116 -121 -203.5t-210 -136t-281 -48.5z" />
<glyph unicode="&#x4be;" horiz-adv-x="2288" d="M176 1488h224q0 -154 89 -243t243 -89v-204q-259 0 -407.5 143t-148.5 393zM1472 -32q-266 0 -458 104.5t-295 299.5t-103 464v332q0 282 90.5 485.5t259.5 313t402 109.5t400.5 -116.5t257.5 -333.5t90 -518v-156h-1324v200h1076v44q0 302 -133.5 475t-366.5 173 q-235 0 -369.5 -180.5t-134.5 -495.5v-332q0 -296 162.5 -466t445.5 -170q107 0 231 29t233 79l64 -208q-57 -41 -140 -70.5t-182 -45.5t-206 -16zM1544 132v-716h-236v716h236z" />
<glyph unicode="&#x4bf;" horiz-adv-x="2052" d="M72 1180h216q0 -135 67 -211.5t217 -76.5v-204q-249 0 -374.5 132t-125.5 360zM1272 -32q-222 0 -382.5 98.5t-247 276t-86.5 413.5t86.5 416.5t242 282t363.5 101.5q120 0 237 -40t213 -129.5t153 -236.5t57 -362v-100h-1184v204h944q0 130 -51.5 232t-146 161 t-222.5 59q-141 0 -243.5 -69.5t-157.5 -180.5t-55 -238v-136q0 -174 60.5 -294.5t168.5 -183t251 -62.5q93 0 168.5 26.5t130.5 80t85 133.5l228 -64q-36 -116 -121 -203.5t-210 -136t-281 -48.5zM1136 8h196l-16 -80q78 -12 143 -65.5t65 -170.5q0 -129 -106.5 -210.5 t-313.5 -81.5l-8 156q93 0 154.5 29.5t61.5 98.5t-51 94t-165 34z" />
<glyph unicode="&#x4c0;" horiz-adv-x="744" d="M496 2048v-2048h-248v2048h248z" />
<glyph unicode="&#x4c1;" horiz-adv-x="2672" d="M1460 2048v-2048h-248v2048h248zM76 0l664 1068l-608 980h300l532 -908h748l532 908h300l-612 -984l664 -1064h-284l-556 908h-840l-560 -908h-280zM1532 2560h220q0 -162 -112 -265t-304 -103q-189 0 -300.5 103t-111.5 265h220q0 -78 43.5 -137t148.5 -59t150.5 59 t45.5 137z" />
<glyph unicode="&#x4c2;" horiz-adv-x="2328" d="M120 0l624 780l-616 756h280l512 -656h128v656h236v-656h124l512 656h280l-612 -756l620 -780h-284l-520 660h-120v-660h-236v660h-120l-524 -660h-284zM1360 2048h220q0 -162 -112 -265t-304 -103q-189 0 -300.5 103t-111.5 265h220q0 -78 43.5 -137t148.5 -59t150.5 59 t45.5 137z" />
<glyph unicode="&#x4c3;" horiz-adv-x="1912" d="M600 932v220h296q258 0 443.5 -97t285 -277t99.5 -430q0 -235 -80 -404.5t-228.5 -260.5t-355.5 -91l-4 220q196 0 308 143t112 393q0 272 -155 428t-425 156h-296zM248 0v2048h248v-896h236l708 896h312l-924 -1116h-332v-932h-248z" />
<glyph unicode="&#x4c4;" d="M384 648v220h384q213 0 377.5 -79.5t257.5 -219t93 -321.5q0 -150 -67.5 -277t-186.5 -212t-274 -111l-60 196q105 26 185 86t125.5 143t45.5 175q0 117 -63.5 207.5t-175 141.5t-257.5 51h-384zM216 0v1536h236v-668h156l552 668h304l-740 -888h-272v-648h-236z" />
<glyph unicode="&#x4c5;" horiz-adv-x="2008" d="M72 0v228h60q128 0 199 82t102.5 265t42.5 485l36 988h1248v-2048h-248v1828h-764l-32 -816q-12 -322 -59 -548t-165 -345t-344 -119h-76zM1992 156v-188q-2 -88 -19 -172t-51 -165t-86 -159l-200 40q34 80 61 154.5t43 148t16 149.5v192h236z" />
<glyph unicode="&#x4c6;" horiz-adv-x="1828" d="M80 0v220h56q69 0 115 27.5t74.5 97t44 194t22.5 317.5l28 680h1024v-1536h-236v1316h-564l-24 -548q-8 -189 -33.5 -332.5t-77 -240.5t-136.5 -146t-213 -49h-80zM1680 156v-188q-2 -88 -19 -172t-51 -165t-86 -159l-200 40q34 80 61 154.5t43 148t16 149.5v192h236z " />
<glyph unicode="&#x4c7;" horiz-adv-x="2084" d="M1588 0h248v-164q0 -79 -20.5 -144t-58.5 -115t-89 -84t-112 -51.5t-128 -17.5q-36 0 -72.5 1.5t-63.5 10.5v204q15 -3 35 -5.5t41 -2.5q64 0 113.5 18.5t78 64t28.5 125.5v160zM248 0v2048h248v-912h1092v912h248v-2048h-248v916h-1092v-916h-248z" />
<glyph unicode="&#x4c8;" d="M1424 0v-124q0 -231 -119 -353.5t-329 -122.5q-42 0 -78 4t-78 16l20 216q21 -9 69.5 -12.5t66.5 -3.5q81 0 146.5 68t65.5 188v124h236zM1244 876v-220h-848v220h848zM452 1536v-1536h-236v1536h236zM1424 1536v-1536h-236v1536h236z" />
<glyph unicode="&#x4c9;" horiz-adv-x="2184" d="M248 0v2048h248v-912h1092v912h248v-2048h-248v916h-1092v-916h-248zM2072 156v-188q-2 -88 -19 -172t-51 -165t-86 -159l-200 40q34 80 61 154.5t43 148t16 149.5v192h236z" />
<glyph unicode="&#x4ca;" horiz-adv-x="1808" d="M1244 876v-220h-848v220h848zM452 1536v-1536h-236v1536h236zM1424 1536v-1536h-236v1536h236zM1660 156v-188q-2 -88 -19 -172t-51 -165t-86 -159l-200 40q34 80 61 154.5t43 148t16 149.5v192h236z" />
<glyph unicode="&#x4cb;" horiz-adv-x="2012" d="M268 2048h248v-684q0 -152 53 -238.5t150 -122t229 -35.5q83 0 161 6.5t152.5 18.5t146 29t140.5 38v-224q-67 -21 -132.5 -38t-136 -29t-151.5 -18.5t-180 -6.5q-212 0 -364.5 61t-234 197t-81.5 362v684zM1516 2048h248v-2048h-248v2048zM2000 220v-716h-236v716h236z " />
<glyph unicode="&#x4cc;" horiz-adv-x="1616" d="M1400 1536v-1536h-236v1536h236zM1308 804v-220q-80 -30 -159 -52.5t-166 -35t-191 -12.5q-261 0 -418.5 141t-157.5 423v492h236v-492q0 -118 45 -194t122 -113t173 -37q150 0 271.5 27.5t244.5 72.5zM1164 212v-716h-236v716h236z" />
<glyph unicode="&#x4cd;" horiz-adv-x="2504" d="M248 2048h296l696 -1700h24l696 1700h296v-2048h-232v1556h-20l-640 -1556h-224l-640 1556h-20v-1556h-232v2048zM2492 156v-188q-2 -88 -19 -172t-51 -165t-86 -159l-200 40q34 80 61 154.5t43 148t16 149.5v192h236z" />
<glyph unicode="&#x4ce;" horiz-adv-x="2280" d="M1056 320l536 1216h224l-664 -1536h-192l-652 1536h220zM452 1536v-1536h-236v1536h236zM1660 0v1536h236v-1536h-236zM2132 156v-188q-2 -88 -19 -172t-51 -165t-86 -159l-200 40q34 80 61 154.5t43 148t16 149.5v192h236z" />
<glyph unicode="&#x4cf;" horiz-adv-x="744" d="M496 2048v-2048h-248v2048h248z" />
<glyph unicode="&#x4d0;" horiz-adv-x="1904" d="M332 0h-260l752 2048h256l752 -2048h-260l-612 1724h-16zM428 800h1048v-220h-1048v220zM1148 2560h220q0 -162 -112 -265t-304 -103q-189 0 -300.5 103t-111.5 265h220q0 -78 43.5 -137t148.5 -59t150.5 59t45.5 137z" />
<glyph unicode="&#x4d1;" horiz-adv-x="1588" d="M668 -36q-146 0 -265 55.5t-189 161t-70 255.5q0 132 52 214.5t139 129.5t192.5 70.5t212.5 37.5q140 18 227.5 27.5t128 32.5t40.5 80v8q0 148 -80.5 230t-243.5 82q-169 0 -265 -74t-135 -158l-224 80q60 140 160.5 218.5t220 110t235.5 31.5q74 0 170.5 -17.5 t187 -71.5t150.5 -163t60 -292v-1012h-236v208h-12q-24 -50 -80 -107t-149 -97t-227 -40zM704 176q140 0 236.5 55t146 142t49.5 183v216q-15 -18 -65.5 -32.5t-116 -25t-127 -18t-99.5 -12.5q-92 -12 -171.5 -38.5t-128 -79t-48.5 -142.5q0 -123 91.5 -185.5t232.5 -62.5z M1016 2048h220q0 -162 -112 -265t-304 -103q-189 0 -300.5 103t-111.5 265h220q0 -78 43.5 -137t148.5 -59t150.5 59t45.5 137z" />
<glyph unicode="&#x4d2;" horiz-adv-x="1904" d="M332 0h-260l752 2048h256l752 -2048h-260l-612 1724h-16zM428 800h1048v-220h-1048v220zM664 2304q-63 0 -111.5 48.5t-48.5 111.5q0 69 48.5 114.5t111.5 45.5q69 0 114.5 -45.5t45.5 -114.5q0 -63 -45.5 -111.5t-114.5 -48.5zM1240 2304q-63 0 -111.5 48.5t-48.5 111.5 q0 69 48.5 114.5t111.5 45.5q69 0 114.5 -45.5t45.5 -114.5q0 -63 -45.5 -111.5t-114.5 -48.5z" />
<glyph unicode="&#x4d3;" horiz-adv-x="1588" d="M668 -36q-146 0 -265 55.5t-189 161t-70 255.5q0 132 52 214.5t139 129.5t192.5 70.5t212.5 37.5q140 18 227.5 27.5t128 32.5t40.5 80v8q0 148 -80.5 230t-243.5 82q-169 0 -265 -74t-135 -158l-224 80q60 140 160.5 218.5t220 110t235.5 31.5q74 0 170.5 -17.5 t187 -71.5t150.5 -163t60 -292v-1012h-236v208h-12q-24 -50 -80 -107t-149 -97t-227 -40zM704 176q140 0 236.5 55t146 142t49.5 183v216q-15 -18 -65.5 -32.5t-116 -25t-127 -18t-99.5 -12.5q-92 -12 -171.5 -38.5t-128 -79t-48.5 -142.5q0 -123 91.5 -185.5t232.5 -62.5z M532 1792q-63 0 -111.5 48.5t-48.5 111.5q0 69 48.5 114.5t111.5 45.5q69 0 114.5 -45.5t45.5 -114.5q0 -63 -45.5 -111.5t-114.5 -48.5zM1108 1792q-63 0 -111.5 48.5t-48.5 111.5q0 69 48.5 114.5t111.5 45.5q69 0 114.5 -45.5t45.5 -114.5q0 -63 -45.5 -111.5 t-114.5 -48.5z" />
<glyph unicode="&#x4d4;" horiz-adv-x="2788" d="M72 0l992 2048h1524v-220h-988v-692h924v-220h-924v-696h1004v-220h-1252v1828h-148l-860 -1828h-272zM508 580v220h968v-220h-968z" />
<glyph unicode="&#x4d5;" horiz-adv-x="2604" d="M1824 -32q-255 0 -424 125.5t-208 326.5l44 764q75 174 217.5 273t346.5 99q120 0 237 -40t213 -129.5t153 -236.5t57 -362v-100h-1184v204h944q0 130 -51.5 232t-146 161t-222.5 59q-141 0 -243.5 -69.5t-157.5 -181t-55 -237.5v-136q0 -174 61 -294.5t169 -183 t250 -62.5q93 0 168.5 26.5t130.5 80t85 133.5l228 -64q-36 -116 -121 -203.5t-210 -136t-281 -48.5zM704 176q140 0 236.5 55t146 142t49.5 183v216q-15 -18 -65.5 -32.5t-116 -25t-127 -18t-99.5 -12.5q-92 -12 -171.5 -38.5t-128 -79t-48.5 -142.5q0 -123 91.5 -185.5 t232.5 -62.5zM668 -36q-146 0 -265 55.5t-189 161t-70 255.5q0 132 52.5 214.5t139 130t192.5 71t212 36.5q140 18 227.5 28t128 33t40.5 79v8q0 147 -81 229.5t-243 82.5q-168 0 -264.5 -74t-135.5 -158l-224 80q60 140 160.5 218.5t220 110t235.5 31.5q62 0 140 -11.5 t157 -45.5t144 -101t99 -178l-92 -940h-20q-30 -86 -112.5 -158t-200 -115t-251.5 -43z" />
<glyph unicode="&#x4d6;" horiz-adv-x="1684" d="M248 0v2048h1236v-220h-988v-692h924v-220h-924v-696h1004v-220h-1252zM1060 2560h220q0 -162 -112 -265t-304 -103q-189 0 -300.5 103t-111.5 265h220q0 -78 43.5 -137t148.5 -59t150.5 59t45.5 137z" />
<glyph unicode="&#x4d7;" d="M860 -32q-222 0 -382.5 98.5t-247 276t-86.5 413.5t86.5 416.5t242 282t363.5 101.5q120 0 237 -40t213 -129.5t153 -236.5t57 -362v-100h-1184v204h944q0 130 -51.5 232t-146 161t-222.5 59q-141 0 -243.5 -69.5t-157.5 -180.5t-55 -238v-136q0 -174 60.5 -294.5 t168.5 -183t251 -62.5q93 0 168.5 26.5t130.5 80t85 133.5l228 -64q-36 -116 -121 -203.5t-210 -136t-281 -48.5zM1020 2048h220q0 -162 -112 -265t-304 -103q-189 0 -300.5 103t-111.5 265h220q0 -78 43.5 -137t148.5 -59t150.5 59t45.5 137z" />
<glyph unicode="&#x4d8;" horiz-adv-x="1948" d="M876 2076q308 0 514.5 -136t310 -367t103.5 -517v-116q0 -286 -109 -504t-305 -341t-456 -123q-244 0 -421 112.5t-273 319t-96 488.5v172h1484v-216h-1200v-44q0 -168 52 -304t163 -216t289 -80q200 0 329.5 99t192 266t62.5 371v116q0 155 -34.5 295.5t-110.5 251 t-202 174t-309 63.5q-96 0 -181 -17t-155 -41t-120 -46l-68 208q28 18 100.5 49.5t184 57t255.5 25.5z" />
<glyph unicode="&#x4d9;" d="M780 1568q222 0 382.5 -98.5t247 -276t86.5 -413.5t-86.5 -416.5t-242 -282t-363.5 -101.5q-120 0 -237 40t-213 129.5t-153 237t-57 361.5v100h1184v-204h-944q0 -130 51.5 -232t146 -161t222.5 -59q142 0 244 69.5t157 181t55 237.5v136q0 175 -60.5 295t-168.5 182.5 t-251 62.5q-92 0 -168 -26.5t-131 -80t-85 -133.5l-228 64q36 116 121 203.5t210 136t281 48.5z" />
<glyph unicode="&#x4da;" horiz-adv-x="1948" d="M876 2076q308 0 514.5 -136t310 -367t103.5 -517v-116q0 -286 -109 -504t-305 -341t-456 -123q-244 0 -421 112.5t-273 319t-96 488.5v172h1484v-216h-1200v-44q0 -168 52 -304t163 -216t289 -80q200 0 329.5 99t192 266t62.5 371v116q0 155 -34.5 295.5t-110.5 251 t-202 174t-309 63.5q-96 0 -181 -17t-155 -41t-120 -46l-68 208q28 18 100.5 49.5t184 57t255.5 25.5zM684 2304q-63 0 -111.5 48.5t-48.5 111.5q0 69 48.5 114.5t111.5 45.5q69 0 114.5 -45.5t45.5 -114.5q0 -63 -45.5 -111.5t-114.5 -48.5zM1260 2304q-63 0 -111.5 48.5 t-48.5 111.5q0 69 48.5 114.5t111.5 45.5q69 0 114.5 -45.5t45.5 -114.5q0 -63 -45.5 -111.5t-114.5 -48.5z" />
<glyph unicode="&#x4db;" d="M780 1568q222 0 382.5 -98.5t247 -276t86.5 -413.5t-86.5 -416.5t-242 -282t-363.5 -101.5q-120 0 -237 40t-213 129.5t-153 237t-57 361.5v100h1184v-204h-944q0 -130 51.5 -232t146 -161t222.5 -59q142 0 244 69.5t157 181t55 237.5v136q0 175 -60.5 295t-168.5 182.5 t-251 62.5q-92 0 -168 -26.5t-131 -80t-85 -133.5l-228 64q36 116 121 203.5t210 136t281 48.5zM536 1792q-63 0 -111.5 48.5t-48.5 111.5q0 69 48.5 114.5t111.5 45.5q69 0 114.5 -45.5t45.5 -114.5q0 -63 -45.5 -111.5t-114.5 -48.5zM1112 1792q-63 0 -111.5 48.5 t-48.5 111.5q0 69 48.5 114.5t111.5 45.5q69 0 114.5 -45.5t45.5 -114.5q0 -63 -45.5 -111.5t-114.5 -48.5z" />
<glyph unicode="&#x4dc;" horiz-adv-x="2672" d="M1460 2048v-2048h-248v2048h248zM76 0l664 1068l-608 980h300l532 -908h748l532 908h300l-612 -984l664 -1064h-284l-556 908h-840l-560 -908h-280zM1048 2304q-63 0 -111.5 48.5t-48.5 111.5q0 69 48.5 114.5t111.5 45.5q69 0 114.5 -45.5t45.5 -114.5 q0 -63 -45.5 -111.5t-114.5 -48.5zM1624 2304q-63 0 -111.5 48.5t-48.5 111.5q0 69 48.5 114.5t111.5 45.5q69 0 114.5 -45.5t45.5 -114.5q0 -63 -45.5 -111.5t-114.5 -48.5z" />
<glyph unicode="&#x4dd;" horiz-adv-x="2328" d="M120 0l624 780l-616 756h280l512 -656h128v656h236v-656h124l512 656h280l-612 -756l620 -780h-284l-520 660h-120v-660h-236v660h-120l-524 -660h-284zM876 1792q-63 0 -111.5 48.5t-48.5 111.5q0 69 48.5 114.5t111.5 45.5q69 0 114.5 -45.5t45.5 -114.5 q0 -63 -45.5 -111.5t-114.5 -48.5zM1452 1792q-63 0 -111.5 48.5t-48.5 111.5q0 69 48.5 114.5t111.5 45.5q69 0 114.5 -45.5t45.5 -114.5q0 -63 -45.5 -111.5t-114.5 -48.5z" />
<glyph unicode="&#x4de;" horiz-adv-x="1792" d="M904 -28q-198 0 -352.5 68t-245 189.5t-98.5 282.5h252q8 -99 68 -170.5t157 -110.5t215 -39q132 0 234 46t160 128t58 190q0 113 -56 199.5t-164 135.5t-264 49h-164v220h164q122 0 214.5 44t145 124t52.5 188q0 104 -46 181t-129.5 120t-196.5 43q-106 0 -199.5 -38.5 t-152.5 -111t-64 -174.5h-240q6 161 97 282.5t238.5 189.5t324.5 68q190 0 326 -76.5t209 -201.5t73 -270q0 -173 -90.5 -295t-245.5 -169v-16q194 -32 303 -164.5t109 -327.5q0 -167 -90.5 -299.5t-246.5 -208.5t-355 -76zM616 2304q-63 0 -111.5 48.5t-48.5 111.5 q0 69 48.5 114.5t111.5 45.5q69 0 114.5 -45.5t45.5 -114.5q0 -63 -45.5 -111.5t-114.5 -48.5zM1192 2304q-63 0 -111.5 48.5t-48.5 111.5q0 69 48.5 114.5t111.5 45.5q69 0 114.5 -45.5t45.5 -114.5q0 -63 -45.5 -111.5t-114.5 -48.5z" />
<glyph unicode="&#x4df;" horiz-adv-x="1392" d="M120 392h252q8 -104 94.5 -158t225.5 -54q142 0 243 58.5t101 189.5q0 77 -38 134.5t-107 89.5t-163 32h-264v212h264q141 0 208.5 64t67.5 160q0 103 -73 165.5t-207 62.5q-135 0 -225 -60.5t-95 -155.5h-248q4 124 76 219.5t196 150t284 54.5q162 0 281.5 -56.5 t185 -153t65.5 -218.5q0 -130 -73 -210t-183 -114v-16q87 -6 151.5 -55.5t100.5 -129t36 -175.5q0 -140 -75 -243.5t-206 -160t-299 -56.5q-163 0 -292 53.5t-204.5 149t-79.5 221.5zM416 1792q-63 0 -111.5 48.5t-48.5 111.5q0 69 48.5 114.5t111.5 45.5q69 0 114.5 -45.5 t45.5 -114.5q0 -63 -45.5 -111.5t-114.5 -48.5zM992 1792q-63 0 -111.5 48.5t-48.5 111.5q0 69 48.5 114.5t111.5 45.5q69 0 114.5 -45.5t45.5 -114.5q0 -63 -45.5 -111.5t-114.5 -48.5z" />
<glyph unicode="&#x4e0;" horiz-adv-x="1768" d="M180 512h252q11 -104 71.5 -175.5t157.5 -108t215 -36.5q128 0 230 43t162 128.5t60 212.5q0 111 -52 206.5t-167 154.5t-305 59h-164v200l512 616v16h-872v220h1212v-180l-548 -664v-16q132 -6 246.5 -54t200 -130t133.5 -191t48 -237q0 -175 -89.5 -311.5t-247 -214.5 t-363.5 -78q-182 0 -335 64t-249 185t-108 291z" />
<glyph unicode="&#x4e1;" horiz-adv-x="1768" d="M180 0h252q11 -104 71.5 -175.5t157.5 -108t215 -36.5q128 0 230 43t162 128.5t60 212.5q0 111 -52 206.5t-167 154.5t-305 59h-164v200l512 616v16h-872v220h1212v-180l-548 -664v-16q132 -6 246.5 -54t200 -130t133.5 -191t48 -237q0 -175 -89.5 -311.5t-247 -214.5 t-363.5 -78q-182 0 -335 64t-249 185t-108 291z" />
<glyph unicode="&#x4e2;" horiz-adv-x="2120" d="M248 2048h244v-1612h20l1120 1612h240v-2048h-248v1608h-20l-1116 -1608h-240v2048zM1528 2560v-200h-936v200h936z" />
<glyph unicode="&#x4e3;" horiz-adv-x="1680" d="M452 348l740 1188h272v-1536h-236v1188l-736 -1188h-276v1536h236v-1188zM1308 2048v-200h-936v200h936z" />
<glyph unicode="&#x4e4;" horiz-adv-x="2120" d="M248 2048h244v-1612h20l1120 1612h240v-2048h-248v1608h-20l-1116 -1608h-240v2048zM772 2304q-63 0 -111.5 48.5t-48.5 111.5q0 69 48.5 114.5t111.5 45.5q69 0 114.5 -45.5t45.5 -114.5q0 -63 -45.5 -111.5t-114.5 -48.5zM1348 2304q-63 0 -111.5 48.5t-48.5 111.5 q0 69 48.5 114.5t111.5 45.5q69 0 114.5 -45.5t45.5 -114.5q0 -63 -45.5 -111.5t-114.5 -48.5z" />
<glyph unicode="&#x4e5;" horiz-adv-x="1680" d="M452 348l740 1188h272v-1536h-236v1188l-736 -1188h-276v1536h236v-1188zM552 1792q-63 0 -111.5 48.5t-48.5 111.5q0 69 48.5 114.5t111.5 45.5q69 0 114.5 -45.5t45.5 -114.5q0 -63 -45.5 -111.5t-114.5 -48.5zM1128 1792q-63 0 -111.5 48.5t-48.5 111.5 q0 69 48.5 114.5t111.5 45.5q69 0 114.5 -45.5t45.5 -114.5q0 -63 -45.5 -111.5t-114.5 -48.5z" />
<glyph unicode="&#x4e6;" horiz-adv-x="2144" d="M1976 1024q0 -324 -117 -560t-321 -364t-466 -128t-466 128t-321 364t-117 560t117 560t321 364t466 128t466 -128t321 -364t117 -560zM1736 1024q0 266 -88.5 449t-239 277t-336.5 94t-336.5 -94t-239 -277t-88.5 -449t88.5 -449t239 -277t336.5 -94t336.5 94t239 277 t88.5 449zM784 2304q-63 0 -111.5 48.5t-48.5 111.5q0 69 48.5 114.5t111.5 45.5q69 0 114.5 -45.5t45.5 -114.5q0 -63 -45.5 -111.5t-114.5 -48.5zM1360 2304q-63 0 -111.5 48.5t-48.5 111.5q0 69 48.5 114.5t111.5 45.5q69 0 114.5 -45.5t45.5 -114.5q0 -63 -45.5 -111.5 t-114.5 -48.5z" />
<glyph unicode="&#x4e7;" horiz-adv-x="1680" d="M840 -32q-208 0 -364.5 99t-244 277t-87.5 416q0 240 87.5 419t244 278t364.5 99t364.5 -99t244 -278t87.5 -419q0 -238 -87.5 -416t-244 -277t-364.5 -99zM840 180q158 0 260 81t151 213t49 286t-49 287t-151 215t-260 82t-260 -82t-151 -215t-49 -287t49 -286t151 -213 t260 -81zM552 1792q-63 0 -111.5 48.5t-48.5 111.5q0 69 48.5 114.5t111.5 45.5q69 0 114.5 -45.5t45.5 -114.5q0 -63 -45.5 -111.5t-114.5 -48.5zM1128 1792q-63 0 -111.5 48.5t-48.5 111.5q0 69 48.5 114.5t111.5 45.5q69 0 114.5 -45.5t45.5 -114.5q0 -63 -45.5 -111.5 t-114.5 -48.5z" />
<glyph unicode="&#x4e8;" horiz-adv-x="2144" d="M1976 1024q0 -324 -117 -560t-321 -364t-466 -128t-466 128t-321 364t-117 560t117 560t321 364t466 128t466 -128t321 -364t117 -560zM1736 1024q0 266 -88.5 449t-239 277t-336.5 94t-336.5 -94t-239 -277t-88.5 -449t88.5 -449t239 -277t336.5 -94t336.5 94t239 277 t88.5 449zM1776 1134v-220h-1408v220h1408z" />
<glyph unicode="&#x4e9;" horiz-adv-x="1680" d="M1378 870v-204h-1076v204h1076zM840 -32q-208 0 -364.5 99t-244 277t-87.5 416q0 240 87.5 419t244 278t364.5 99t364.5 -99t244 -278t87.5 -419q0 -238 -87.5 -416t-244 -277t-364.5 -99zM840 180q158 0 260 81t151 213t49 286t-49 287t-151 215t-260 82t-260 -82 t-151 -215t-49 -287t49 -286t151 -213t260 -81z" />
<glyph unicode="&#x4ea;" horiz-adv-x="2144" d="M1976 1024q0 -324 -117 -560t-321 -364t-466 -128t-466 128t-321 364t-117 560t117 560t321 364t466 128t466 -128t321 -364t117 -560zM1736 1024q0 266 -88.5 449t-239 277t-336.5 94t-336.5 -94t-239 -277t-88.5 -449t88.5 -449t239 -277t336.5 -94t336.5 94t239 277 t88.5 449zM1776 1134v-220h-1408v220h1408zM784 2304q-63 0 -111.5 48.5t-48.5 111.5q0 69 48.5 114.5t111.5 45.5q69 0 114.5 -45.5t45.5 -114.5q0 -63 -45.5 -111.5t-114.5 -48.5zM1360 2304q-63 0 -111.5 48.5t-48.5 111.5q0 69 48.5 114.5t111.5 45.5q69 0 114.5 -45.5 t45.5 -114.5q0 -63 -45.5 -111.5t-114.5 -48.5z" />
<glyph unicode="&#x4eb;" horiz-adv-x="1680" d="M1378 870v-204h-1076v204h1076zM840 -32q-208 0 -364.5 99t-244 277t-87.5 416q0 240 87.5 419t244 278t364.5 99t364.5 -99t244 -278t87.5 -419q0 -238 -87.5 -416t-244 -277t-364.5 -99zM840 180q158 0 260 81t151 213t49 286t-49 287t-151 215t-260 82t-260 -82 t-151 -215t-49 -287t49 -286t151 -213t260 -81zM552 1792q-63 0 -111.5 48.5t-48.5 111.5q0 69 48.5 114.5t111.5 45.5q69 0 114.5 -45.5t45.5 -114.5q0 -63 -45.5 -111.5t-114.5 -48.5zM1128 1792q-63 0 -111.5 48.5t-48.5 111.5q0 69 48.5 114.5t111.5 45.5 q69 0 114.5 -45.5t45.5 -114.5q0 -63 -45.5 -111.5t-114.5 -48.5z" />
<glyph unicode="&#x4ec;" horiz-adv-x="1888" d="M1500 1108v-220h-844v220h844zM168 640h256q33 -216 146 -332t362 -116q176 0 294.5 99t178 262t59.5 355v228q0 212 -66.5 373.5t-191 252t-298.5 90.5q-152 0 -252 -54t-156 -155t-76 -243h-256q20 196 107.5 348.5t245 240t387.5 87.5q250 0 432 -116.5t281 -327 t99 -492.5v-236q0 -282 -98 -491.5t-275 -325t-415 -115.5q-244 0 -405.5 88.5t-249 240t-109.5 339.5zM656 2304q-63 0 -111.5 48.5t-48.5 111.5q0 69 48.5 114.5t111.5 45.5q69 0 114.5 -45.5t45.5 -114.5q0 -63 -45.5 -111.5t-114.5 -48.5zM1232 2304q-63 0 -111.5 48.5 t-48.5 111.5q0 69 48.5 114.5t111.5 45.5q69 0 114.5 -45.5t45.5 -114.5q0 -63 -45.5 -111.5t-114.5 -48.5z" />
<glyph unicode="&#x4ed;" horiz-adv-x="1524" d="M724 1336q-80 -1 -160.5 -41t-134 -105.5t-53.5 -145.5h-232q0 100 48 192t129.5 164t186 114t216.5 42q210 0 356.5 -106t223 -280t76.5 -378v-56q0 -203 -76.5 -377.5t-223 -280.5t-356.5 -106q-168 0 -299 74.5t-206 199.5t-75 278h232q0 -87 49.5 -162.5t129 -122 t169.5 -47.5q134 1 228 84t143 208t49 252v56q0 130 -48.5 254.5t-142 206.5t-229.5 83zM1240 884v-220h-672v220h672zM472 1792q-63 0 -111.5 48.5t-48.5 111.5q0 69 48.5 114.5t111.5 45.5q69 0 114.5 -45.5t45.5 -114.5q0 -63 -45.5 -111.5t-114.5 -48.5zM1048 1792 q-63 0 -111.5 48.5t-48.5 111.5q0 69 48.5 114.5t111.5 45.5q69 0 114.5 -45.5t45.5 -114.5q0 -63 -45.5 -111.5t-114.5 -48.5z" />
<glyph unicode="&#x4ee;" horiz-adv-x="1756" d="M356 -28v232h128q74 0 124.5 29t84 75t55.5 96l32 76l-708 1568h268l564 -1272l516 1272h264l-708 -1716q-42 -96 -95.5 -178t-145 -132t-247.5 -50h-132zM1340 2560v-200h-936v200h936z" />
<glyph unicode="&#x4ef;" horiz-adv-x="1568" d="M368 -576q-60 0 -107 9.5t-65 18.5l60 208q86 -22 152 -16t117.5 58.5t94.5 169.5l44 120l-568 1544h256l424 -1224h16l424 1224h256l-652 -1760q-44 -119 -109 -197.5t-150.5 -116.5t-192.5 -38zM1252 2048v-200h-936v200h936z" />
<glyph unicode="&#x4f0;" horiz-adv-x="1756" d="M356 -28v232h128q74 0 124.5 29t84 75t55.5 96l32 76l-708 1568h268l564 -1272l516 1272h264l-708 -1716q-42 -96 -95.5 -178t-145 -132t-247.5 -50h-132zM584 2304q-63 0 -111.5 48.5t-48.5 111.5q0 69 48.5 114.5t111.5 45.5q69 0 114.5 -45.5t45.5 -114.5 q0 -63 -45.5 -111.5t-114.5 -48.5zM1160 2304q-63 0 -111.5 48.5t-48.5 111.5q0 69 48.5 114.5t111.5 45.5q69 0 114.5 -45.5t45.5 -114.5q0 -63 -45.5 -111.5t-114.5 -48.5z" />
<glyph unicode="&#x4f1;" horiz-adv-x="1568" d="M368 -576q-60 0 -107 9.5t-65 18.5l60 208q86 -22 152 -16t117.5 58.5t94.5 169.5l44 120l-568 1544h256l424 -1224h16l424 1224h256l-652 -1760q-44 -119 -109 -197.5t-150.5 -116.5t-192.5 -38zM496 1792q-63 0 -111.5 48.5t-48.5 111.5q0 69 48.5 114.5t111.5 45.5 q69 0 114.5 -45.5t45.5 -114.5q0 -63 -45.5 -111.5t-114.5 -48.5zM1072 1792q-63 0 -111.5 48.5t-48.5 111.5q0 69 48.5 114.5t111.5 45.5q69 0 114.5 -45.5t45.5 -114.5q0 -63 -45.5 -111.5t-114.5 -48.5z" />
<glyph unicode="&#x4f2;" horiz-adv-x="1756" d="M356 -28v232h128q74 0 124.5 29t84 75t55.5 96l32 76l-708 1568h268l564 -1272l516 1272h264l-708 -1716q-42 -96 -95.5 -178t-145 -132t-247.5 -50h-132zM932 2216l308 424h264l-364 -424h-208zM520 2216l224 424h260l-296 -424h-188z" />
<glyph unicode="&#x4f3;" horiz-adv-x="1568" d="M368 -576q-60 0 -107 9.5t-65 18.5l60 208q86 -22 152 -16t117.5 58.5t94.5 169.5l44 120l-568 1544h256l424 -1224h16l424 1224h256l-652 -1760q-44 -119 -109 -197.5t-150.5 -116.5t-192.5 -38zM844 1704l308 424h264l-364 -424h-208zM432 1704l224 424h260l-296 -424 h-188z" />
<glyph unicode="&#x4f4;" horiz-adv-x="2012" d="M268 2048h248v-684q0 -152 53 -238.5t150 -122t229 -35.5q83 0 161 6.5t152.5 18.5t146 29t140.5 38v-224q-67 -21 -132.5 -38t-136 -29t-151.5 -18.5t-180 -6.5q-212 0 -364.5 61t-234 197t-81.5 362v684zM1516 2048h248v-2048h-248v2048zM728 2304q-63 0 -111.5 48.5 t-48.5 111.5q0 69 48.5 114.5t111.5 45.5q69 0 114.5 -45.5t45.5 -114.5q0 -63 -45.5 -111.5t-114.5 -48.5zM1304 2304q-63 0 -111.5 48.5t-48.5 111.5q0 69 48.5 114.5t111.5 45.5q69 0 114.5 -45.5t45.5 -114.5q0 -63 -45.5 -111.5t-114.5 -48.5z" />
<glyph unicode="&#x4f5;" horiz-adv-x="1616" d="M1400 1536v-1536h-236v1536h236zM1308 804v-220q-80 -30 -159 -52.5t-166 -35t-191 -12.5q-261 0 -418.5 141t-157.5 423v492h236v-492q0 -118 45 -194t122 -113t173 -37q150 0 271.5 27.5t244.5 72.5zM520 1792q-63 0 -111.5 48.5t-48.5 111.5q0 69 48.5 114.5 t111.5 45.5q69 0 114.5 -45.5t45.5 -114.5q0 -63 -45.5 -111.5t-114.5 -48.5zM1096 1792q-63 0 -111.5 48.5t-48.5 111.5q0 69 48.5 114.5t111.5 45.5q69 0 114.5 -45.5t45.5 -114.5q0 -63 -45.5 -111.5t-114.5 -48.5z" />
<glyph unicode="&#x4f6;" horiz-adv-x="1620" d="M1484 2048v-220h-988v-1828h-248v2048h1236zM728 220v-716h-236v716h236z" />
<glyph unicode="&#x4f7;" horiz-adv-x="1292" d="M1164 1536v-220h-712v-1316h-236v1536h948zM684 212v-716h-236v716h236z" />
<glyph unicode="&#x4f8;" horiz-adv-x="2328" d="M432 1188h584q220 0 371.5 -72t230 -203t78.5 -309t-78.5 -314t-230 -213t-371.5 -77h-768v2048h248v-1832h520q140 0 237.5 56.5t148 146t50.5 189.5q0 147 -113 253.5t-323 106.5h-584v220zM2144 2048v-2048h-248v2048h248zM932 2216q-63 0 -111.5 48.5t-48.5 111.5 q0 69 48.5 114.5t111.5 45.5q69 0 114.5 -45.5t45.5 -114.5q0 -63 -45.5 -111.5t-114.5 -48.5zM1508 2216q-63 0 -111.5 48.5t-48.5 111.5q0 69 48.5 114.5t111.5 45.5q69 0 114.5 -45.5t45.5 -114.5q0 -63 -45.5 -111.5t-114.5 -48.5z" />
<glyph unicode="&#x4f9;" horiz-adv-x="2112" d="M420 980h440q270 0 413 -137t143 -347q0 -138 -64 -250.5t-188 -179t-304 -66.5h-644v1536h236v-1316h408q140 0 230 74t90 190q0 122 -90 199t-230 77h-440v220zM1660 0v1536h236v-1536h-236zM768 1792q-63 0 -111.5 48.5t-48.5 111.5q0 69 48.5 114.5t111.5 45.5 q69 0 114.5 -45.5t45.5 -114.5q0 -63 -45.5 -111.5t-114.5 -48.5zM1344 1792q-63 0 -111.5 48.5t-48.5 111.5q0 69 48.5 114.5t111.5 45.5q69 0 114.5 -45.5t45.5 -114.5q0 -63 -45.5 -111.5t-114.5 -48.5z" />
<glyph unicode="&#x4fa;" horiz-adv-x="1620" d="M1484 2048v-220h-988v-1828h-248v2048h1236zM-68 964v184h880v-184h-880zM496 216h236v-340q0 -210 -109 -343t-319 -133q-42 0 -77.5 4t-74.5 16l20 224q18 -9 66 -14.5t66 -5.5q81 0 136.5 66t55.5 186v340z" />
<glyph unicode="&#x4fb;" horiz-adv-x="1292" d="M1164 1536v-220h-712v-1316h-236v1536h948zM-104 676v184h880v-184h-880zM216 216h236v-340q0 -210 -109 -343t-319 -133q-42 0 -77.5 4t-74.5 16l20 224q18 -9 66 -14.5t66 -5.5q81 0 136.5 66t55.5 186v340z" />
<glyph unicode="&#x4fc;" horiz-adv-x="1808" d="M368 2048l528 -852h16l528 852h292l-644 -1024l644 -1024h-292l-528 836h-16l-528 -836h-292l660 1024l-660 1024h292zM1568 216h236v-340q0 -210 -109 -343t-319 -133q-42 0 -77.5 4t-74.5 16l20 224q18 -9 66 -14.5t66 -5.5q81 0 136.5 66t55.5 186v340z" />
<glyph unicode="&#x4fd;" horiz-adv-x="1520" d="M120 0l488 768l-488 768h272l368 -628l368 628h272l-496 -768l312 -488q47 -72 80.5 -141t51.5 -140t16 -151q-3 -120 -51.5 -222t-142.5 -164t-234 -62q-42 0 -77.5 4t-74.5 16l20 224q18 -9 66 -14.5t66 -5.5q54 0 106 37t79 109t7 178q-7 38 -21 75.5t-34 75.5t-45 77 l-268 420l-368 -596h-272z" />
<glyph unicode="&#x4fe;" horiz-adv-x="1808" d="M368 2048l528 -852h16l528 852h292l-644 -1024l644 -1024h-292l-528 836h-16l-528 -836h-292l660 1024l-660 1024h292zM464 932v184h880v-184h-880z" />
<glyph unicode="&#x4ff;" horiz-adv-x="1520" d="M392 1536l368 -628l368 628h272l-496 -768l496 -768h-272l-368 596l-368 -596h-272l488 768l-488 768h272zM320 676v184h880v-184h-880z" />
<glyph unicode="&#x2000;" horiz-adv-x="1360" />
<glyph unicode="&#x2001;" horiz-adv-x="2720" />
<glyph unicode="&#x2002;" horiz-adv-x="1360" />
<glyph unicode="&#x2003;" horiz-adv-x="2720" />
<glyph unicode="&#x2004;" horiz-adv-x="906" />
<glyph unicode="&#x2005;" horiz-adv-x="680" />
<glyph unicode="&#x2006;" horiz-adv-x="453" />
<glyph unicode="&#x2007;" horiz-adv-x="453" />
<glyph unicode="&#x2008;" horiz-adv-x="340" />
<glyph unicode="&#x2009;" horiz-adv-x="544" />
<glyph unicode="&#x200a;" horiz-adv-x="151" />
<glyph unicode="&#x2010;" horiz-adv-x="1296" d="M1096 988v-220h-896v220h896z" />
<glyph unicode="&#x2011;" horiz-adv-x="1296" d="M1096 988v-220h-896v220h896z" />
<glyph unicode="&#x2012;" horiz-adv-x="1296" d="M1096 988v-220h-896v220h896z" />
<glyph unicode="&#x2013;" horiz-adv-x="1408" d="M1408 988v-220h-1408v220h1408z" />
<glyph unicode="&#x2014;" horiz-adv-x="2816" d="M2816 988v-220h-2816v220h2816z" />
<glyph unicode="&#x2018;" horiz-adv-x="560" d="M136 1408v180q0 82 29.5 174.5t86 179t136.5 150.5l128 -104q-63 -90 -109.5 -187.5t-46.5 -208.5v-184h-224z" />
<glyph unicode="&#x2019;" horiz-adv-x="520" d="M424 2048v-180q0 -82 -29.5 -174.5t-86 -179t-136.5 -150.5l-128 104q63 90 109.5 187.5t46.5 208.5v184h224z" />
<glyph unicode="&#x201a;" horiz-adv-x="560" d="M420 256v-180q0 -82 -29.5 -174.5t-86 -179t-136.5 -150.5l-128 104q63 90 109.5 187.5t46.5 208.5v184h224z" />
<glyph unicode="&#x201c;" horiz-adv-x="1072" d="M136 1408v180q0 82 29.5 174.5t86 179t136.5 150.5l128 -104q-63 -90 -109.5 -187.5t-46.5 -208.5v-184h-224zM648 1408v180q0 82 29.5 174.5t86 179t136.5 150.5l128 -104q-63 -90 -109.5 -187.5t-46.5 -208.5v-184h-224z" />
<glyph unicode="&#x201d;" horiz-adv-x="1072" d="M424 2048v-180q0 -82 -29.5 -174.5t-86 -179t-136.5 -150.5l-128 104q63 90 109.5 187.5t46.5 208.5v184h224zM936 2048v-180q0 -82 -29.5 -174.5t-86 -179t-136.5 -150.5l-128 104q63 90 109.5 187.5t46.5 208.5v184h224z" />
<glyph unicode="&#x201e;" horiz-adv-x="1072" d="M424 256v-180q0 -82 -29.5 -174.5t-86 -179t-136.5 -150.5l-128 104q63 90 109.5 187.5t46.5 208.5v184h224zM936 256v-180q0 -82 -29.5 -174.5t-86 -179t-136.5 -150.5l-128 104q63 90 109.5 187.5t46.5 208.5v184h224z" />
<glyph unicode="&#x2026;" horiz-adv-x="2312" d="M388 -16q-74 0 -127 53t-53 127t53 127t127 53t127 -53t53 -127q0 -49 -24.5 -90t-65 -65.5t-90.5 -24.5zM1156 -16q-74 0 -127 53t-53 127t53 127t127 53t127 -53t53 -127q0 -49 -24.5 -90t-65 -65.5t-90.5 -24.5zM1924 -16q-74 0 -127 53t-53 127t53 127t127 53 t127 -53t53 -127q0 -49 -24.5 -90t-65 -65.5t-90.5 -24.5z" />
<glyph unicode="&#x202f;" horiz-adv-x="544" />
<glyph unicode="&#x2039;" horiz-adv-x="1008" d="M800 220h-208l-404 600v20h228zM800 1448l-384 -620h-228v20l404 600h208z" />
<glyph unicode="&#x203a;" horiz-adv-x="1008" d="M188 220l384 620h228v-20l-404 -600h-208zM188 1448h208l404 -600v-20h-228z" />
<glyph unicode="&#x205f;" horiz-adv-x="680" />
<glyph unicode="&#x20ac;" horiz-adv-x="1872" d="M1468 1324l-92 -200h-1304l72 200h1324zM1296 924l-92 -200h-1132l72 200h1152zM1704 1864l-96 -208q-64 58 -135 100t-149 65t-164 23q-170 0 -306 -94t-215 -277t-79 -449t79 -449t215 -277t306 -94q88 0 166.5 23t147 63t126.5 90l100 -208q-105 -99 -246 -149.5 t-294 -50.5q-246 0 -435.5 128t-297 364t-107.5 560t107.5 560t297 364t435.5 128q159 0 297.5 -55t246.5 -157z" />
<glyph unicode="&#x2122;" horiz-adv-x="1712" d="M1166 1312l-326 736h132l228 -540l228 540h132l-326 -736h-68zM816 1312v736h128v-736h-128zM1456 1312v736h128v-736h-128zM336 1312v672h128v-672h-128zM112 1936v112h576v-112h-576z" />
<glyph unicode="&#xe103;" horiz-adv-x="1264" d="M192 900v184h880v-184h-880z" />
<glyph unicode="&#xe10f;" horiz-adv-x="1264" d="M76 920v220h288q262 0 447 -86t283 -261t98 -441q0 -139 -27.5 -256.5t-81.5 -210t-133 -157t-183 -98.5t-231 -34l-4 216q108 0 186.5 40t129.5 113t75.5 171.5t24.5 215.5q0 297 -151 432.5t-433 135.5h-288z" />
<glyph unicode="&#xe114;" horiz-adv-x="752" d="M420 216h236v-340q0 -210 -109 -343t-319 -133q-42 0 -77.5 4t-74.5 16l20 224q18 -9 66 -14.5t66 -5.5q81 0 136.5 66t55.5 186v340z" />
<glyph horiz-adv-x="1664" d="M544 2280q-63 0 -111.5 48.5t-48.5 111.5q0 69 48.5 114.5t111.5 45.5q69 0 114.5 -45.5t45.5 -114.5q0 -63 -45.5 -111.5t-114.5 -48.5zM1120 2280q-63 0 -111.5 48.5t-48.5 111.5q0 69 48.5 114.5t111.5 45.5q69 0 114.5 -45.5t45.5 -114.5q0 -63 -45.5 -111.5 t-114.5 -48.5z" />
<glyph horiz-adv-x="776" d="M528 256v-188q-2 -88 -19 -172t-51 -165t-86 -159l-200 40q34 80 61 154.5t43 148t16 149.5v192h236z" />
<glyph horiz-adv-x="496" d="M368 220v-716h-236v716h236z" />
</font>
</defs>
</svg>
